<svg xmlns="http://www.w3.org/2000/svg" xmlns:xlink="http://www.w3.org/1999/xlink" width="500" zoomAndPan="magnify" viewBox="0 0 375 120" height="150" preserveAspectRatio="xMidYMid meet" version="1.2"><defs><clipPath id="de1e9229bf"><rect x="0" width="271" y="0" height="53"/></clipPath><clipPath id="edc25530c0"><rect x="0" width="124" y="0" height="13"/></clipPath><clipPath id="8d2055f545"><path d="M 2.304688 9.140625 L 93.804688 9.140625 L 93.804688 105 L 2.304688 105 Z M 2.304688 9.140625 "/></clipPath><filter x="0%" y="0%" width="100%" filterUnits="objectBoundingBox" id="9adeda9c88" height="100%"><feColorMatrix values="0 0 0 0 1 0 0 0 0 1 0 0 0 0 1 0 0 0 1 0" type="matrix" in="SourceGraphic"/></filter><clipPath id="2e8ff2fa80"><path d="M 0 0.441406 L 92 0.441406 L 92 96.199219 L 0 96.199219 Z M 0 0.441406 "/></clipPath><clipPath id="c5da12746d"><rect x="0" width="93" y="0" height="97"/></clipPath><clipPath id="e71b38d6ab"><path d="M 2.191406 9.019531 L 94.441406 9.019531 L 94.441406 105 L 2.191406 105 Z M 2.191406 9.019531 "/></clipPath></defs><g id="397486702d"><g transform="matrix(1,0,0,1,104,34)"><g clip-path="url(#de1e9229bf)"><g style="fill:#ffffff;fill-opacity:1;"><g transform="translate(0.7293, 40.645441)"><path style="stroke:none" d="M 11.421875 0 L 4.5 0 L 4.5 -37.796875 L 11.421875 -37.796875 L 11.421875 -22.125 L 30.484375 -22.125 L 30.484375 -37.796875 L 37.4375 -37.796875 L 37.4375 0 L 30.484375 0 L 30.484375 -15.953125 L 11.421875 -15.953125 Z M 11.421875 0 "/></g><g transform="translate(42.674988, 40.645441)"><path style="stroke:none" d="M 15.375 0.859375 C 13.445312 0.859375 11.660156 0.472656 10.015625 -0.296875 C 8.378906 -1.078125 6.953125 -2.160156 5.734375 -3.546875 C 4.523438 -4.941406 3.585938 -6.554688 2.921875 -8.390625 C 2.253906 -10.222656 1.921875 -12.1875 1.921875 -14.28125 C 1.921875 -16.375 2.257812 -18.332031 2.9375 -20.15625 C 3.613281 -21.988281 4.554688 -23.597656 5.765625 -24.984375 C 6.984375 -26.378906 8.40625 -27.46875 10.03125 -28.25 C 11.664062 -29.039062 13.4375 -29.4375 15.34375 -29.4375 C 17.675781 -29.4375 19.75 -28.929688 21.5625 -27.921875 C 23.382812 -26.910156 24.75 -25.515625 25.65625 -23.734375 L 25.65625 -28.578125 L 32.046875 -28.578125 L 32.046875 0 L 25.65625 0 L 25.65625 -4.8125 C 24.726562 -3.03125 23.359375 -1.640625 21.546875 -0.640625 C 19.742188 0.359375 17.6875 0.859375 15.375 0.859375 Z M 16.984375 -5.359375 C 18.148438 -5.359375 19.242188 -5.582031 20.265625 -6.03125 C 21.285156 -6.488281 22.175781 -7.117188 22.9375 -7.921875 C 23.707031 -8.734375 24.304688 -9.679688 24.734375 -10.765625 C 25.160156 -11.847656 25.375 -13.019531 25.375 -14.28125 C 25.375 -15.519531 25.15625 -16.679688 24.71875 -17.765625 C 24.28125 -18.859375 23.679688 -19.8125 22.921875 -20.625 C 22.171875 -21.4375 21.285156 -22.066406 20.265625 -22.515625 C 19.242188 -22.972656 18.148438 -23.203125 16.984375 -23.203125 C 15.441406 -23.203125 14.035156 -22.832031 12.765625 -22.09375 C 11.503906 -21.351562 10.492188 -20.316406 9.734375 -18.984375 C 8.972656 -17.648438 8.59375 -16.082031 8.59375 -14.28125 C 8.59375 -12.425781 8.972656 -10.832031 9.734375 -9.5 C 10.503906 -8.164062 11.53125 -7.140625 12.8125 -6.421875 C 14.09375 -5.710938 15.484375 -5.359375 16.984375 -5.359375 Z M 16.984375 -5.359375 "/></g><g transform="translate(78.672117, 40.645441)"><path style="stroke:none" d="M 10.671875 0 L 3.953125 0 L 3.953125 -28.578125 L 10.390625 -28.578125 L 10.390625 -23.40625 C 11.054688 -24.976562 12.035156 -26.234375 13.328125 -27.171875 C 14.628906 -28.109375 16.207031 -28.578125 18.0625 -28.578125 L 21.125 -28.578125 L 21.125 -22.796875 L 18.421875 -22.796875 C 16.890625 -22.796875 15.539062 -22.421875 14.375 -21.671875 C 13.207031 -20.929688 12.296875 -19.859375 11.640625 -18.453125 C 10.992188 -17.046875 10.671875 -15.320312 10.671875 -13.28125 Z M 10.671875 0 "/></g><g transform="translate(100.659552, 40.645441)"><path style="stroke:none" d="M 16.78125 0.859375 C 14.875 0.859375 13.101562 0.59375 11.46875 0.0625 C 9.84375 -0.457031 8.414062 -1.28125 7.1875 -2.40625 C 5.96875 -3.539062 5.019531 -5.003906 4.34375 -6.796875 C 3.664062 -8.597656 3.328125 -10.769531 3.328125 -13.3125 L 3.328125 -28.578125 L 10 -28.578125 L 10 -13.515625 C 10 -10.878906 10.5625 -8.863281 11.6875 -7.46875 C 12.820312 -6.082031 14.515625 -5.390625 16.765625 -5.390625 C 19.023438 -5.390625 20.707031 -6.085938 21.8125 -7.484375 C 22.925781 -8.890625 23.484375 -10.898438 23.484375 -13.515625 L 23.484375 -28.578125 L 30.1875 -28.578125 L 30.1875 -13.3125 C 30.1875 -10.769531 29.847656 -8.597656 29.171875 -6.796875 C 28.492188 -5.003906 27.539062 -3.539062 26.3125 -2.40625 C 25.09375 -1.28125 23.671875 -0.457031 22.046875 0.0625 C 20.429688 0.59375 18.675781 0.859375 16.78125 0.859375 Z M 16.78125 0.859375 "/></g><g transform="translate(134.182746, 40.645441)"><path style="stroke:none" d="M 16.671875 0.859375 C 14.546875 0.859375 12.582031 0.46875 10.78125 -0.3125 C 8.988281 -1.101562 7.425781 -2.191406 6.09375 -3.578125 C 4.769531 -4.972656 3.742188 -6.585938 3.015625 -8.421875 C 2.285156 -10.253906 1.921875 -12.207031 1.921875 -14.28125 C 1.921875 -16.363281 2.285156 -18.316406 3.015625 -20.140625 C 3.742188 -21.960938 4.769531 -23.570312 6.09375 -24.96875 C 7.425781 -26.375 8.988281 -27.46875 10.78125 -28.25 C 12.582031 -29.039062 14.546875 -29.4375 16.671875 -29.4375 C 19.140625 -29.4375 21.34375 -28.957031 23.28125 -28 C 25.21875 -27.050781 26.835938 -25.75 28.140625 -24.09375 C 29.441406 -22.445312 30.363281 -20.578125 30.90625 -18.484375 L 24.046875 -18.484375 C 23.410156 -20.078125 22.4375 -21.257812 21.125 -22.03125 C 19.8125 -22.800781 18.335938 -23.1875 16.703125 -23.1875 C 15.660156 -23.1875 14.65625 -22.984375 13.6875 -22.578125 C 12.726562 -22.179688 11.863281 -21.601562 11.09375 -20.84375 C 10.332031 -20.082031 9.722656 -19.148438 9.265625 -18.046875 C 8.816406 -16.941406 8.59375 -15.6875 8.59375 -14.28125 C 8.59375 -12.875 8.816406 -11.617188 9.265625 -10.515625 C 9.722656 -9.410156 10.332031 -8.472656 11.09375 -7.703125 C 11.863281 -6.941406 12.734375 -6.359375 13.703125 -5.953125 C 14.679688 -5.554688 15.679688 -5.359375 16.703125 -5.359375 C 18.335938 -5.359375 19.8125 -5.757812 21.125 -6.5625 C 22.4375 -7.375 23.410156 -8.671875 24.046875 -10.453125 L 30.875 -10.453125 C 30.394531 -8.242188 29.492188 -6.285156 28.171875 -4.578125 C 26.859375 -2.878906 25.222656 -1.546875 23.265625 -0.578125 C 21.316406 0.378906 19.117188 0.859375 16.671875 0.859375 Z M 16.671875 0.859375 "/></g><g transform="translate(166.566263, 40.645441)"><path style="stroke:none" d="M 16.921875 0.859375 C 14.753906 0.859375 12.753906 0.472656 10.921875 -0.296875 C 9.085938 -1.078125 7.5 -2.160156 6.15625 -3.546875 C 4.8125 -4.941406 3.769531 -6.554688 3.03125 -8.390625 C 2.289062 -10.222656 1.921875 -12.1875 1.921875 -14.28125 C 1.921875 -16.375 2.289062 -18.332031 3.03125 -20.15625 C 3.769531 -21.988281 4.8125 -23.597656 6.15625 -24.984375 C 7.5 -26.378906 9.085938 -27.46875 10.921875 -28.25 C 12.753906 -29.039062 14.765625 -29.4375 16.953125 -29.4375 C 19.160156 -29.4375 21.179688 -29.039062 23.015625 -28.25 C 24.847656 -27.46875 26.441406 -26.378906 27.796875 -24.984375 C 29.148438 -23.597656 30.195312 -21.988281 30.9375 -20.15625 C 31.675781 -18.332031 32.046875 -16.375 32.046875 -14.28125 C 32.046875 -12.175781 31.675781 -10.207031 30.9375 -8.375 C 30.195312 -6.550781 29.148438 -4.941406 27.796875 -3.546875 C 26.441406 -2.160156 24.84375 -1.078125 23 -0.296875 C 21.15625 0.472656 19.128906 0.859375 16.921875 0.859375 Z M 16.984375 -5.390625 C 18.597656 -5.390625 20.035156 -5.773438 21.296875 -6.546875 C 22.554688 -7.316406 23.550781 -8.367188 24.28125 -9.703125 C 25.007812 -11.035156 25.375 -12.5625 25.375 -14.28125 C 25.375 -16.007812 25.007812 -17.546875 24.28125 -18.890625 C 23.550781 -20.234375 22.554688 -21.285156 21.296875 -22.046875 C 20.035156 -22.816406 18.597656 -23.203125 16.984375 -23.203125 C 15.390625 -23.203125 13.957031 -22.816406 12.6875 -22.046875 C 11.414062 -21.285156 10.414062 -20.234375 9.6875 -18.890625 C 8.957031 -17.546875 8.59375 -16.007812 8.59375 -14.28125 C 8.59375 -12.5625 8.957031 -11.035156 9.6875 -9.703125 C 10.414062 -8.367188 11.414062 -7.316406 12.6875 -6.546875 C 13.957031 -5.773438 15.390625 -5.390625 16.984375 -5.390625 Z M 16.984375 -5.390625 "/></g><g transform="translate(200.53421, 40.645441)"><path style="stroke:none" d="M 15.734375 0.859375 C 13.710938 0.859375 11.851562 0.472656 10.15625 -0.296875 C 8.457031 -1.078125 7 -2.160156 5.78125 -3.546875 C 4.5625 -4.941406 3.613281 -6.554688 2.9375 -8.390625 C 2.257812 -10.222656 1.921875 -12.1875 1.921875 -14.28125 C 1.921875 -16.375 2.25 -18.332031 2.90625 -20.15625 C 3.5625 -21.988281 4.503906 -23.597656 5.734375 -24.984375 C 6.972656 -26.378906 8.441406 -27.46875 10.140625 -28.25 C 11.847656 -29.039062 13.738281 -29.4375 15.8125 -29.4375 C 17.375 -29.4375 18.785156 -29.160156 20.046875 -28.609375 C 21.316406 -28.066406 22.410156 -27.375 23.328125 -26.53125 C 24.242188 -25.6875 24.953125 -24.8125 25.453125 -23.90625 L 25.3125 -26.875 L 25.3125 -39.140625 L 32.015625 -39.140625 L 32.015625 0 L 25.625 0 L 25.625 -4.8125 C 25.070312 -3.8125 24.320312 -2.878906 23.375 -2.015625 C 22.425781 -1.148438 21.3125 -0.457031 20.03125 0.0625 C 18.757812 0.59375 17.328125 0.859375 15.734375 0.859375 Z M 16.953125 -5.34375 C 18.117188 -5.34375 19.210938 -5.566406 20.234375 -6.015625 C 21.253906 -6.472656 22.144531 -7.109375 22.90625 -7.921875 C 23.675781 -8.734375 24.28125 -9.679688 24.71875 -10.765625 C 25.15625 -11.847656 25.375 -13.019531 25.375 -14.28125 C 25.375 -15.539062 25.160156 -16.707031 24.734375 -17.78125 C 24.304688 -18.863281 23.707031 -19.8125 22.9375 -20.625 C 22.175781 -21.4375 21.285156 -22.066406 20.265625 -22.515625 C 19.242188 -22.972656 18.140625 -23.203125 16.953125 -23.203125 C 15.378906 -23.203125 13.953125 -22.816406 12.671875 -22.046875 C 11.390625 -21.285156 10.378906 -20.238281 9.640625 -18.90625 C 8.898438 -17.570312 8.53125 -16.03125 8.53125 -14.28125 C 8.53125 -12.59375 8.890625 -11.070312 9.609375 -9.71875 C 10.335938 -8.375 11.335938 -7.304688 12.609375 -6.515625 C 13.878906 -5.734375 15.328125 -5.34375 16.953125 -5.34375 Z M 16.953125 -5.34375 "/></g><g transform="translate(236.475744, 40.645441)"><path style="stroke:none" d="M 31.125 -14.78125 C 31.125 -14.4375 31.113281 -14.101562 31.09375 -13.78125 C 31.082031 -13.46875 31.046875 -13.039062 30.984375 -12.5 L 8.671875 -12.5 C 8.910156 -10.945312 9.40625 -9.625 10.15625 -8.53125 C 10.90625 -7.4375 11.835938 -6.597656 12.953125 -6.015625 C 14.066406 -5.429688 15.28125 -5.140625 16.59375 -5.140625 C 18.300781 -5.140625 19.679688 -5.476562 20.734375 -6.15625 C 21.785156 -6.832031 22.554688 -7.773438 23.046875 -8.984375 L 30.375 -8.984375 C 30.019531 -7.703125 29.441406 -6.46875 28.640625 -5.28125 C 27.835938 -4.09375 26.851562 -3.039062 25.6875 -2.125 C 24.519531 -1.207031 23.179688 -0.484375 21.671875 0.046875 C 20.160156 0.585938 18.515625 0.859375 16.734375 0.859375 C 14.585938 0.859375 12.609375 0.46875 10.796875 -0.3125 C 8.992188 -1.101562 7.425781 -2.191406 6.09375 -3.578125 C 4.769531 -4.972656 3.742188 -6.585938 3.015625 -8.421875 C 2.285156 -10.253906 1.921875 -12.207031 1.921875 -14.28125 C 1.921875 -16.375 2.285156 -18.332031 3.015625 -20.15625 C 3.742188 -21.988281 4.769531 -23.597656 6.09375 -24.984375 C 7.425781 -26.378906 8.992188 -27.46875 10.796875 -28.25 C 12.609375 -29.039062 14.585938 -29.4375 16.734375 -29.4375 C 18.878906 -29.4375 20.835938 -29.046875 22.609375 -28.265625 C 24.378906 -27.484375 25.898438 -26.410156 27.171875 -25.046875 C 28.441406 -23.691406 29.414062 -22.132812 30.09375 -20.375 C 30.78125 -18.613281 31.125 -16.75 31.125 -14.78125 Z M 8.953125 -17.703125 L 24.265625 -17.703125 C 24.171875 -18.773438 23.769531 -19.75 23.0625 -20.625 C 22.363281 -21.507812 21.457031 -22.21875 20.34375 -22.75 C 19.226562 -23.289062 18.015625 -23.5625 16.703125 -23.5625 C 15.578125 -23.5625 14.492188 -23.351562 13.453125 -22.9375 C 12.410156 -22.519531 11.492188 -21.878906 10.703125 -21.015625 C 9.921875 -20.160156 9.335938 -19.054688 8.953125 -17.703125 Z M 8.953125 -17.703125 "/></g></g></g></g><g transform="matrix(1,0,0,1,178,81)"><g clip-path="url(#edc25530c0)"><g style="fill:#8c52ff;fill-opacity:1;"><g transform="translate(1.256912, 9.962626)"><path style="stroke:none" d="M 2.859375 -6.34375 C 3.566406 -6.34375 4.109375 -6.164062 4.484375 -5.8125 C 4.859375 -5.457031 5.082031 -4.984375 5.15625 -4.390625 L 3.890625 -4.390625 C 3.847656 -4.710938 3.738281 -4.960938 3.5625 -5.140625 C 3.382812 -5.316406 3.132812 -5.40625 2.8125 -5.40625 C 2.5625 -5.40625 2.351562 -5.34375 2.1875 -5.21875 C 2.019531 -5.09375 1.9375 -4.910156 1.9375 -4.671875 C 1.9375 -4.410156 2.035156 -4.203125 2.234375 -4.046875 C 2.429688 -3.898438 2.773438 -3.769531 3.265625 -3.65625 C 3.941406 -3.5 4.441406 -3.257812 4.765625 -2.9375 C 5.085938 -2.625 5.25 -2.210938 5.25 -1.703125 C 5.25 -1.140625 5.023438 -0.691406 4.578125 -0.359375 C 4.140625 -0.0351562 3.597656 0.125 2.953125 0.125 C 2.191406 0.125 1.585938 -0.0390625 1.140625 -0.375 C 0.691406 -0.707031 0.4375 -1.195312 0.375 -1.84375 L 1.640625 -1.84375 C 1.710938 -1.507812 1.863281 -1.25 2.09375 -1.0625 C 2.332031 -0.882812 2.613281 -0.796875 2.9375 -0.796875 C 3.21875 -0.796875 3.457031 -0.867188 3.65625 -1.015625 C 3.851562 -1.160156 3.953125 -1.347656 3.953125 -1.578125 C 3.953125 -1.847656 3.859375 -2.0625 3.671875 -2.21875 C 3.484375 -2.382812 3.160156 -2.519531 2.703125 -2.625 C 2.015625 -2.789062 1.5 -3.015625 1.15625 -3.296875 C 0.8125 -3.578125 0.640625 -3.984375 0.640625 -4.515625 C 0.640625 -5.066406 0.851562 -5.507812 1.28125 -5.84375 C 1.71875 -6.175781 2.242188 -6.34375 2.859375 -6.34375 Z M 2.859375 -6.34375 "/></g></g><g style="fill:#8c52ff;fill-opacity:1;"><g transform="translate(6.730575, 9.962626)"><path style="stroke:none" d="M 3.53125 -6.34375 C 4.476562 -6.34375 5.222656 -6.046875 5.765625 -5.453125 C 6.316406 -4.867188 6.59375 -4.085938 6.59375 -3.109375 C 6.59375 -2.128906 6.316406 -1.34375 5.765625 -0.75 C 5.222656 -0.164062 4.476562 0.125 3.53125 0.125 C 2.582031 0.125 1.832031 -0.164062 1.28125 -0.75 C 0.726562 -1.34375 0.453125 -2.128906 0.453125 -3.109375 C 0.453125 -4.085938 0.722656 -4.867188 1.265625 -5.453125 C 1.816406 -6.046875 2.570312 -6.34375 3.53125 -6.34375 Z M 2.21875 -1.40625 C 2.539062 -1 2.976562 -0.796875 3.53125 -0.796875 C 4.082031 -0.796875 4.515625 -1 4.828125 -1.40625 C 5.140625 -1.820312 5.296875 -2.390625 5.296875 -3.109375 C 5.296875 -3.828125 5.140625 -4.390625 4.828125 -4.796875 C 4.515625 -5.203125 4.082031 -5.40625 3.53125 -5.40625 C 2.96875 -5.40625 2.53125 -5.203125 2.21875 -4.796875 C 1.90625 -4.390625 1.75 -3.820312 1.75 -3.09375 C 1.75 -2.375 1.90625 -1.8125 2.21875 -1.40625 Z M 2.21875 -1.40625 "/></g></g><g style="fill:#8c52ff;fill-opacity:1;"><g transform="translate(13.61767, 9.962626)"><path style="stroke:none" d="M 5.28125 -1.03125 L 5.28125 0 L 0.796875 0 L 0.796875 -6.203125 L 2.046875 -6.203125 L 2.046875 -1.03125 Z M 5.28125 -1.03125 "/></g></g><g style="fill:#8c52ff;fill-opacity:1;"><g transform="translate(19.055319, 9.962626)"><path style="stroke:none" d="M 5.84375 -6.203125 L 5.84375 -2.53125 C 5.84375 -2.238281 5.835938 -1.992188 5.828125 -1.796875 C 5.785156 -1.234375 5.554688 -0.769531 5.140625 -0.40625 C 4.722656 -0.0507812 4.101562 0.125 3.28125 0.125 C 2.457031 0.125 1.835938 -0.0507812 1.421875 -0.40625 C 1.003906 -0.769531 0.773438 -1.234375 0.734375 -1.796875 C 0.722656 -1.992188 0.71875 -2.238281 0.71875 -2.53125 L 0.71875 -6.203125 L 1.953125 -6.203125 L 1.953125 -2.40625 C 1.953125 -2.195312 1.957031 -2.046875 1.96875 -1.953125 C 2 -1.585938 2.125 -1.300781 2.34375 -1.09375 C 2.5625 -0.894531 2.875 -0.796875 3.28125 -0.796875 C 3.6875 -0.796875 4 -0.894531 4.21875 -1.09375 C 4.4375 -1.300781 4.5625 -1.585938 4.59375 -1.953125 C 4.601562 -2.046875 4.609375 -2.195312 4.609375 -2.40625 L 4.609375 -6.203125 Z M 5.84375 -6.203125 "/></g></g><g style="fill:#8c52ff;fill-opacity:1;"><g transform="translate(25.375237, 9.962626)"><path style="stroke:none" d="M 4.890625 -2.15625 L 6.125 -2.15625 L 6.109375 -2.0625 C 6.046875 -1.414062 5.785156 -0.894531 5.328125 -0.5 C 4.867188 -0.101562 4.269531 0.101562 3.53125 0.125 L 3.40625 0.375 C 3.9375 0.4375 4.203125 0.675781 4.203125 1.09375 C 4.203125 1.363281 4.078125 1.5625 3.828125 1.6875 C 3.585938 1.820312 3.265625 1.890625 2.859375 1.890625 C 2.671875 1.890625 2.515625 1.867188 2.390625 1.828125 L 2.390625 1.296875 C 2.546875 1.347656 2.707031 1.375 2.875 1.375 C 3.238281 1.375 3.421875 1.273438 3.421875 1.078125 C 3.421875 0.816406 3.132812 0.707031 2.5625 0.75 L 2.890625 0.09375 C 2.148438 -0.0078125 1.554688 -0.34375 1.109375 -0.90625 C 0.671875 -1.46875 0.453125 -2.1875 0.453125 -3.0625 C 0.453125 -4.0625 0.734375 -4.859375 1.296875 -5.453125 C 1.867188 -6.046875 2.59375 -6.34375 3.46875 -6.34375 C 4.28125 -6.34375 4.910156 -6.144531 5.359375 -5.75 C 5.816406 -5.351562 6.078125 -4.832031 6.140625 -4.1875 L 6.15625 -4.109375 L 4.90625 -4.109375 L 4.890625 -4.1875 C 4.734375 -5 4.253906 -5.40625 3.453125 -5.40625 C 2.941406 -5.40625 2.53125 -5.203125 2.21875 -4.796875 C 1.914062 -4.390625 1.765625 -3.835938 1.765625 -3.140625 C 1.765625 -2.390625 1.914062 -1.8125 2.21875 -1.40625 C 2.53125 -1 2.929688 -0.796875 3.421875 -0.796875 C 3.816406 -0.796875 4.132812 -0.90625 4.375 -1.125 C 4.625 -1.351562 4.789062 -1.664062 4.875 -2.0625 Z M 4.890625 -2.15625 "/></g></g><g style="fill:#8c52ff;fill-opacity:1;"><g transform="translate(31.839199, 9.962626)"><path style="stroke:none" d="M 3.046875 -6.953125 C 2.960938 -6.953125 2.921875 -6.875 2.921875 -6.71875 L 2.28125 -6.71875 C 2.28125 -7.050781 2.332031 -7.289062 2.4375 -7.4375 C 2.550781 -7.582031 2.71875 -7.65625 2.9375 -7.65625 C 3.144531 -7.65625 3.363281 -7.609375 3.59375 -7.515625 C 3.78125 -7.429688 3.914062 -7.390625 4 -7.390625 C 4.09375 -7.390625 4.140625 -7.46875 4.140625 -7.625 L 4.765625 -7.625 C 4.765625 -7.289062 4.710938 -7.046875 4.609375 -6.890625 C 4.503906 -6.742188 4.335938 -6.671875 4.109375 -6.671875 C 3.941406 -6.671875 3.722656 -6.722656 3.453125 -6.828125 C 3.253906 -6.910156 3.117188 -6.953125 3.046875 -6.953125 Z M 3.53125 -6.34375 C 4.476562 -6.34375 5.222656 -6.046875 5.765625 -5.453125 C 6.316406 -4.867188 6.59375 -4.085938 6.59375 -3.109375 C 6.59375 -2.128906 6.316406 -1.34375 5.765625 -0.75 C 5.222656 -0.164062 4.476562 0.125 3.53125 0.125 C 2.582031 0.125 1.832031 -0.164062 1.28125 -0.75 C 0.726562 -1.34375 0.453125 -2.128906 0.453125 -3.109375 C 0.453125 -4.085938 0.722656 -4.867188 1.265625 -5.453125 C 1.816406 -6.046875 2.570312 -6.34375 3.53125 -6.34375 Z M 2.21875 -1.40625 C 2.539062 -1 2.976562 -0.796875 3.53125 -0.796875 C 4.082031 -0.796875 4.515625 -1 4.828125 -1.40625 C 5.140625 -1.820312 5.296875 -2.390625 5.296875 -3.109375 C 5.296875 -3.828125 5.140625 -4.390625 4.828125 -4.796875 C 4.515625 -5.203125 4.082031 -5.40625 3.53125 -5.40625 C 2.96875 -5.40625 2.53125 -5.203125 2.21875 -4.796875 C 1.90625 -4.390625 1.75 -3.820312 1.75 -3.09375 C 1.75 -2.375 1.90625 -1.8125 2.21875 -1.40625 Z M 2.21875 -1.40625 "/></g></g><g style="fill:#8c52ff;fill-opacity:1;"><g transform="translate(38.726294, 9.962626)"><path style="stroke:none" d="M 5.28125 -0.984375 L 5.28125 0 L 0.796875 0 L 0.796875 -6.203125 L 5.1875 -6.203125 L 5.1875 -5.234375 L 2.046875 -5.234375 L 2.046875 -3.59375 L 4.96875 -3.59375 L 4.96875 -2.625 L 2.046875 -2.625 L 2.046875 -0.984375 Z M 5.28125 -0.984375 "/></g></g><g style="fill:#8c52ff;fill-opacity:1;"><g transform="translate(44.271984, 9.962626)"><path style="stroke:none" d="M 2.859375 -6.34375 C 3.566406 -6.34375 4.109375 -6.164062 4.484375 -5.8125 C 4.859375 -5.457031 5.082031 -4.984375 5.15625 -4.390625 L 3.890625 -4.390625 C 3.847656 -4.710938 3.738281 -4.960938 3.5625 -5.140625 C 3.382812 -5.316406 3.132812 -5.40625 2.8125 -5.40625 C 2.5625 -5.40625 2.351562 -5.34375 2.1875 -5.21875 C 2.019531 -5.09375 1.9375 -4.910156 1.9375 -4.671875 C 1.9375 -4.410156 2.035156 -4.203125 2.234375 -4.046875 C 2.429688 -3.898438 2.773438 -3.769531 3.265625 -3.65625 C 3.941406 -3.5 4.441406 -3.257812 4.765625 -2.9375 C 5.085938 -2.625 5.25 -2.210938 5.25 -1.703125 C 5.25 -1.140625 5.023438 -0.691406 4.578125 -0.359375 C 4.140625 -0.0351562 3.597656 0.125 2.953125 0.125 C 2.191406 0.125 1.585938 -0.0390625 1.140625 -0.375 C 0.691406 -0.707031 0.4375 -1.195312 0.375 -1.84375 L 1.640625 -1.84375 C 1.710938 -1.507812 1.863281 -1.25 2.09375 -1.0625 C 2.332031 -0.882812 2.613281 -0.796875 2.9375 -0.796875 C 3.21875 -0.796875 3.457031 -0.867188 3.65625 -1.015625 C 3.851562 -1.160156 3.953125 -1.347656 3.953125 -1.578125 C 3.953125 -1.847656 3.859375 -2.0625 3.671875 -2.21875 C 3.484375 -2.382812 3.160156 -2.519531 2.703125 -2.625 C 2.015625 -2.789062 1.5 -3.015625 1.15625 -3.296875 C 0.8125 -3.578125 0.640625 -3.984375 0.640625 -4.515625 C 0.640625 -5.066406 0.851562 -5.507812 1.28125 -5.84375 C 1.71875 -6.175781 2.242188 -6.34375 2.859375 -6.34375 Z M 2.859375 -6.34375 "/></g></g><g style="fill:#8c52ff;fill-opacity:1;"><g transform="translate(49.745647, 9.962626)"><path style="stroke:none" d=""/></g></g><g style="fill:#8c52ff;fill-opacity:1;"><g transform="translate(51.492179, 9.962626)"><path style="stroke:none" d="M 5.65625 -5.234375 L 3.5625 -5.234375 L 3.5625 0 L 2.3125 0 L 2.3125 -5.234375 L 0.203125 -5.234375 L 0.203125 -6.203125 L 5.65625 -6.203125 Z M 5.65625 -5.234375 "/></g></g><g style="fill:#8c52ff;fill-opacity:1;"><g transform="translate(57.100887, 9.962626)"><path style="stroke:none" d="M 5.28125 -0.984375 L 5.28125 0 L 0.796875 0 L 0.796875 -6.203125 L 5.1875 -6.203125 L 5.1875 -5.234375 L 2.046875 -5.234375 L 2.046875 -3.59375 L 4.96875 -3.59375 L 4.96875 -2.625 L 2.046875 -2.625 L 2.046875 -0.984375 Z M 5.28125 -0.984375 "/></g></g><g style="fill:#8c52ff;fill-opacity:1;"><g transform="translate(62.646577, 9.962626)"><path style="stroke:none" d="M 3.46875 -6.34375 C 4.28125 -6.34375 4.910156 -6.144531 5.359375 -5.75 C 5.816406 -5.351562 6.078125 -4.832031 6.140625 -4.1875 L 6.15625 -4.109375 L 4.90625 -4.109375 L 4.890625 -4.1875 C 4.734375 -5 4.253906 -5.40625 3.453125 -5.40625 C 2.941406 -5.40625 2.53125 -5.203125 2.21875 -4.796875 C 1.914062 -4.390625 1.765625 -3.835938 1.765625 -3.140625 C 1.765625 -2.390625 1.914062 -1.8125 2.21875 -1.40625 C 2.53125 -1 2.929688 -0.796875 3.421875 -0.796875 C 3.816406 -0.796875 4.132812 -0.90625 4.375 -1.125 C 4.625 -1.351562 4.789062 -1.664062 4.875 -2.0625 L 4.890625 -2.15625 L 6.125 -2.15625 L 6.109375 -2.0625 C 6.046875 -1.382812 5.769531 -0.847656 5.28125 -0.453125 C 4.789062 -0.0664062 4.15625 0.125 3.375 0.125 C 2.5 0.125 1.789062 -0.160156 1.25 -0.734375 C 0.71875 -1.316406 0.453125 -2.09375 0.453125 -3.0625 C 0.453125 -4.0625 0.734375 -4.859375 1.296875 -5.453125 C 1.867188 -6.046875 2.59375 -6.34375 3.46875 -6.34375 Z M 3.46875 -6.34375 "/></g></g><g style="fill:#8c52ff;fill-opacity:1;"><g transform="translate(69.110539, 9.962626)"><path style="stroke:none" d="M 6.25 0 L 4.546875 0 L 2 -4.71875 C 2.03125 -4.15625 2.046875 -3.519531 2.046875 -2.8125 L 2.046875 0 L 0.796875 0 L 0.796875 -6.203125 L 2.453125 -6.203125 L 5.0625 -1.40625 C 5.03125 -1.957031 5.015625 -2.609375 5.015625 -3.359375 L 5.015625 -6.203125 L 6.25 -6.203125 Z M 6.25 0 "/></g></g><g style="fill:#8c52ff;fill-opacity:1;"><g transform="translate(75.952623, 9.962626)"><path style="stroke:none" d="M 3.53125 -6.34375 C 4.476562 -6.34375 5.222656 -6.046875 5.765625 -5.453125 C 6.316406 -4.867188 6.59375 -4.085938 6.59375 -3.109375 C 6.59375 -2.128906 6.316406 -1.34375 5.765625 -0.75 C 5.222656 -0.164062 4.476562 0.125 3.53125 0.125 C 2.582031 0.125 1.832031 -0.164062 1.28125 -0.75 C 0.726562 -1.34375 0.453125 -2.128906 0.453125 -3.109375 C 0.453125 -4.085938 0.722656 -4.867188 1.265625 -5.453125 C 1.816406 -6.046875 2.570312 -6.34375 3.53125 -6.34375 Z M 2.21875 -1.40625 C 2.539062 -1 2.976562 -0.796875 3.53125 -0.796875 C 4.082031 -0.796875 4.515625 -1 4.828125 -1.40625 C 5.140625 -1.820312 5.296875 -2.390625 5.296875 -3.109375 C 5.296875 -3.828125 5.140625 -4.390625 4.828125 -4.796875 C 4.515625 -5.203125 4.082031 -5.40625 3.53125 -5.40625 C 2.96875 -5.40625 2.53125 -5.203125 2.21875 -4.796875 C 1.90625 -4.390625 1.75 -3.820312 1.75 -3.09375 C 1.75 -2.375 1.90625 -1.8125 2.21875 -1.40625 Z M 2.21875 -1.40625 "/></g></g><g style="fill:#8c52ff;fill-opacity:1;"><g transform="translate(82.839718, 9.962626)"><path style="stroke:none" d="M 5.28125 -1.03125 L 5.28125 0 L 0.796875 0 L 0.796875 -6.203125 L 2.046875 -6.203125 L 2.046875 -1.03125 Z M 5.28125 -1.03125 "/></g></g><g style="fill:#8c52ff;fill-opacity:1;"><g transform="translate(88.277367, 9.962626)"><path style="stroke:none" d="M 3.828125 -6.609375 L 3.125 -6.609375 L 3.796875 -7.625 L 4.90625 -7.625 Z M 3.53125 -6.34375 C 4.476562 -6.34375 5.222656 -6.046875 5.765625 -5.453125 C 6.316406 -4.867188 6.59375 -4.085938 6.59375 -3.109375 C 6.59375 -2.128906 6.316406 -1.34375 5.765625 -0.75 C 5.222656 -0.164062 4.476562 0.125 3.53125 0.125 C 2.582031 0.125 1.832031 -0.164062 1.28125 -0.75 C 0.726562 -1.34375 0.453125 -2.128906 0.453125 -3.109375 C 0.453125 -4.085938 0.722656 -4.867188 1.265625 -5.453125 C 1.816406 -6.046875 2.570312 -6.34375 3.53125 -6.34375 Z M 2.21875 -1.40625 C 2.539062 -1 2.976562 -0.796875 3.53125 -0.796875 C 4.082031 -0.796875 4.515625 -1 4.828125 -1.40625 C 5.140625 -1.820312 5.296875 -2.390625 5.296875 -3.109375 C 5.296875 -3.828125 5.140625 -4.390625 4.828125 -4.796875 C 4.515625 -5.203125 4.082031 -5.40625 3.53125 -5.40625 C 2.96875 -5.40625 2.53125 -5.203125 2.21875 -4.796875 C 1.90625 -4.390625 1.75 -3.820312 1.75 -3.09375 C 1.75 -2.375 1.90625 -1.8125 2.21875 -1.40625 Z M 2.21875 -1.40625 "/></g></g><g style="fill:#8c52ff;fill-opacity:1;"><g transform="translate(95.164462, 9.962626)"><path style="stroke:none" d="M 3.640625 -3.171875 L 6.140625 -3.171875 L 6.140625 0 L 5.140625 0 L 5.0625 -1.015625 L 4.78125 -0.375 C 4.445312 -0.0390625 3.945312 0.125 3.28125 0.125 C 2.414062 0.125 1.726562 -0.160156 1.21875 -0.734375 C 0.707031 -1.304688 0.453125 -2.082031 0.453125 -3.0625 C 0.453125 -4.0625 0.738281 -4.859375 1.3125 -5.453125 C 1.894531 -6.046875 2.628906 -6.34375 3.515625 -6.34375 C 4.328125 -6.34375 4.960938 -6.144531 5.421875 -5.75 C 5.878906 -5.351562 6.140625 -4.832031 6.203125 -4.1875 L 6.203125 -4.109375 L 4.96875 -4.109375 L 4.953125 -4.1875 C 4.785156 -5 4.300781 -5.40625 3.5 -5.40625 C 2.988281 -5.40625 2.570312 -5.203125 2.25 -4.796875 C 1.925781 -4.390625 1.765625 -3.835938 1.765625 -3.140625 C 1.765625 -2.390625 1.921875 -1.8125 2.234375 -1.40625 C 2.546875 -1 2.957031 -0.796875 3.46875 -0.796875 C 3.863281 -0.796875 4.195312 -0.914062 4.46875 -1.15625 C 4.738281 -1.40625 4.898438 -1.753906 4.953125 -2.203125 L 3.640625 -2.203125 Z M 3.640625 -3.171875 "/></g></g><g style="fill:#8c52ff;fill-opacity:1;"><g transform="translate(101.799473, 9.962626)"><path style="stroke:none" d="M 2.046875 0 L 0.796875 0 L 0.796875 -6.203125 L 2.046875 -6.203125 Z M 2.046875 0 "/></g></g><g style="fill:#8c52ff;fill-opacity:1;"><g transform="translate(104.428274, 9.962626)"><path style="stroke:none" d="M 3.46875 -6.34375 C 4.28125 -6.34375 4.910156 -6.144531 5.359375 -5.75 C 5.816406 -5.351562 6.078125 -4.832031 6.140625 -4.1875 L 6.15625 -4.109375 L 4.90625 -4.109375 L 4.890625 -4.1875 C 4.734375 -5 4.253906 -5.40625 3.453125 -5.40625 C 2.941406 -5.40625 2.53125 -5.203125 2.21875 -4.796875 C 1.914062 -4.390625 1.765625 -3.835938 1.765625 -3.140625 C 1.765625 -2.390625 1.914062 -1.8125 2.21875 -1.40625 C 2.53125 -1 2.929688 -0.796875 3.421875 -0.796875 C 3.816406 -0.796875 4.132812 -0.90625 4.375 -1.125 C 4.625 -1.351562 4.789062 -1.664062 4.875 -2.0625 L 4.890625 -2.15625 L 6.125 -2.15625 L 6.109375 -2.0625 C 6.046875 -1.382812 5.769531 -0.847656 5.28125 -0.453125 C 4.789062 -0.0664062 4.15625 0.125 3.375 0.125 C 2.5 0.125 1.789062 -0.160156 1.25 -0.734375 C 0.71875 -1.316406 0.453125 -2.09375 0.453125 -3.0625 C 0.453125 -4.0625 0.734375 -4.859375 1.296875 -5.453125 C 1.867188 -6.046875 2.59375 -6.34375 3.46875 -6.34375 Z M 3.46875 -6.34375 "/></g></g><g style="fill:#8c52ff;fill-opacity:1;"><g transform="translate(110.892236, 9.962626)"><path style="stroke:none" d="M 4.171875 -1.875 L 2.078125 -1.875 L 1.453125 0 L 0.140625 0 L 2.375 -6.203125 L 3.9375 -6.203125 L 6.125 0 L 4.78125 0 Z M 3.125 -5.140625 L 2.390625 -2.859375 L 3.859375 -2.859375 Z M 3.125 -5.140625 "/></g></g><g style="fill:#8c52ff;fill-opacity:1;"><g transform="translate(116.978087, 9.962626)"><path style="stroke:none" d="M 2.859375 -6.34375 C 3.566406 -6.34375 4.109375 -6.164062 4.484375 -5.8125 C 4.859375 -5.457031 5.082031 -4.984375 5.15625 -4.390625 L 3.890625 -4.390625 C 3.847656 -4.710938 3.738281 -4.960938 3.5625 -5.140625 C 3.382812 -5.316406 3.132812 -5.40625 2.8125 -5.40625 C 2.5625 -5.40625 2.351562 -5.34375 2.1875 -5.21875 C 2.019531 -5.09375 1.9375 -4.910156 1.9375 -4.671875 C 1.9375 -4.410156 2.035156 -4.203125 2.234375 -4.046875 C 2.429688 -3.898438 2.773438 -3.769531 3.265625 -3.65625 C 3.941406 -3.5 4.441406 -3.257812 4.765625 -2.9375 C 5.085938 -2.625 5.25 -2.210938 5.25 -1.703125 C 5.25 -1.140625 5.023438 -0.691406 4.578125 -0.359375 C 4.140625 -0.0351562 3.597656 0.125 2.953125 0.125 C 2.191406 0.125 1.585938 -0.0390625 1.140625 -0.375 C 0.691406 -0.707031 0.4375 -1.195312 0.375 -1.84375 L 1.640625 -1.84375 C 1.710938 -1.507812 1.863281 -1.25 2.09375 -1.0625 C 2.332031 -0.882812 2.613281 -0.796875 2.9375 -0.796875 C 3.21875 -0.796875 3.457031 -0.867188 3.65625 -1.015625 C 3.851562 -1.160156 3.953125 -1.347656 3.953125 -1.578125 C 3.953125 -1.847656 3.859375 -2.0625 3.671875 -2.21875 C 3.484375 -2.382812 3.160156 -2.519531 2.703125 -2.625 C 2.015625 -2.789062 1.5 -3.015625 1.15625 -3.296875 C 0.8125 -3.578125 0.640625 -3.984375 0.640625 -4.515625 C 0.640625 -5.066406 0.851562 -5.507812 1.28125 -5.84375 C 1.71875 -6.175781 2.242188 -6.34375 2.859375 -6.34375 Z M 2.859375 -6.34375 "/></g></g></g></g><g clip-rule="nonzero" clip-path="url(#8d2055f545)"><path style=" stroke:none;fill-rule:evenodd;fill:#8c52ff;fill-opacity:1;" d="M 44.554688 53.789062 C 45.984375 53.804688 47.148438 52.878906 48.078125 52.125 C 49.03125 51.351562 49.882812 50.339844 50.539062 49.332031 C 53.386719 44.964844 52.429688 37.332031 52.46875 30.3125 C 52.488281 26.859375 52.285156 23.375 52.800781 20.269531 C 53.6875 14.914062 57.855469 10.476562 63.441406 9.824219 C 66.878906 9.429688 69.574219 10.398438 71.886719 11.6875 C 74.148438 12.949219 76.140625 14.453125 78.273438 15.8125 C 80.863281 17.3125 83.097656 18.671875 85.519531 20.203125 C 87.867188 21.683594 90.191406 23.074219 91.839844 25.453125 C 93.503906 27.855469 94.035156 30.90625 94.035156 34.835938 C 94.035156 53.652344 94.070312 73.539062 94.167969 91.632812 C 94.207031 98.859375 89.898438 103.316406 83.859375 104.46875 C 80.1875 105.167969 76.949219 103.890625 74.613281 102.539062 C 72.011719 101.035156 69.671875 99.484375 67.429688 98.148438 C 65.058594 96.738281 62.765625 95.273438 60.25 93.757812 C 56.484375 91.496094 53.535156 89.003906 52.734375 83.917969 C 52.46875 82.242188 52.535156 80.398438 52.535156 78.328125 C 52.535156 74.605469 52.507812 70.765625 52.332031 66.957031 C 51.511719 66.832031 50.769531 67.371094 50.203125 67.753906 C 47.171875 69.8125 45.074219 72.828125 44.554688 77.398438 C 44.347656 79.199219 44.59375 81.214844 44.554688 83.382812 C 44.46875 87.511719 44.878906 91.589844 44.21875 94.890625 C 43.566406 98.152344 41.929688 100.582031 39.5 102.40625 C 37.214844 104.121094 33.621094 105.40625 29.921875 104.800781 C 28.113281 104.503906 26.730469 103.914062 25.398438 103.203125 C 24.085938 102.503906 22.976562 101.589844 21.675781 100.808594 C 19.148438 99.289062 16.527344 97.886719 13.960938 96.285156 C 8.957031 93.164062 3.105469 90.847656 2.519531 83.316406 C 2.367188 81.332031 2.5625 79.34375 2.519531 77.332031 C 2.242188 62.929688 2.390625 49.085938 2.386719 34.902344 C 2.386719 30.769531 2.496094 26.773438 2.320312 22.996094 C 2.132812 18.933594 3.4375 16.101562 5.378906 13.816406 C 7.269531 11.597656 10.09375 9.902344 13.492188 9.496094 C 16.371094 9.152344 19.378906 10.066406 21.207031 11.222656 C 26.109375 14.328125 30.839844 17.242188 35.707031 20.335938 C 36.667969 20.941406 37.703125 21.496094 38.632812 22.128906 C 42.726562 24.925781 44.351562 28.796875 44.351562 35.296875 C 44.351562 38.421875 44.351562 41.578125 44.351562 44.742188 C 44.355469 47.769531 44.207031 50.835938 44.554688 53.789062 Z M 39.632812 53.324219 C 37.625 52.046875 35.621094 50.753906 33.644531 49.53125 C 30.582031 47.390625 28.160156 44.699219 27.59375 40.152344 C 27.242188 37.328125 27.3125 33.773438 27.457031 30.511719 C 27.558594 28.308594 27.417969 25.371094 27.394531 23.128906 C 27.382812 22.261719 27.433594 20.992188 26.398438 21.398438 C 23.484375 22.539062 20.855469 25.519531 19.878906 28.847656 C 19.226562 31.0625 19.523438 33.757812 19.546875 36.363281 C 19.578125 39.777344 19.453125 43.269531 19.410156 46.738281 C 19.398438 48.035156 19.546875 49.332031 19.546875 50.664062 C 19.546875 57.554688 19.421875 64.261719 19.546875 71.011719 C 19.664062 77.453125 19.542969 84.246094 19.613281 90.898438 C 19.621094 91.707031 19.410156 92.675781 19.945312 93.359375 C 21.171875 93.355469 22.109375 92.460938 22.9375 91.761719 C 25.546875 89.554688 27.246094 86.523438 27.527344 82.121094 C 27.902344 76.207031 26.667969 68.191406 28.390625 63.5 C 29.648438 60.070312 32.171875 57.5 35.507812 56.183594 C 37.214844 55.507812 39.164062 55.308594 41.359375 54.785156 C 41.1875 53.9375 40.242188 53.710938 39.632812 53.324219 Z M 74.015625 90.234375 C 75.125 89.050781 76.109375 87.601562 76.609375 85.914062 C 77.472656 82.992188 77.140625 78.847656 77.140625 75.070312 C 77.140625 61.882812 77.078125 49.488281 77.074219 36.363281 C 77.074219 33.878906 76.9375 31.300781 77.007812 28.648438 C 77.03125 27.800781 77.007812 26.585938 77.007812 24.925781 C 77.007812 24.011719 77.296875 21.480469 76.542969 21.464844 C 75.78125 21.453125 74.234375 22.734375 73.683594 23.195312 C 71.523438 25.011719 69.761719 27.792969 69.425781 31.179688 C 69.089844 34.554688 69.425781 38.554688 69.425781 42.484375 C 69.425781 46.410156 69.675781 50.429688 69.425781 53.921875 C 69.007812 59.769531 65.382812 63.597656 60.714844 65.09375 C 59.195312 65.585938 57.5 65.574219 55.59375 65.960938 C 55.691406 66.816406 56.578125 66.882812 57.058594 67.355469 C 61.199219 70.144531 65.890625 72.039062 68.164062 76.667969 C 69.699219 79.796875 69.492188 84.339844 69.492188 88.90625 C 69.492188 90.308594 69.269531 91.808594 69.890625 92.960938 C 71.535156 92.667969 72.902344 91.421875 74.015625 90.234375 Z M 74.015625 90.234375 "/></g><g mask="url(#aeee6dd686)" transform="matrix(1,0,0,1,0,7)"><g clip-path="url(#c5da12746d)"><g clip-rule="nonzero" clip-path="url(#2e8ff2fa80)"><path style=" stroke:none;fill-rule:evenodd;fill:#ffffff;fill-opacity:1;" d="M 42.300781 44.957031 C 43.730469 44.976562 44.894531 44.050781 45.828125 43.296875 C 46.78125 42.519531 47.632812 41.507812 48.289062 40.5 C 51.140625 36.125 50.183594 28.484375 50.222656 21.457031 C 50.242188 18 50.039062 14.511719 50.554688 11.402344 C 51.445312 6.042969 55.617188 1.597656 61.207031 0.949219 C 64.648438 0.550781 67.347656 1.519531 69.664062 2.8125 C 71.925781 4.074219 73.921875 5.578125 76.054688 6.941406 C 78.652344 8.441406 80.886719 9.800781 83.3125 11.335938 C 85.660156 12.820312 87.988281 14.210938 89.640625 16.59375 C 91.304688 19 91.835938 22.054688 91.835938 25.984375 C 91.835938 44.824219 91.871094 64.734375 91.96875 82.847656 C 92.007812 90.082031 87.695312 94.546875 81.648438 95.695312 C 77.972656 96.398438 74.730469 95.121094 72.394531 93.765625 C 69.789062 92.261719 67.445312 90.707031 65.203125 89.371094 C 62.828125 87.960938 60.53125 86.492188 58.011719 84.976562 C 54.242188 82.710938 51.292969 80.21875 50.488281 75.125 C 50.222656 73.449219 50.289062 71.597656 50.289062 69.53125 C 50.289062 65.800781 50.261719 61.957031 50.085938 58.144531 C 49.265625 58.019531 48.519531 58.558594 47.957031 58.941406 C 44.921875 61 42.820312 64.023438 42.296875 68.597656 C 42.089844 70.398438 42.339844 72.417969 42.296875 74.589844 C 42.214844 78.722656 42.625 82.804688 41.964844 86.109375 C 41.3125 89.375 39.671875 91.804688 37.238281 93.632812 C 34.949219 95.351562 31.355469 96.636719 27.648438 96.027344 C 25.839844 95.734375 24.457031 95.140625 23.121094 94.433594 C 21.808594 93.730469 20.695312 92.816406 19.394531 92.035156 C 16.863281 90.515625 14.238281 89.109375 11.671875 87.507812 C 6.660156 84.382812 0.804688 82.0625 0.21875 74.523438 C 0.0625 72.535156 0.257812 70.542969 0.21875 68.53125 C -0.0625 54.109375 0.0859375 40.253906 0.0859375 26.050781 C 0.0859375 21.914062 0.195312 17.914062 0.0195312 14.132812 C -0.171875 10.066406 1.136719 7.230469 3.082031 4.941406 C 4.972656 2.71875 7.796875 1.023438 11.203125 0.617188 C 14.082031 0.273438 17.09375 1.1875 18.925781 2.34375 C 23.832031 5.457031 28.570312 8.375 33.441406 11.46875 C 34.402344 12.078125 35.441406 12.632812 36.371094 13.265625 C 40.46875 16.066406 42.09375 19.9375 42.097656 26.449219 C 42.097656 29.574219 42.097656 32.738281 42.097656 35.902344 C 42.097656 38.933594 41.953125 42.007812 42.300781 44.957031 Z M 37.371094 44.496094 C 35.363281 43.21875 33.355469 41.921875 31.378906 40.699219 C 28.3125 38.554688 25.886719 35.859375 25.320312 31.308594 C 24.96875 28.480469 25.035156 24.921875 25.183594 21.65625 C 25.285156 19.449219 25.140625 16.507812 25.117188 14.265625 C 25.109375 13.398438 25.160156 12.125 24.121094 12.53125 C 21.207031 13.671875 18.570312 16.65625 17.59375 19.988281 C 16.945312 22.210938 17.238281 24.90625 17.261719 27.515625 C 17.292969 30.929688 17.167969 34.429688 17.128906 37.902344 C 17.113281 39.199219 17.261719 40.5 17.261719 41.832031 C 17.261719 48.730469 17.136719 55.445312 17.261719 62.203125 C 17.382812 68.652344 17.257812 75.453125 17.328125 82.113281 C 17.335938 82.921875 17.125 83.890625 17.660156 84.578125 C 18.890625 84.574219 19.828125 83.679688 20.65625 82.976562 C 23.269531 80.769531 24.96875 77.730469 25.253906 73.324219 C 25.628906 67.40625 24.394531 59.378906 26.117188 54.683594 C 27.378906 51.25 29.902344 48.675781 33.242188 47.355469 C 34.949219 46.683594 36.902344 46.480469 39.101562 45.957031 C 38.929688 45.109375 37.980469 44.882812 37.371094 44.496094 Z M 71.792969 81.449219 C 72.902344 80.265625 73.890625 78.8125 74.390625 77.121094 C 75.253906 74.199219 74.921875 70.046875 74.921875 66.265625 C 74.921875 53.0625 74.859375 40.65625 74.859375 27.515625 C 74.855469 25.027344 74.71875 22.445312 74.789062 19.792969 C 74.8125 18.941406 74.789062 17.726562 74.789062 16.066406 C 74.789062 15.148438 75.078125 12.613281 74.324219 12.601562 C 73.5625 12.589844 72.011719 13.871094 71.460938 14.332031 C 69.300781 16.148438 67.539062 18.933594 67.199219 22.324219 C 66.863281 25.707031 67.199219 29.707031 67.199219 33.644531 C 67.199219 37.574219 67.453125 41.597656 67.199219 45.09375 C 66.78125 50.949219 63.152344 54.78125 58.476562 56.28125 C 56.957031 56.769531 55.257812 56.757812 53.351562 57.144531 C 53.449219 58 54.335938 58.066406 54.816406 58.542969 C 58.964844 61.335938 63.660156 63.234375 65.933594 67.867188 C 67.472656 71 67.265625 75.542969 67.265625 80.117188 C 67.265625 81.519531 67.042969 83.023438 67.664062 84.175781 C 69.3125 83.886719 70.679688 82.640625 71.792969 81.449219 Z M 71.792969 81.449219 "/></g></g><mask id="aeee6dd686"><g filter="url(#9adeda9c88)"><rect x="0" width="375" y="0" height="120" style="fill:#000000;fill-opacity:0.17;stroke:none;"/></g></mask></g><g clip-rule="nonzero" clip-path="url(#e71b38d6ab)"><path style=" stroke:none;fill-rule:evenodd;fill:#8c52ff;fill-opacity:1;" d="M 44.488281 53.722656 C 45.921875 53.738281 47.085938 52.816406 48.019531 52.058594 C 48.972656 51.285156 49.824219 50.269531 50.480469 49.265625 C 53.332031 44.890625 52.375 37.25 52.414062 30.222656 C 52.433594 26.765625 52.230469 23.273438 52.746094 20.167969 C 53.632812 14.808594 57.804688 10.363281 63.398438 9.710938 C 66.839844 9.3125 69.539062 10.285156 71.855469 11.578125 C 74.117188 12.835938 76.109375 14.34375 78.246094 15.703125 C 80.839844 17.207031 83.078125 18.566406 85.503906 20.101562 C 87.851562 21.585938 90.179688 22.972656 91.828125 25.359375 C 93.492188 27.761719 94.023438 30.816406 94.023438 34.75 C 94.023438 53.585938 94.058594 73.496094 94.160156 91.613281 C 94.199219 98.847656 89.886719 103.308594 83.839844 104.460938 C 80.164062 105.164062 76.921875 103.886719 74.582031 102.53125 C 71.976562 101.023438 69.636719 99.472656 67.390625 98.136719 C 65.019531 96.726562 62.722656 95.257812 60.203125 93.742188 C 56.433594 91.476562 53.480469 88.980469 52.679688 83.886719 C 52.414062 82.210938 52.476562 80.363281 52.476562 78.292969 C 52.476562 74.566406 52.453125 70.722656 52.277344 66.910156 C 51.457031 66.785156 50.710938 67.324219 50.144531 67.707031 C 47.113281 69.765625 45.011719 72.785156 44.488281 77.363281 C 44.28125 79.164062 44.53125 81.179688 44.488281 83.355469 C 44.40625 87.488281 44.816406 91.570312 44.15625 94.871094 C 43.5 98.140625 41.863281 100.570312 39.429688 102.398438 C 37.140625 104.117188 33.546875 105.402344 29.839844 104.792969 C 28.03125 104.5 26.644531 103.90625 25.3125 103.195312 C 24 102.496094 22.886719 101.578125 21.585938 100.796875 C 19.054688 99.277344 16.429688 97.871094 13.863281 96.269531 C 8.851562 93.144531 2.996094 90.824219 2.410156 83.285156 C 2.253906 81.300781 2.449219 79.308594 2.410156 77.292969 C 2.128906 62.875 2.277344 49.019531 2.273438 34.816406 C 2.273438 30.679688 2.382812 26.679688 2.207031 22.898438 C 2.019531 18.832031 3.328125 15.996094 5.269531 13.707031 C 7.164062 11.484375 9.988281 9.789062 13.394531 9.378906 C 16.273438 9.035156 19.285156 9.949219 21.117188 11.109375 C 26.023438 14.21875 30.757812 17.136719 35.632812 20.234375 C 36.59375 20.839844 37.632812 21.394531 38.558594 22.03125 C 42.660156 24.828125 44.285156 28.703125 44.289062 35.210938 C 44.289062 38.339844 44.289062 41.5 44.289062 44.667969 C 44.289062 47.699219 44.144531 50.769531 44.488281 53.722656 Z M 39.5625 53.257812 C 37.550781 51.980469 35.546875 50.6875 33.566406 49.460938 C 30.503906 47.320312 28.078125 44.625 27.507812 40.074219 C 27.15625 37.246094 27.226562 33.6875 27.375 30.417969 C 27.476562 28.214844 27.332031 25.273438 27.308594 23.027344 C 27.300781 22.160156 27.347656 20.890625 26.3125 21.296875 C 23.394531 22.4375 20.761719 25.421875 19.785156 28.753906 C 19.132812 30.972656 19.429688 33.667969 19.453125 36.28125 C 19.484375 39.695312 19.359375 43.195312 19.316406 46.664062 C 19.304688 47.960938 19.453125 49.261719 19.453125 50.59375 C 19.453125 57.496094 19.328125 64.207031 19.453125 70.96875 C 19.570312 77.414062 19.449219 84.21875 19.519531 90.878906 C 19.527344 91.6875 19.316406 92.65625 19.851562 93.339844 C 21.078125 93.339844 22.019531 92.441406 22.847656 91.742188 C 25.460938 89.535156 27.160156 86.496094 27.441406 82.089844 C 27.820312 76.171875 26.582031 68.144531 28.308594 63.445312 C 29.566406 60.015625 32.09375 57.441406 35.433594 56.121094 C 37.140625 55.445312 39.09375 55.246094 41.289062 54.722656 C 41.121094 53.875 40.171875 53.648438 39.5625 53.257812 Z M 73.984375 90.214844 C 75.09375 89.027344 76.078125 87.574219 76.582031 85.886719 C 77.445312 82.964844 77.113281 78.8125 77.113281 75.03125 C 77.113281 61.828125 77.050781 49.417969 77.046875 36.28125 C 77.046875 33.792969 76.910156 31.210938 76.980469 28.558594 C 77.003906 27.707031 76.980469 26.492188 76.980469 24.828125 C 76.980469 23.914062 77.269531 21.378906 76.515625 21.363281 C 75.75 21.355469 74.203125 22.632812 73.652344 23.097656 C 71.488281 24.914062 69.726562 27.699219 69.390625 31.089844 C 69.054688 34.46875 69.390625 38.472656 69.390625 42.40625 C 69.390625 46.339844 69.640625 50.359375 69.390625 53.859375 C 68.972656 59.714844 65.339844 63.542969 60.667969 65.042969 C 59.144531 65.535156 57.449219 65.523438 55.539062 65.910156 C 55.640625 66.765625 56.527344 66.832031 57.007812 67.308594 C 61.152344 70.097656 65.847656 71.996094 68.125 76.628906 C 69.664062 79.761719 69.457031 84.308594 69.457031 88.882812 C 69.457031 90.285156 69.234375 91.789062 69.855469 92.941406 C 71.5 92.648438 72.867188 91.402344 73.984375 90.214844 Z M 73.984375 90.214844 "/></g></g></svg>