<svg xmlns="http://www.w3.org/2000/svg" xmlns:xlink="http://www.w3.org/1999/xlink" width="500" zoomAndPan="magnify" viewBox="0 0 375 120" height="150" preserveAspectRatio="xMidYMid meet" version="1.2"><defs><clipPath id="9249e9ce87"><rect x="0" width="271" y="0" height="54"/></clipPath><clipPath id="476ff514b4"><rect x="0" width="124" y="0" height="13"/></clipPath><clipPath id="c53e7c8e11"><path d="M 2.304688 2 L 93.804688 2 L 93.804688 97.882812 L 2.304688 97.882812 Z M 2.304688 2 "/></clipPath><filter x="0%" y="0%" width="100%" filterUnits="objectBoundingBox" id="726ede499e" height="100%"><feColorMatrix values="0 0 0 0 1 0 0 0 0 1 0 0 0 0 1 0 0 0 1 0" type="matrix" in="SourceGraphic"/></filter><clipPath id="e452180c0c"><path d="M 0 0 L 92.25 0 L 92.25 96 L 0 96 Z M 0 0 "/></clipPath><clipPath id="7030711a28"><rect x="0" width="93" y="0" height="97"/></clipPath><clipPath id="79804e8c19"><path d="M 2.191406 2 L 94.441406 2 L 94.441406 97.765625 L 2.191406 97.765625 Z M 2.191406 2 "/></clipPath></defs><g id="da67bdcbd9"><g transform="matrix(1,0,0,1,104,26)"><g clip-path="url(#9249e9ce87)"><g style="fill:#000000;fill-opacity:1;"><g transform="translate(0.7293, 41.388588)"><path style="stroke:none" d="M 11.421875 0 L 4.5 0 L 4.5 -37.796875 L 11.421875 -37.796875 L 11.421875 -22.125 L 30.484375 -22.125 L 30.484375 -37.796875 L 37.4375 -37.796875 L 37.4375 0 L 30.484375 0 L 30.484375 -15.953125 L 11.421875 -15.953125 Z M 11.421875 0 "/></g><g transform="translate(42.674988, 41.388588)"><path style="stroke:none" d="M 15.375 0.859375 C 13.445312 0.859375 11.660156 0.472656 10.015625 -0.296875 C 8.378906 -1.078125 6.953125 -2.160156 5.734375 -3.546875 C 4.523438 -4.941406 3.585938 -6.554688 2.921875 -8.390625 C 2.253906 -10.222656 1.921875 -12.1875 1.921875 -14.28125 C 1.921875 -16.375 2.257812 -18.332031 2.9375 -20.15625 C 3.613281 -21.988281 4.554688 -23.597656 5.765625 -24.984375 C 6.984375 -26.378906 8.40625 -27.46875 10.03125 -28.25 C 11.664062 -29.039062 13.4375 -29.4375 15.34375 -29.4375 C 17.675781 -29.4375 19.75 -28.929688 21.5625 -27.921875 C 23.382812 -26.910156 24.75 -25.515625 25.65625 -23.734375 L 25.65625 -28.578125 L 32.046875 -28.578125 L 32.046875 0 L 25.65625 0 L 25.65625 -4.8125 C 24.726562 -3.03125 23.359375 -1.640625 21.546875 -0.640625 C 19.742188 0.359375 17.6875 0.859375 15.375 0.859375 Z M 16.984375 -5.359375 C 18.148438 -5.359375 19.242188 -5.582031 20.265625 -6.03125 C 21.285156 -6.488281 22.175781 -7.117188 22.9375 -7.921875 C 23.707031 -8.734375 24.304688 -9.679688 24.734375 -10.765625 C 25.160156 -11.847656 25.375 -13.019531 25.375 -14.28125 C 25.375 -15.519531 25.15625 -16.679688 24.71875 -17.765625 C 24.28125 -18.859375 23.679688 -19.8125 22.921875 -20.625 C 22.171875 -21.4375 21.285156 -22.066406 20.265625 -22.515625 C 19.242188 -22.972656 18.148438 -23.203125 16.984375 -23.203125 C 15.441406 -23.203125 14.035156 -22.832031 12.765625 -22.09375 C 11.503906 -21.351562 10.492188 -20.316406 9.734375 -18.984375 C 8.972656 -17.648438 8.59375 -16.082031 8.59375 -14.28125 C 8.59375 -12.425781 8.972656 -10.832031 9.734375 -9.5 C 10.503906 -8.164062 11.53125 -7.140625 12.8125 -6.421875 C 14.09375 -5.710938 15.484375 -5.359375 16.984375 -5.359375 Z M 16.984375 -5.359375 "/></g><g transform="translate(78.672117, 41.388588)"><path style="stroke:none" d="M 10.671875 0 L 3.953125 0 L 3.953125 -28.578125 L 10.390625 -28.578125 L 10.390625 -23.40625 C 11.054688 -24.976562 12.035156 -26.234375 13.328125 -27.171875 C 14.628906 -28.109375 16.207031 -28.578125 18.0625 -28.578125 L 21.125 -28.578125 L 21.125 -22.796875 L 18.421875 -22.796875 C 16.890625 -22.796875 15.539062 -22.421875 14.375 -21.671875 C 13.207031 -20.929688 12.296875 -19.859375 11.640625 -18.453125 C 10.992188 -17.046875 10.671875 -15.320312 10.671875 -13.28125 Z M 10.671875 0 "/></g><g transform="translate(100.659552, 41.388588)"><path style="stroke:none" d="M 16.78125 0.859375 C 14.875 0.859375 13.101562 0.59375 11.46875 0.0625 C 9.84375 -0.457031 8.414062 -1.28125 7.1875 -2.40625 C 5.96875 -3.539062 5.019531 -5.003906 4.34375 -6.796875 C 3.664062 -8.597656 3.328125 -10.769531 3.328125 -13.3125 L 3.328125 -28.578125 L 10 -28.578125 L 10 -13.515625 C 10 -10.878906 10.5625 -8.863281 11.6875 -7.46875 C 12.820312 -6.082031 14.515625 -5.390625 16.765625 -5.390625 C 19.023438 -5.390625 20.707031 -6.085938 21.8125 -7.484375 C 22.925781 -8.890625 23.484375 -10.898438 23.484375 -13.515625 L 23.484375 -28.578125 L 30.1875 -28.578125 L 30.1875 -13.3125 C 30.1875 -10.769531 29.847656 -8.597656 29.171875 -6.796875 C 28.492188 -5.003906 27.539062 -3.539062 26.3125 -2.40625 C 25.09375 -1.28125 23.671875 -0.457031 22.046875 0.0625 C 20.429688 0.59375 18.675781 0.859375 16.78125 0.859375 Z M 16.78125 0.859375 "/></g><g transform="translate(134.182746, 41.388588)"><path style="stroke:none" d="M 16.671875 0.859375 C 14.546875 0.859375 12.582031 0.46875 10.78125 -0.3125 C 8.988281 -1.101562 7.425781 -2.191406 6.09375 -3.578125 C 4.769531 -4.972656 3.742188 -6.585938 3.015625 -8.421875 C 2.285156 -10.253906 1.921875 -12.207031 1.921875 -14.28125 C 1.921875 -16.363281 2.285156 -18.316406 3.015625 -20.140625 C 3.742188 -21.960938 4.769531 -23.570312 6.09375 -24.96875 C 7.425781 -26.375 8.988281 -27.46875 10.78125 -28.25 C 12.582031 -29.039062 14.546875 -29.4375 16.671875 -29.4375 C 19.140625 -29.4375 21.34375 -28.957031 23.28125 -28 C 25.21875 -27.050781 26.835938 -25.75 28.140625 -24.09375 C 29.441406 -22.445312 30.363281 -20.578125 30.90625 -18.484375 L 24.046875 -18.484375 C 23.410156 -20.078125 22.4375 -21.257812 21.125 -22.03125 C 19.8125 -22.800781 18.335938 -23.1875 16.703125 -23.1875 C 15.660156 -23.1875 14.65625 -22.984375 13.6875 -22.578125 C 12.726562 -22.179688 11.863281 -21.601562 11.09375 -20.84375 C 10.332031 -20.082031 9.722656 -19.148438 9.265625 -18.046875 C 8.816406 -16.941406 8.59375 -15.6875 8.59375 -14.28125 C 8.59375 -12.875 8.816406 -11.617188 9.265625 -10.515625 C 9.722656 -9.410156 10.332031 -8.472656 11.09375 -7.703125 C 11.863281 -6.941406 12.734375 -6.359375 13.703125 -5.953125 C 14.679688 -5.554688 15.679688 -5.359375 16.703125 -5.359375 C 18.335938 -5.359375 19.8125 -5.757812 21.125 -6.5625 C 22.4375 -7.375 23.410156 -8.671875 24.046875 -10.453125 L 30.875 -10.453125 C 30.394531 -8.242188 29.492188 -6.285156 28.171875 -4.578125 C 26.859375 -2.878906 25.222656 -1.546875 23.265625 -0.578125 C 21.316406 0.378906 19.117188 0.859375 16.671875 0.859375 Z M 16.671875 0.859375 "/></g><g transform="translate(166.566263, 41.388588)"><path style="stroke:none" d="M 16.921875 0.859375 C 14.753906 0.859375 12.753906 0.472656 10.921875 -0.296875 C 9.085938 -1.078125 7.5 -2.160156 6.15625 -3.546875 C 4.8125 -4.941406 3.769531 -6.554688 3.03125 -8.390625 C 2.289062 -10.222656 1.921875 -12.1875 1.921875 -14.28125 C 1.921875 -16.375 2.289062 -18.332031 3.03125 -20.15625 C 3.769531 -21.988281 4.8125 -23.597656 6.15625 -24.984375 C 7.5 -26.378906 9.085938 -27.46875 10.921875 -28.25 C 12.753906 -29.039062 14.765625 -29.4375 16.953125 -29.4375 C 19.160156 -29.4375 21.179688 -29.039062 23.015625 -28.25 C 24.847656 -27.46875 26.441406 -26.378906 27.796875 -24.984375 C 29.148438 -23.597656 30.195312 -21.988281 30.9375 -20.15625 C 31.675781 -18.332031 32.046875 -16.375 32.046875 -14.28125 C 32.046875 -12.175781 31.675781 -10.207031 30.9375 -8.375 C 30.195312 -6.550781 29.148438 -4.941406 27.796875 -3.546875 C 26.441406 -2.160156 24.84375 -1.078125 23 -0.296875 C 21.15625 0.472656 19.128906 0.859375 16.921875 0.859375 Z M 16.984375 -5.390625 C 18.597656 -5.390625 20.035156 -5.773438 21.296875 -6.546875 C 22.554688 -7.316406 23.550781 -8.367188 24.28125 -9.703125 C 25.007812 -11.035156 25.375 -12.5625 25.375 -14.28125 C 25.375 -16.007812 25.007812 -17.546875 24.28125 -18.890625 C 23.550781 -20.234375 22.554688 -21.285156 21.296875 -22.046875 C 20.035156 -22.816406 18.597656 -23.203125 16.984375 -23.203125 C 15.390625 -23.203125 13.957031 -22.816406 12.6875 -22.046875 C 11.414062 -21.285156 10.414062 -20.234375 9.6875 -18.890625 C 8.957031 -17.546875 8.59375 -16.007812 8.59375 -14.28125 C 8.59375 -12.5625 8.957031 -11.035156 9.6875 -9.703125 C 10.414062 -8.367188 11.414062 -7.316406 12.6875 -6.546875 C 13.957031 -5.773438 15.390625 -5.390625 16.984375 -5.390625 Z M 16.984375 -5.390625 "/></g><g transform="translate(200.53421, 41.388588)"><path style="stroke:none" d="M 15.734375 0.859375 C 13.710938 0.859375 11.851562 0.472656 10.15625 -0.296875 C 8.457031 -1.078125 7 -2.160156 5.78125 -3.546875 C 4.5625 -4.941406 3.613281 -6.554688 2.9375 -8.390625 C 2.257812 -10.222656 1.921875 -12.1875 1.921875 -14.28125 C 1.921875 -16.375 2.25 -18.332031 2.90625 -20.15625 C 3.5625 -21.988281 4.503906 -23.597656 5.734375 -24.984375 C 6.972656 -26.378906 8.441406 -27.46875 10.140625 -28.25 C 11.847656 -29.039062 13.738281 -29.4375 15.8125 -29.4375 C 17.375 -29.4375 18.785156 -29.160156 20.046875 -28.609375 C 21.316406 -28.066406 22.410156 -27.375 23.328125 -26.53125 C 24.242188 -25.6875 24.953125 -24.8125 25.453125 -23.90625 L 25.3125 -26.875 L 25.3125 -39.140625 L 32.015625 -39.140625 L 32.015625 0 L 25.625 0 L 25.625 -4.8125 C 25.070312 -3.8125 24.320312 -2.878906 23.375 -2.015625 C 22.425781 -1.148438 21.3125 -0.457031 20.03125 0.0625 C 18.757812 0.59375 17.328125 0.859375 15.734375 0.859375 Z M 16.953125 -5.34375 C 18.117188 -5.34375 19.210938 -5.566406 20.234375 -6.015625 C 21.253906 -6.472656 22.144531 -7.109375 22.90625 -7.921875 C 23.675781 -8.734375 24.28125 -9.679688 24.71875 -10.765625 C 25.15625 -11.847656 25.375 -13.019531 25.375 -14.28125 C 25.375 -15.539062 25.160156 -16.707031 24.734375 -17.78125 C 24.304688 -18.863281 23.707031 -19.8125 22.9375 -20.625 C 22.175781 -21.4375 21.285156 -22.066406 20.265625 -22.515625 C 19.242188 -22.972656 18.140625 -23.203125 16.953125 -23.203125 C 15.378906 -23.203125 13.953125 -22.816406 12.671875 -22.046875 C 11.390625 -21.285156 10.378906 -20.238281 9.640625 -18.90625 C 8.898438 -17.570312 8.53125 -16.03125 8.53125 -14.28125 C 8.53125 -12.59375 8.890625 -11.070312 9.609375 -9.71875 C 10.335938 -8.375 11.335938 -7.304688 12.609375 -6.515625 C 13.878906 -5.734375 15.328125 -5.34375 16.953125 -5.34375 Z M 16.953125 -5.34375 "/></g><g transform="translate(236.475744, 41.388588)"><path style="stroke:none" d="M 31.125 -14.78125 C 31.125 -14.4375 31.113281 -14.101562 31.09375 -13.78125 C 31.082031 -13.46875 31.046875 -13.039062 30.984375 -12.5 L 8.671875 -12.5 C 8.910156 -10.945312 9.40625 -9.625 10.15625 -8.53125 C 10.90625 -7.4375 11.835938 -6.597656 12.953125 -6.015625 C 14.066406 -5.429688 15.28125 -5.140625 16.59375 -5.140625 C 18.300781 -5.140625 19.679688 -5.476562 20.734375 -6.15625 C 21.785156 -6.832031 22.554688 -7.773438 23.046875 -8.984375 L 30.375 -8.984375 C 30.019531 -7.703125 29.441406 -6.46875 28.640625 -5.28125 C 27.835938 -4.09375 26.851562 -3.039062 25.6875 -2.125 C 24.519531 -1.207031 23.179688 -0.484375 21.671875 0.046875 C 20.160156 0.585938 18.515625 0.859375 16.734375 0.859375 C 14.585938 0.859375 12.609375 0.46875 10.796875 -0.3125 C 8.992188 -1.101562 7.425781 -2.191406 6.09375 -3.578125 C 4.769531 -4.972656 3.742188 -6.585938 3.015625 -8.421875 C 2.285156 -10.253906 1.921875 -12.207031 1.921875 -14.28125 C 1.921875 -16.375 2.285156 -18.332031 3.015625 -20.15625 C 3.742188 -21.988281 4.769531 -23.597656 6.09375 -24.984375 C 7.425781 -26.378906 8.992188 -27.46875 10.796875 -28.25 C 12.609375 -29.039062 14.585938 -29.4375 16.734375 -29.4375 C 18.878906 -29.4375 20.835938 -29.046875 22.609375 -28.265625 C 24.378906 -27.484375 25.898438 -26.410156 27.171875 -25.046875 C 28.441406 -23.691406 29.414062 -22.132812 30.09375 -20.375 C 30.78125 -18.613281 31.125 -16.75 31.125 -14.78125 Z M 8.953125 -17.703125 L 24.265625 -17.703125 C 24.171875 -18.773438 23.769531 -19.75 23.0625 -20.625 C 22.363281 -21.507812 21.457031 -22.21875 20.34375 -22.75 C 19.226562 -23.289062 18.015625 -23.5625 16.703125 -23.5625 C 15.578125 -23.5625 14.492188 -23.351562 13.453125 -22.9375 C 12.410156 -22.519531 11.492188 -21.878906 10.703125 -21.015625 C 9.921875 -20.160156 9.335938 -19.054688 8.953125 -17.703125 Z M 8.953125 -17.703125 "/></g></g></g></g><g transform="matrix(1,0,0,1,178,74)"><g clip-path="url(#476ff514b4)"><g style="fill:#8c52ff;fill-opacity:1;"><g transform="translate(1.256912, 9.705783)"><path style="stroke:none" d="M 2.859375 -6.34375 C 3.566406 -6.34375 4.109375 -6.164062 4.484375 -5.8125 C 4.859375 -5.457031 5.082031 -4.984375 5.15625 -4.390625 L 3.890625 -4.390625 C 3.847656 -4.710938 3.738281 -4.960938 3.5625 -5.140625 C 3.382812 -5.316406 3.132812 -5.40625 2.8125 -5.40625 C 2.5625 -5.40625 2.351562 -5.34375 2.1875 -5.21875 C 2.019531 -5.09375 1.9375 -4.910156 1.9375 -4.671875 C 1.9375 -4.410156 2.035156 -4.203125 2.234375 -4.046875 C 2.429688 -3.898438 2.773438 -3.769531 3.265625 -3.65625 C 3.941406 -3.5 4.441406 -3.257812 4.765625 -2.9375 C 5.085938 -2.625 5.25 -2.210938 5.25 -1.703125 C 5.25 -1.140625 5.023438 -0.691406 4.578125 -0.359375 C 4.140625 -0.0351562 3.597656 0.125 2.953125 0.125 C 2.191406 0.125 1.585938 -0.0390625 1.140625 -0.375 C 0.691406 -0.707031 0.4375 -1.195312 0.375 -1.84375 L 1.640625 -1.84375 C 1.710938 -1.507812 1.863281 -1.25 2.09375 -1.0625 C 2.332031 -0.882812 2.613281 -0.796875 2.9375 -0.796875 C 3.21875 -0.796875 3.457031 -0.867188 3.65625 -1.015625 C 3.851562 -1.160156 3.953125 -1.347656 3.953125 -1.578125 C 3.953125 -1.847656 3.859375 -2.0625 3.671875 -2.21875 C 3.484375 -2.382812 3.160156 -2.519531 2.703125 -2.625 C 2.015625 -2.789062 1.5 -3.015625 1.15625 -3.296875 C 0.8125 -3.578125 0.640625 -3.984375 0.640625 -4.515625 C 0.640625 -5.066406 0.851562 -5.507812 1.28125 -5.84375 C 1.71875 -6.175781 2.242188 -6.34375 2.859375 -6.34375 Z M 2.859375 -6.34375 "/></g></g><g style="fill:#8c52ff;fill-opacity:1;"><g transform="translate(6.730575, 9.705783)"><path style="stroke:none" d="M 3.53125 -6.34375 C 4.476562 -6.34375 5.222656 -6.046875 5.765625 -5.453125 C 6.316406 -4.867188 6.59375 -4.085938 6.59375 -3.109375 C 6.59375 -2.128906 6.316406 -1.34375 5.765625 -0.75 C 5.222656 -0.164062 4.476562 0.125 3.53125 0.125 C 2.582031 0.125 1.832031 -0.164062 1.28125 -0.75 C 0.726562 -1.34375 0.453125 -2.128906 0.453125 -3.109375 C 0.453125 -4.085938 0.722656 -4.867188 1.265625 -5.453125 C 1.816406 -6.046875 2.570312 -6.34375 3.53125 -6.34375 Z M 2.21875 -1.40625 C 2.539062 -1 2.976562 -0.796875 3.53125 -0.796875 C 4.082031 -0.796875 4.515625 -1 4.828125 -1.40625 C 5.140625 -1.820312 5.296875 -2.390625 5.296875 -3.109375 C 5.296875 -3.828125 5.140625 -4.390625 4.828125 -4.796875 C 4.515625 -5.203125 4.082031 -5.40625 3.53125 -5.40625 C 2.96875 -5.40625 2.53125 -5.203125 2.21875 -4.796875 C 1.90625 -4.390625 1.75 -3.820312 1.75 -3.09375 C 1.75 -2.375 1.90625 -1.8125 2.21875 -1.40625 Z M 2.21875 -1.40625 "/></g></g><g style="fill:#8c52ff;fill-opacity:1;"><g transform="translate(13.61767, 9.705783)"><path style="stroke:none" d="M 5.28125 -1.03125 L 5.28125 0 L 0.796875 0 L 0.796875 -6.203125 L 2.046875 -6.203125 L 2.046875 -1.03125 Z M 5.28125 -1.03125 "/></g></g><g style="fill:#8c52ff;fill-opacity:1;"><g transform="translate(19.055319, 9.705783)"><path style="stroke:none" d="M 5.84375 -6.203125 L 5.84375 -2.53125 C 5.84375 -2.238281 5.835938 -1.992188 5.828125 -1.796875 C 5.785156 -1.234375 5.554688 -0.769531 5.140625 -0.40625 C 4.722656 -0.0507812 4.101562 0.125 3.28125 0.125 C 2.457031 0.125 1.835938 -0.0507812 1.421875 -0.40625 C 1.003906 -0.769531 0.773438 -1.234375 0.734375 -1.796875 C 0.722656 -1.992188 0.71875 -2.238281 0.71875 -2.53125 L 0.71875 -6.203125 L 1.953125 -6.203125 L 1.953125 -2.40625 C 1.953125 -2.195312 1.957031 -2.046875 1.96875 -1.953125 C 2 -1.585938 2.125 -1.300781 2.34375 -1.09375 C 2.5625 -0.894531 2.875 -0.796875 3.28125 -0.796875 C 3.6875 -0.796875 4 -0.894531 4.21875 -1.09375 C 4.4375 -1.300781 4.5625 -1.585938 4.59375 -1.953125 C 4.601562 -2.046875 4.609375 -2.195312 4.609375 -2.40625 L 4.609375 -6.203125 Z M 5.84375 -6.203125 "/></g></g><g style="fill:#8c52ff;fill-opacity:1;"><g transform="translate(25.375237, 9.705783)"><path style="stroke:none" d="M 4.890625 -2.15625 L 6.125 -2.15625 L 6.109375 -2.0625 C 6.046875 -1.414062 5.785156 -0.894531 5.328125 -0.5 C 4.867188 -0.101562 4.269531 0.101562 3.53125 0.125 L 3.40625 0.375 C 3.9375 0.4375 4.203125 0.675781 4.203125 1.09375 C 4.203125 1.363281 4.078125 1.5625 3.828125 1.6875 C 3.585938 1.820312 3.265625 1.890625 2.859375 1.890625 C 2.671875 1.890625 2.515625 1.867188 2.390625 1.828125 L 2.390625 1.296875 C 2.546875 1.347656 2.707031 1.375 2.875 1.375 C 3.238281 1.375 3.421875 1.273438 3.421875 1.078125 C 3.421875 0.816406 3.132812 0.707031 2.5625 0.75 L 2.890625 0.09375 C 2.148438 -0.0078125 1.554688 -0.34375 1.109375 -0.90625 C 0.671875 -1.46875 0.453125 -2.1875 0.453125 -3.0625 C 0.453125 -4.0625 0.734375 -4.859375 1.296875 -5.453125 C 1.867188 -6.046875 2.59375 -6.34375 3.46875 -6.34375 C 4.28125 -6.34375 4.910156 -6.144531 5.359375 -5.75 C 5.816406 -5.351562 6.078125 -4.832031 6.140625 -4.1875 L 6.15625 -4.109375 L 4.90625 -4.109375 L 4.890625 -4.1875 C 4.734375 -5 4.253906 -5.40625 3.453125 -5.40625 C 2.941406 -5.40625 2.53125 -5.203125 2.21875 -4.796875 C 1.914062 -4.390625 1.765625 -3.835938 1.765625 -3.140625 C 1.765625 -2.390625 1.914062 -1.8125 2.21875 -1.40625 C 2.53125 -1 2.929688 -0.796875 3.421875 -0.796875 C 3.816406 -0.796875 4.132812 -0.90625 4.375 -1.125 C 4.625 -1.351562 4.789062 -1.664062 4.875 -2.0625 Z M 4.890625 -2.15625 "/></g></g><g style="fill:#8c52ff;fill-opacity:1;"><g transform="translate(31.839199, 9.705783)"><path style="stroke:none" d="M 3.046875 -6.953125 C 2.960938 -6.953125 2.921875 -6.875 2.921875 -6.71875 L 2.28125 -6.71875 C 2.28125 -7.050781 2.332031 -7.289062 2.4375 -7.4375 C 2.550781 -7.582031 2.71875 -7.65625 2.9375 -7.65625 C 3.144531 -7.65625 3.363281 -7.609375 3.59375 -7.515625 C 3.78125 -7.429688 3.914062 -7.390625 4 -7.390625 C 4.09375 -7.390625 4.140625 -7.46875 4.140625 -7.625 L 4.765625 -7.625 C 4.765625 -7.289062 4.710938 -7.046875 4.609375 -6.890625 C 4.503906 -6.742188 4.335938 -6.671875 4.109375 -6.671875 C 3.941406 -6.671875 3.722656 -6.722656 3.453125 -6.828125 C 3.253906 -6.910156 3.117188 -6.953125 3.046875 -6.953125 Z M 3.53125 -6.34375 C 4.476562 -6.34375 5.222656 -6.046875 5.765625 -5.453125 C 6.316406 -4.867188 6.59375 -4.085938 6.59375 -3.109375 C 6.59375 -2.128906 6.316406 -1.34375 5.765625 -0.75 C 5.222656 -0.164062 4.476562 0.125 3.53125 0.125 C 2.582031 0.125 1.832031 -0.164062 1.28125 -0.75 C 0.726562 -1.34375 0.453125 -2.128906 0.453125 -3.109375 C 0.453125 -4.085938 0.722656 -4.867188 1.265625 -5.453125 C 1.816406 -6.046875 2.570312 -6.34375 3.53125 -6.34375 Z M 2.21875 -1.40625 C 2.539062 -1 2.976562 -0.796875 3.53125 -0.796875 C 4.082031 -0.796875 4.515625 -1 4.828125 -1.40625 C 5.140625 -1.820312 5.296875 -2.390625 5.296875 -3.109375 C 5.296875 -3.828125 5.140625 -4.390625 4.828125 -4.796875 C 4.515625 -5.203125 4.082031 -5.40625 3.53125 -5.40625 C 2.96875 -5.40625 2.53125 -5.203125 2.21875 -4.796875 C 1.90625 -4.390625 1.75 -3.820312 1.75 -3.09375 C 1.75 -2.375 1.90625 -1.8125 2.21875 -1.40625 Z M 2.21875 -1.40625 "/></g></g><g style="fill:#8c52ff;fill-opacity:1;"><g transform="translate(38.726294, 9.705783)"><path style="stroke:none" d="M 5.28125 -0.984375 L 5.28125 0 L 0.796875 0 L 0.796875 -6.203125 L 5.1875 -6.203125 L 5.1875 -5.234375 L 2.046875 -5.234375 L 2.046875 -3.59375 L 4.96875 -3.59375 L 4.96875 -2.625 L 2.046875 -2.625 L 2.046875 -0.984375 Z M 5.28125 -0.984375 "/></g></g><g style="fill:#8c52ff;fill-opacity:1;"><g transform="translate(44.271984, 9.705783)"><path style="stroke:none" d="M 2.859375 -6.34375 C 3.566406 -6.34375 4.109375 -6.164062 4.484375 -5.8125 C 4.859375 -5.457031 5.082031 -4.984375 5.15625 -4.390625 L 3.890625 -4.390625 C 3.847656 -4.710938 3.738281 -4.960938 3.5625 -5.140625 C 3.382812 -5.316406 3.132812 -5.40625 2.8125 -5.40625 C 2.5625 -5.40625 2.351562 -5.34375 2.1875 -5.21875 C 2.019531 -5.09375 1.9375 -4.910156 1.9375 -4.671875 C 1.9375 -4.410156 2.035156 -4.203125 2.234375 -4.046875 C 2.429688 -3.898438 2.773438 -3.769531 3.265625 -3.65625 C 3.941406 -3.5 4.441406 -3.257812 4.765625 -2.9375 C 5.085938 -2.625 5.25 -2.210938 5.25 -1.703125 C 5.25 -1.140625 5.023438 -0.691406 4.578125 -0.359375 C 4.140625 -0.0351562 3.597656 0.125 2.953125 0.125 C 2.191406 0.125 1.585938 -0.0390625 1.140625 -0.375 C 0.691406 -0.707031 0.4375 -1.195312 0.375 -1.84375 L 1.640625 -1.84375 C 1.710938 -1.507812 1.863281 -1.25 2.09375 -1.0625 C 2.332031 -0.882812 2.613281 -0.796875 2.9375 -0.796875 C 3.21875 -0.796875 3.457031 -0.867188 3.65625 -1.015625 C 3.851562 -1.160156 3.953125 -1.347656 3.953125 -1.578125 C 3.953125 -1.847656 3.859375 -2.0625 3.671875 -2.21875 C 3.484375 -2.382812 3.160156 -2.519531 2.703125 -2.625 C 2.015625 -2.789062 1.5 -3.015625 1.15625 -3.296875 C 0.8125 -3.578125 0.640625 -3.984375 0.640625 -4.515625 C 0.640625 -5.066406 0.851562 -5.507812 1.28125 -5.84375 C 1.71875 -6.175781 2.242188 -6.34375 2.859375 -6.34375 Z M 2.859375 -6.34375 "/></g></g><g style="fill:#8c52ff;fill-opacity:1;"><g transform="translate(49.745647, 9.705783)"><path style="stroke:none" d=""/></g></g><g style="fill:#8c52ff;fill-opacity:1;"><g transform="translate(51.492179, 9.705783)"><path style="stroke:none" d="M 5.65625 -5.234375 L 3.5625 -5.234375 L 3.5625 0 L 2.3125 0 L 2.3125 -5.234375 L 0.203125 -5.234375 L 0.203125 -6.203125 L 5.65625 -6.203125 Z M 5.65625 -5.234375 "/></g></g><g style="fill:#8c52ff;fill-opacity:1;"><g transform="translate(57.100887, 9.705783)"><path style="stroke:none" d="M 5.28125 -0.984375 L 5.28125 0 L 0.796875 0 L 0.796875 -6.203125 L 5.1875 -6.203125 L 5.1875 -5.234375 L 2.046875 -5.234375 L 2.046875 -3.59375 L 4.96875 -3.59375 L 4.96875 -2.625 L 2.046875 -2.625 L 2.046875 -0.984375 Z M 5.28125 -0.984375 "/></g></g><g style="fill:#8c52ff;fill-opacity:1;"><g transform="translate(62.646577, 9.705783)"><path style="stroke:none" d="M 3.46875 -6.34375 C 4.28125 -6.34375 4.910156 -6.144531 5.359375 -5.75 C 5.816406 -5.351562 6.078125 -4.832031 6.140625 -4.1875 L 6.15625 -4.109375 L 4.90625 -4.109375 L 4.890625 -4.1875 C 4.734375 -5 4.253906 -5.40625 3.453125 -5.40625 C 2.941406 -5.40625 2.53125 -5.203125 2.21875 -4.796875 C 1.914062 -4.390625 1.765625 -3.835938 1.765625 -3.140625 C 1.765625 -2.390625 1.914062 -1.8125 2.21875 -1.40625 C 2.53125 -1 2.929688 -0.796875 3.421875 -0.796875 C 3.816406 -0.796875 4.132812 -0.90625 4.375 -1.125 C 4.625 -1.351562 4.789062 -1.664062 4.875 -2.0625 L 4.890625 -2.15625 L 6.125 -2.15625 L 6.109375 -2.0625 C 6.046875 -1.382812 5.769531 -0.847656 5.28125 -0.453125 C 4.789062 -0.0664062 4.15625 0.125 3.375 0.125 C 2.5 0.125 1.789062 -0.160156 1.25 -0.734375 C 0.71875 -1.316406 0.453125 -2.09375 0.453125 -3.0625 C 0.453125 -4.0625 0.734375 -4.859375 1.296875 -5.453125 C 1.867188 -6.046875 2.59375 -6.34375 3.46875 -6.34375 Z M 3.46875 -6.34375 "/></g></g><g style="fill:#8c52ff;fill-opacity:1;"><g transform="translate(69.110539, 9.705783)"><path style="stroke:none" d="M 6.25 0 L 4.546875 0 L 2 -4.71875 C 2.03125 -4.15625 2.046875 -3.519531 2.046875 -2.8125 L 2.046875 0 L 0.796875 0 L 0.796875 -6.203125 L 2.453125 -6.203125 L 5.0625 -1.40625 C 5.03125 -1.957031 5.015625 -2.609375 5.015625 -3.359375 L 5.015625 -6.203125 L 6.25 -6.203125 Z M 6.25 0 "/></g></g><g style="fill:#8c52ff;fill-opacity:1;"><g transform="translate(75.952623, 9.705783)"><path style="stroke:none" d="M 3.53125 -6.34375 C 4.476562 -6.34375 5.222656 -6.046875 5.765625 -5.453125 C 6.316406 -4.867188 6.59375 -4.085938 6.59375 -3.109375 C 6.59375 -2.128906 6.316406 -1.34375 5.765625 -0.75 C 5.222656 -0.164062 4.476562 0.125 3.53125 0.125 C 2.582031 0.125 1.832031 -0.164062 1.28125 -0.75 C 0.726562 -1.34375 0.453125 -2.128906 0.453125 -3.109375 C 0.453125 -4.085938 0.722656 -4.867188 1.265625 -5.453125 C 1.816406 -6.046875 2.570312 -6.34375 3.53125 -6.34375 Z M 2.21875 -1.40625 C 2.539062 -1 2.976562 -0.796875 3.53125 -0.796875 C 4.082031 -0.796875 4.515625 -1 4.828125 -1.40625 C 5.140625 -1.820312 5.296875 -2.390625 5.296875 -3.109375 C 5.296875 -3.828125 5.140625 -4.390625 4.828125 -4.796875 C 4.515625 -5.203125 4.082031 -5.40625 3.53125 -5.40625 C 2.96875 -5.40625 2.53125 -5.203125 2.21875 -4.796875 C 1.90625 -4.390625 1.75 -3.820312 1.75 -3.09375 C 1.75 -2.375 1.90625 -1.8125 2.21875 -1.40625 Z M 2.21875 -1.40625 "/></g></g><g style="fill:#8c52ff;fill-opacity:1;"><g transform="translate(82.839718, 9.705783)"><path style="stroke:none" d="M 5.28125 -1.03125 L 5.28125 0 L 0.796875 0 L 0.796875 -6.203125 L 2.046875 -6.203125 L 2.046875 -1.03125 Z M 5.28125 -1.03125 "/></g></g><g style="fill:#8c52ff;fill-opacity:1;"><g transform="translate(88.277367, 9.705783)"><path style="stroke:none" d="M 3.828125 -6.609375 L 3.125 -6.609375 L 3.796875 -7.625 L 4.90625 -7.625 Z M 3.53125 -6.34375 C 4.476562 -6.34375 5.222656 -6.046875 5.765625 -5.453125 C 6.316406 -4.867188 6.59375 -4.085938 6.59375 -3.109375 C 6.59375 -2.128906 6.316406 -1.34375 5.765625 -0.75 C 5.222656 -0.164062 4.476562 0.125 3.53125 0.125 C 2.582031 0.125 1.832031 -0.164062 1.28125 -0.75 C 0.726562 -1.34375 0.453125 -2.128906 0.453125 -3.109375 C 0.453125 -4.085938 0.722656 -4.867188 1.265625 -5.453125 C 1.816406 -6.046875 2.570312 -6.34375 3.53125 -6.34375 Z M 2.21875 -1.40625 C 2.539062 -1 2.976562 -0.796875 3.53125 -0.796875 C 4.082031 -0.796875 4.515625 -1 4.828125 -1.40625 C 5.140625 -1.820312 5.296875 -2.390625 5.296875 -3.109375 C 5.296875 -3.828125 5.140625 -4.390625 4.828125 -4.796875 C 4.515625 -5.203125 4.082031 -5.40625 3.53125 -5.40625 C 2.96875 -5.40625 2.53125 -5.203125 2.21875 -4.796875 C 1.90625 -4.390625 1.75 -3.820312 1.75 -3.09375 C 1.75 -2.375 1.90625 -1.8125 2.21875 -1.40625 Z M 2.21875 -1.40625 "/></g></g><g style="fill:#8c52ff;fill-opacity:1;"><g transform="translate(95.164462, 9.705783)"><path style="stroke:none" d="M 3.640625 -3.171875 L 6.140625 -3.171875 L 6.140625 0 L 5.140625 0 L 5.0625 -1.015625 L 4.78125 -0.375 C 4.445312 -0.0390625 3.945312 0.125 3.28125 0.125 C 2.414062 0.125 1.726562 -0.160156 1.21875 -0.734375 C 0.707031 -1.304688 0.453125 -2.082031 0.453125 -3.0625 C 0.453125 -4.0625 0.738281 -4.859375 1.3125 -5.453125 C 1.894531 -6.046875 2.628906 -6.34375 3.515625 -6.34375 C 4.328125 -6.34375 4.960938 -6.144531 5.421875 -5.75 C 5.878906 -5.351562 6.140625 -4.832031 6.203125 -4.1875 L 6.203125 -4.109375 L 4.96875 -4.109375 L 4.953125 -4.1875 C 4.785156 -5 4.300781 -5.40625 3.5 -5.40625 C 2.988281 -5.40625 2.570312 -5.203125 2.25 -4.796875 C 1.925781 -4.390625 1.765625 -3.835938 1.765625 -3.140625 C 1.765625 -2.390625 1.921875 -1.8125 2.234375 -1.40625 C 2.546875 -1 2.957031 -0.796875 3.46875 -0.796875 C 3.863281 -0.796875 4.195312 -0.914062 4.46875 -1.15625 C 4.738281 -1.40625 4.898438 -1.753906 4.953125 -2.203125 L 3.640625 -2.203125 Z M 3.640625 -3.171875 "/></g></g><g style="fill:#8c52ff;fill-opacity:1;"><g transform="translate(101.799473, 9.705783)"><path style="stroke:none" d="M 2.046875 0 L 0.796875 0 L 0.796875 -6.203125 L 2.046875 -6.203125 Z M 2.046875 0 "/></g></g><g style="fill:#8c52ff;fill-opacity:1;"><g transform="translate(104.428274, 9.705783)"><path style="stroke:none" d="M 3.46875 -6.34375 C 4.28125 -6.34375 4.910156 -6.144531 5.359375 -5.75 C 5.816406 -5.351562 6.078125 -4.832031 6.140625 -4.1875 L 6.15625 -4.109375 L 4.90625 -4.109375 L 4.890625 -4.1875 C 4.734375 -5 4.253906 -5.40625 3.453125 -5.40625 C 2.941406 -5.40625 2.53125 -5.203125 2.21875 -4.796875 C 1.914062 -4.390625 1.765625 -3.835938 1.765625 -3.140625 C 1.765625 -2.390625 1.914062 -1.8125 2.21875 -1.40625 C 2.53125 -1 2.929688 -0.796875 3.421875 -0.796875 C 3.816406 -0.796875 4.132812 -0.90625 4.375 -1.125 C 4.625 -1.351562 4.789062 -1.664062 4.875 -2.0625 L 4.890625 -2.15625 L 6.125 -2.15625 L 6.109375 -2.0625 C 6.046875 -1.382812 5.769531 -0.847656 5.28125 -0.453125 C 4.789062 -0.0664062 4.15625 0.125 3.375 0.125 C 2.5 0.125 1.789062 -0.160156 1.25 -0.734375 C 0.71875 -1.316406 0.453125 -2.09375 0.453125 -3.0625 C 0.453125 -4.0625 0.734375 -4.859375 1.296875 -5.453125 C 1.867188 -6.046875 2.59375 -6.34375 3.46875 -6.34375 Z M 3.46875 -6.34375 "/></g></g><g style="fill:#8c52ff;fill-opacity:1;"><g transform="translate(110.892236, 9.705783)"><path style="stroke:none" d="M 4.171875 -1.875 L 2.078125 -1.875 L 1.453125 0 L 0.140625 0 L 2.375 -6.203125 L 3.9375 -6.203125 L 6.125 0 L 4.78125 0 Z M 3.125 -5.140625 L 2.390625 -2.859375 L 3.859375 -2.859375 Z M 3.125 -5.140625 "/></g></g><g style="fill:#8c52ff;fill-opacity:1;"><g transform="translate(116.978087, 9.705783)"><path style="stroke:none" d="M 2.859375 -6.34375 C 3.566406 -6.34375 4.109375 -6.164062 4.484375 -5.8125 C 4.859375 -5.457031 5.082031 -4.984375 5.15625 -4.390625 L 3.890625 -4.390625 C 3.847656 -4.710938 3.738281 -4.960938 3.5625 -5.140625 C 3.382812 -5.316406 3.132812 -5.40625 2.8125 -5.40625 C 2.5625 -5.40625 2.351562 -5.34375 2.1875 -5.21875 C 2.019531 -5.09375 1.9375 -4.910156 1.9375 -4.671875 C 1.9375 -4.410156 2.035156 -4.203125 2.234375 -4.046875 C 2.429688 -3.898438 2.773438 -3.769531 3.265625 -3.65625 C 3.941406 -3.5 4.441406 -3.257812 4.765625 -2.9375 C 5.085938 -2.625 5.25 -2.210938 5.25 -1.703125 C 5.25 -1.140625 5.023438 -0.691406 4.578125 -0.359375 C 4.140625 -0.0351562 3.597656 0.125 2.953125 0.125 C 2.191406 0.125 1.585938 -0.0390625 1.140625 -0.375 C 0.691406 -0.707031 0.4375 -1.195312 0.375 -1.84375 L 1.640625 -1.84375 C 1.710938 -1.507812 1.863281 -1.25 2.09375 -1.0625 C 2.332031 -0.882812 2.613281 -0.796875 2.9375 -0.796875 C 3.21875 -0.796875 3.457031 -0.867188 3.65625 -1.015625 C 3.851562 -1.160156 3.953125 -1.347656 3.953125 -1.578125 C 3.953125 -1.847656 3.859375 -2.0625 3.671875 -2.21875 C 3.484375 -2.382812 3.160156 -2.519531 2.703125 -2.625 C 2.015625 -2.789062 1.5 -3.015625 1.15625 -3.296875 C 0.8125 -3.578125 0.640625 -3.984375 0.640625 -4.515625 C 0.640625 -5.066406 0.851562 -5.507812 1.28125 -5.84375 C 1.71875 -6.175781 2.242188 -6.34375 2.859375 -6.34375 Z M 2.859375 -6.34375 "/></g></g></g></g><g clip-rule="nonzero" clip-path="url(#c53e7c8e11)"><path style=" stroke:none;fill-rule:evenodd;fill:#8c52ff;fill-opacity:1;" d="M 44.554688 46.53125 C 45.984375 46.546875 47.148438 45.621094 48.078125 44.871094 C 49.03125 44.09375 49.882812 43.082031 50.539062 42.074219 C 53.386719 37.707031 52.429688 30.074219 52.46875 23.054688 C 52.488281 19.601562 52.285156 16.117188 52.800781 13.011719 C 53.6875 7.660156 57.855469 3.21875 63.441406 2.570312 C 66.878906 2.171875 69.574219 3.140625 71.886719 4.433594 C 74.148438 5.691406 76.140625 7.195312 78.273438 8.554688 C 80.863281 10.054688 83.097656 11.414062 85.519531 12.945312 C 87.867188 14.429688 90.191406 15.816406 91.839844 18.199219 C 93.503906 20.597656 94.035156 23.652344 94.035156 27.578125 C 94.035156 46.394531 94.070312 66.28125 94.167969 84.375 C 94.207031 91.601562 89.898438 96.058594 83.859375 97.210938 C 80.1875 97.910156 76.949219 96.632812 74.613281 95.28125 C 72.011719 93.777344 69.671875 92.226562 67.429688 90.894531 C 65.058594 89.480469 62.765625 88.015625 60.25 86.503906 C 56.484375 84.238281 53.535156 81.75 52.734375 76.660156 C 52.46875 74.984375 52.535156 73.140625 52.535156 71.074219 C 52.535156 67.347656 52.507812 63.507812 52.332031 59.699219 C 51.511719 59.578125 50.769531 60.113281 50.203125 60.5 C 47.171875 62.554688 45.074219 65.570312 44.554688 70.140625 C 44.347656 71.941406 44.59375 73.957031 44.554688 76.128906 C 44.46875 80.253906 44.878906 84.332031 44.21875 87.632812 C 43.566406 90.898438 41.929688 93.324219 39.5 95.148438 C 37.214844 96.863281 33.621094 98.148438 29.921875 97.542969 C 28.113281 97.25 26.730469 96.65625 25.398438 95.945312 C 24.085938 95.246094 22.976562 94.332031 21.675781 93.550781 C 19.148438 92.035156 16.527344 90.628906 13.960938 89.027344 C 8.957031 85.90625 3.105469 83.589844 2.519531 76.058594 C 2.367188 74.074219 2.5625 72.085938 2.519531 70.074219 C 2.242188 55.671875 2.390625 41.832031 2.386719 27.644531 C 2.386719 23.511719 2.496094 19.515625 2.320312 15.738281 C 2.132812 11.679688 3.4375 8.847656 5.378906 6.558594 C 7.269531 4.339844 10.09375 2.648438 13.492188 2.238281 C 16.371094 1.894531 19.378906 2.808594 21.207031 3.964844 C 26.109375 7.074219 30.839844 9.988281 35.707031 13.078125 C 36.667969 13.6875 37.703125 14.238281 38.632812 14.875 C 42.726562 17.667969 44.351562 21.539062 44.351562 28.039062 C 44.351562 31.164062 44.351562 34.324219 44.351562 37.484375 C 44.355469 40.511719 44.207031 43.582031 44.554688 46.53125 Z M 39.632812 46.066406 C 37.625 44.789062 35.621094 43.5 33.644531 42.273438 C 30.582031 40.132812 28.160156 37.441406 27.59375 32.898438 C 27.242188 30.074219 27.3125 26.515625 27.457031 23.253906 C 27.558594 21.050781 27.417969 18.113281 27.394531 15.871094 C 27.382812 15.003906 27.433594 13.734375 26.398438 14.140625 C 23.484375 15.28125 20.855469 18.261719 19.878906 21.589844 C 19.226562 23.808594 19.523438 26.5 19.546875 29.105469 C 19.578125 32.519531 19.453125 36.015625 19.410156 39.480469 C 19.398438 40.777344 19.546875 42.074219 19.546875 43.40625 C 19.546875 50.296875 19.421875 57.003906 19.546875 63.757812 C 19.664062 70.195312 19.542969 76.988281 19.613281 83.640625 C 19.621094 84.449219 19.410156 85.417969 19.945312 86.101562 C 21.171875 86.101562 22.109375 85.207031 22.9375 84.503906 C 25.546875 82.300781 27.246094 79.265625 27.527344 74.863281 C 27.902344 68.953125 26.667969 60.933594 28.390625 56.242188 C 29.648438 52.816406 32.171875 50.242188 35.507812 48.925781 C 37.214844 48.25 39.164062 48.050781 41.359375 47.527344 C 41.1875 46.683594 40.242188 46.453125 39.632812 46.066406 Z M 74.015625 82.976562 C 75.125 81.796875 76.109375 80.34375 76.609375 78.65625 C 77.472656 75.738281 77.140625 71.589844 77.140625 67.8125 C 77.140625 54.625 77.078125 42.230469 77.074219 29.105469 C 77.074219 26.621094 76.9375 24.042969 77.007812 21.394531 C 77.03125 20.542969 77.007812 19.328125 77.007812 17.667969 C 77.007812 16.753906 77.296875 14.222656 76.542969 14.210938 C 75.78125 14.199219 74.234375 15.476562 73.683594 15.941406 C 71.523438 17.753906 69.761719 20.535156 69.425781 23.921875 C 69.089844 27.296875 69.425781 31.296875 69.425781 35.226562 C 69.425781 39.15625 69.675781 43.171875 69.425781 46.667969 C 69.007812 52.515625 65.382812 56.339844 60.714844 57.839844 C 59.195312 58.328125 57.5 58.316406 55.59375 58.703125 C 55.691406 59.558594 56.578125 59.625 57.058594 60.097656 C 61.199219 62.886719 65.890625 64.785156 68.164062 69.410156 C 69.699219 72.539062 69.492188 77.082031 69.492188 81.648438 C 69.492188 83.050781 69.269531 84.550781 69.890625 85.703125 C 71.535156 85.410156 72.902344 84.167969 74.015625 82.976562 Z M 74.015625 82.976562 "/></g><g mask="url(#6226eebc19)"><g clip-path="url(#7030711a28)"><g clip-rule="nonzero" clip-path="url(#e452180c0c)"><path style=" stroke:none;fill-rule:evenodd;fill:#000000;fill-opacity:1;" d="M 42.429688 44.605469 C 43.863281 44.621094 45.03125 43.695312 45.96875 42.945312 C 46.925781 42.171875 47.78125 41.160156 48.4375 40.15625 C 51.296875 35.789062 50.335938 28.167969 50.375 21.152344 C 50.394531 17.703125 50.191406 14.222656 50.707031 11.121094 C 51.601562 5.773438 55.785156 1.339844 61.394531 0.6875 C 64.84375 0.292969 67.554688 1.261719 69.878906 2.550781 C 72.144531 3.808594 74.148438 5.3125 76.289062 6.667969 C 78.890625 8.167969 81.132812 9.523438 83.566406 11.054688 C 85.921875 12.535156 88.257812 13.921875 89.914062 16.300781 C 91.582031 18.699219 92.117188 21.75 92.117188 25.671875 C 92.117188 44.46875 92.152344 64.335938 92.25 82.410156 C 92.289062 89.628906 87.964844 94.082031 81.898438 95.230469 C 78.210938 95.929688 74.960938 94.65625 72.613281 93.304688 C 70 91.800781 67.652344 90.253906 65.402344 88.921875 C 63.019531 87.511719 60.71875 86.046875 58.191406 84.535156 C 54.410156 82.273438 51.449219 79.785156 50.640625 74.703125 C 50.378906 73.03125 50.441406 71.1875 50.441406 69.121094 C 50.441406 65.402344 50.414062 61.566406 50.238281 57.761719 C 49.417969 57.636719 48.667969 58.175781 48.101562 58.558594 C 45.058594 60.609375 42.953125 63.625 42.425781 68.191406 C 42.21875 69.988281 42.46875 72 42.425781 74.167969 C 42.34375 78.292969 42.753906 82.367188 42.09375 85.664062 C 41.4375 88.925781 39.792969 91.347656 37.351562 93.171875 C 35.054688 94.886719 31.453125 96.167969 27.734375 95.5625 C 25.917969 95.269531 24.53125 94.675781 23.191406 93.96875 C 21.875 93.269531 20.757812 92.355469 19.453125 91.574219 C 16.914062 90.058594 14.285156 88.65625 11.707031 87.058594 C 6.679688 83.941406 0.808594 81.625 0.21875 74.101562 C 0.0625 72.121094 0.257812 70.132812 0.21875 68.121094 C -0.0625 53.734375 0.0859375 39.910156 0.0859375 25.738281 C 0.0859375 21.609375 0.195312 17.617188 0.0195312 13.84375 C -0.171875 9.789062 1.140625 6.957031 3.089844 4.675781 C 4.988281 2.457031 7.820312 0.765625 11.238281 0.359375 C 14.125 0.015625 17.148438 0.925781 18.984375 2.085938 C 23.90625 5.1875 28.65625 8.097656 33.542969 11.1875 C 34.507812 11.792969 35.550781 12.347656 36.480469 12.980469 C 40.589844 15.773438 42.222656 19.640625 42.226562 26.132812 C 42.226562 29.253906 42.226562 32.410156 42.226562 35.566406 C 42.226562 38.59375 42.082031 41.65625 42.429688 44.605469 Z M 37.484375 44.140625 C 35.46875 42.867188 33.457031 41.574219 31.472656 40.351562 C 28.398438 38.214844 25.964844 35.523438 25.398438 30.984375 C 25.042969 28.164062 25.113281 24.609375 25.261719 21.351562 C 25.363281 19.152344 25.21875 16.21875 25.195312 13.976562 C 25.1875 13.109375 25.234375 11.84375 24.195312 12.25 C 21.269531 13.386719 18.628906 16.363281 17.648438 19.691406 C 16.996094 21.90625 17.289062 24.59375 17.3125 27.199219 C 17.34375 30.605469 17.21875 34.097656 17.179688 37.5625 C 17.167969 38.855469 17.3125 40.152344 17.3125 41.480469 C 17.3125 48.367188 17.1875 55.066406 17.3125 61.8125 C 17.433594 68.242188 17.308594 75.03125 17.382812 81.675781 C 17.390625 82.484375 17.179688 83.449219 17.714844 84.136719 C 18.945312 84.132812 19.890625 83.238281 20.71875 82.539062 C 23.34375 80.335938 25.046875 77.304688 25.332031 72.90625 C 25.707031 67 24.46875 58.992188 26.199219 54.304688 C 27.460938 50.882812 29.992188 48.3125 33.34375 46.996094 C 35.054688 46.324219 37.015625 46.121094 39.21875 45.601562 C 39.050781 44.753906 38.097656 44.527344 37.484375 44.140625 Z M 72.011719 81.015625 C 73.125 79.832031 74.117188 78.382812 74.617188 76.695312 C 75.484375 73.78125 75.152344 69.636719 75.152344 65.863281 C 75.152344 52.691406 75.089844 40.308594 75.085938 27.199219 C 75.085938 24.71875 74.949219 22.140625 75.019531 19.492188 C 75.042969 18.644531 75.019531 17.429688 75.019531 15.773438 C 75.019531 14.859375 75.308594 12.332031 74.550781 12.316406 C 73.785156 12.304688 72.234375 13.582031 71.679688 14.046875 C 69.511719 15.859375 67.742188 18.636719 67.40625 22.019531 C 67.070312 25.394531 67.40625 29.386719 67.40625 33.3125 C 67.40625 37.238281 67.65625 41.25 67.40625 44.738281 C 66.984375 50.582031 63.34375 54.402344 58.65625 55.898438 C 57.128906 56.390625 55.425781 56.378906 53.515625 56.761719 C 53.613281 57.617188 54.5 57.683594 54.984375 58.160156 C 59.144531 60.945312 63.855469 62.839844 66.136719 67.460938 C 67.679688 70.585938 67.472656 75.121094 67.472656 79.683594 C 67.472656 81.085938 67.25 82.585938 67.871094 83.738281 C 69.523438 83.445312 70.894531 82.203125 72.011719 81.015625 Z M 72.011719 81.015625 "/></g></g><mask id="6226eebc19"><g filter="url(#726ede499e)"><rect x="0" width="375" y="0" height="120" style="fill:#000000;fill-opacity:0.17;stroke:none;"/></g></mask></g><g clip-rule="nonzero" clip-path="url(#79804e8c19)"><path style=" stroke:none;fill-rule:evenodd;fill:#8c52ff;fill-opacity:1;" d="M 44.488281 46.464844 C 45.921875 46.484375 47.085938 45.558594 48.019531 44.804688 C 48.972656 44.027344 49.824219 43.015625 50.480469 42.007812 C 53.332031 37.632812 52.375 29.992188 52.414062 22.964844 C 52.433594 19.507812 52.230469 16.019531 52.746094 12.910156 C 53.632812 7.550781 57.804688 3.105469 63.398438 2.453125 C 66.839844 2.058594 69.539062 3.027344 71.855469 4.320312 C 74.117188 5.582031 76.109375 7.085938 78.246094 8.449219 C 80.839844 9.949219 83.078125 11.308594 85.503906 12.84375 C 87.851562 14.328125 90.179688 15.71875 91.828125 18.101562 C 93.492188 20.503906 94.023438 23.5625 94.023438 27.492188 C 94.023438 46.328125 94.058594 66.242188 94.160156 84.355469 C 94.199219 91.589844 89.886719 96.050781 83.839844 97.203125 C 80.164062 97.90625 76.921875 96.628906 74.582031 95.273438 C 71.976562 93.769531 69.636719 92.214844 67.390625 90.878906 C 65.019531 89.46875 62.722656 88 60.203125 86.484375 C 56.433594 84.21875 53.480469 81.726562 52.679688 76.632812 C 52.414062 74.953125 52.476562 73.105469 52.476562 71.039062 C 52.476562 67.308594 52.453125 63.464844 52.277344 59.652344 C 51.457031 59.527344 50.710938 60.066406 50.144531 60.449219 C 47.113281 62.507812 45.011719 65.53125 44.488281 70.105469 C 44.28125 71.90625 44.53125 73.921875 44.488281 76.097656 C 44.40625 80.230469 44.816406 84.3125 44.15625 87.617188 C 43.5 90.882812 41.863281 93.3125 39.429688 95.140625 C 37.140625 96.859375 33.546875 98.144531 29.839844 97.535156 C 28.03125 97.242188 26.644531 96.648438 25.3125 95.941406 C 24 95.238281 22.886719 94.324219 21.585938 93.542969 C 19.054688 92.023438 16.429688 90.617188 13.863281 89.011719 C 8.851562 85.890625 2.996094 83.566406 2.410156 76.03125 C 2.253906 74.042969 2.449219 72.050781 2.410156 70.035156 C 2.128906 55.617188 2.277344 41.761719 2.273438 27.558594 C 2.273438 23.421875 2.382812 19.421875 2.207031 15.640625 C 2.019531 11.574219 3.328125 8.738281 5.269531 6.449219 C 7.164062 4.226562 9.988281 2.53125 13.394531 2.121094 C 16.273438 1.78125 19.285156 2.695312 21.117188 3.851562 C 26.023438 6.964844 30.757812 9.882812 35.632812 12.976562 C 36.59375 13.585938 37.632812 14.140625 38.558594 14.773438 C 42.660156 17.574219 44.285156 21.445312 44.289062 27.957031 C 44.289062 31.082031 44.289062 34.246094 44.289062 37.410156 C 44.289062 40.441406 44.144531 43.515625 44.488281 46.464844 Z M 39.5625 46.003906 C 37.550781 44.726562 35.546875 43.429688 33.566406 42.207031 C 30.503906 40.0625 28.078125 37.367188 27.507812 32.816406 C 27.15625 29.988281 27.226562 26.429688 27.375 23.164062 C 27.476562 20.957031 27.332031 18.015625 27.308594 15.773438 C 27.300781 14.902344 27.347656 13.632812 26.3125 14.039062 C 23.394531 15.179688 20.761719 18.164062 19.785156 21.496094 C 19.132812 23.71875 19.429688 26.414062 19.453125 29.023438 C 19.484375 32.4375 19.359375 35.9375 19.316406 39.410156 C 19.304688 40.707031 19.453125 42.003906 19.453125 43.339844 C 19.453125 50.238281 19.328125 56.953125 19.453125 63.710938 C 19.570312 70.15625 19.449219 76.960938 19.519531 83.621094 C 19.527344 84.429688 19.316406 85.398438 19.851562 86.085938 C 21.078125 86.082031 22.019531 85.1875 22.847656 84.484375 C 25.460938 82.277344 27.160156 79.238281 27.441406 74.832031 C 27.820312 68.914062 26.582031 60.886719 28.308594 56.191406 C 29.566406 52.757812 32.09375 50.183594 35.433594 48.863281 C 37.140625 48.191406 39.09375 47.988281 41.289062 47.464844 C 41.121094 46.617188 40.171875 46.390625 39.5625 46.003906 Z M 73.984375 82.957031 C 75.09375 81.773438 76.078125 80.320312 76.582031 78.628906 C 77.445312 75.707031 77.113281 71.554688 77.113281 67.773438 C 77.113281 54.570312 77.050781 42.160156 77.046875 29.023438 C 77.046875 26.535156 76.910156 23.953125 76.980469 21.300781 C 77.003906 20.449219 76.980469 19.234375 76.980469 17.574219 C 76.980469 16.65625 77.269531 14.121094 76.515625 14.109375 C 75.75 14.097656 74.203125 15.375 73.652344 15.839844 C 71.488281 17.65625 69.726562 20.441406 69.390625 23.832031 C 69.054688 27.210938 69.390625 31.214844 69.390625 35.152344 C 69.390625 39.082031 69.640625 43.105469 69.390625 46.601562 C 68.972656 52.457031 65.339844 56.289062 60.667969 57.789062 C 59.144531 58.277344 57.449219 58.265625 55.539062 58.652344 C 55.640625 59.507812 56.527344 59.574219 57.007812 60.050781 C 61.152344 62.84375 65.847656 64.742188 68.125 69.375 C 69.664062 72.503906 69.457031 77.050781 69.457031 81.625 C 69.457031 83.027344 69.234375 84.53125 69.855469 85.683594 C 71.5 85.394531 72.867188 84.144531 73.984375 82.957031 Z M 73.984375 82.957031 "/></g></g></svg>