<svg xmlns="http://www.w3.org/2000/svg" xmlns:xlink="http://www.w3.org/1999/xlink" width="500" zoomAndPan="magnify" viewBox="0 0 375 194.87999" height="250" preserveAspectRatio="xMidYMid meet" version="1.2"><defs><clipPath id="a0637c93f9"><rect x="0" width="245" y="0" height="48"/></clipPath><clipPath id="ac247a21d2"><rect x="0" width="111" y="0" height="12"/></clipPath><clipPath id="10a3c3c353"><path d="M 20.925781 48.640625 L 103.375 48.640625 L 103.375 134.839844 L 20.925781 134.839844 Z M 20.925781 48.640625 "/></clipPath><filter x="0%" y="0%" width="100%" filterUnits="objectBoundingBox" id="cf4ade92a9" height="100%"><feColorMatrix values="0 0 0 0 1 0 0 0 0 1 0 0 0 0 1 0 0 0 1 0" type="matrix" in="SourceGraphic"/></filter><clipPath id="fefa5b0547"><path d="M 0.855469 1 L 83.304688 1 L 83.304688 87 L 0.855469 87 Z M 0.855469 1 "/></clipPath><clipPath id="a95302dd78"><rect x="0" width="85" y="0" height="89"/></clipPath><clipPath id="3f7e5a5059"><path d="M 20.824219 48.535156 L 103.273438 48.535156 L 103.273438 134.734375 L 20.824219 134.734375 Z M 20.824219 48.535156 "/></clipPath></defs><g id="25b393ba00"><g transform="matrix(1,0,0,1,112,71)"><g clip-path="url(#a0637c93f9)"><g style="fill:#000000;fill-opacity:1;"><g transform="translate(1.052209, 36.560904)"><path style="stroke:none" d="M 10.28125 0 L 4.046875 0 L 4.046875 -34 L 10.28125 -34 L 10.28125 -19.90625 L 27.421875 -19.90625 L 27.421875 -34 L 33.671875 -34 L 33.671875 0 L 27.421875 0 L 27.421875 -14.34375 L 10.28125 -14.34375 Z M 10.28125 0 "/></g><g transform="translate(38.780098, 36.560904)"><path style="stroke:none" d="M 13.828125 0.78125 C 12.085938 0.78125 10.476562 0.429688 9 -0.265625 C 7.53125 -0.972656 6.25 -1.953125 5.15625 -3.203125 C 4.070312 -4.453125 3.226562 -5.898438 2.625 -7.546875 C 2.019531 -9.203125 1.71875 -10.96875 1.71875 -12.84375 C 1.71875 -14.726562 2.019531 -16.488281 2.625 -18.125 C 3.238281 -19.769531 4.09375 -21.21875 5.1875 -22.46875 C 6.28125 -23.71875 7.554688 -24.695312 9.015625 -25.40625 C 10.484375 -26.125 12.078125 -26.484375 13.796875 -26.484375 C 15.898438 -26.484375 17.765625 -26.023438 19.390625 -25.109375 C 21.023438 -24.203125 22.253906 -22.945312 23.078125 -21.34375 L 23.078125 -25.703125 L 28.828125 -25.703125 L 28.828125 0 L 23.078125 0 L 23.078125 -4.328125 C 22.242188 -2.722656 21.015625 -1.46875 19.390625 -0.5625 C 17.765625 0.332031 15.910156 0.78125 13.828125 0.78125 Z M 15.28125 -4.828125 C 16.320312 -4.828125 17.300781 -5.03125 18.21875 -5.4375 C 19.132812 -5.84375 19.9375 -6.40625 20.625 -7.125 C 21.320312 -7.851562 21.863281 -8.707031 22.25 -9.6875 C 22.632812 -10.664062 22.828125 -11.71875 22.828125 -12.84375 C 22.828125 -13.96875 22.628906 -15.015625 22.234375 -15.984375 C 21.847656 -16.960938 21.3125 -17.816406 20.625 -18.546875 C 19.9375 -19.285156 19.132812 -19.859375 18.21875 -20.265625 C 17.300781 -20.671875 16.320312 -20.875 15.28125 -20.875 C 13.894531 -20.875 12.628906 -20.539062 11.484375 -19.875 C 10.347656 -19.207031 9.4375 -18.273438 8.75 -17.078125 C 8.0625 -15.878906 7.71875 -14.46875 7.71875 -12.84375 C 7.71875 -11.175781 8.0625 -9.742188 8.75 -8.546875 C 9.445312 -7.347656 10.367188 -6.425781 11.515625 -5.78125 C 12.671875 -5.144531 13.925781 -4.828125 15.28125 -4.828125 Z M 15.28125 -4.828125 "/></g><g transform="translate(71.157577, 36.560904)"><path style="stroke:none" d="M 9.59375 0 L 3.546875 0 L 3.546875 -25.703125 L 9.34375 -25.703125 L 9.34375 -21.046875 C 9.945312 -22.460938 10.832031 -23.59375 12 -24.4375 C 13.164062 -25.28125 14.582031 -25.703125 16.25 -25.703125 L 19 -25.703125 L 19 -20.5 L 16.578125 -20.5 C 15.191406 -20.5 13.972656 -20.164062 12.921875 -19.5 C 11.867188 -18.832031 11.050781 -17.863281 10.46875 -16.59375 C 9.882812 -15.332031 9.59375 -13.785156 9.59375 -11.953125 Z M 9.59375 0 "/></g><g transform="translate(90.934091, 36.560904)"><path style="stroke:none" d="M 15.09375 0.78125 C 13.382812 0.78125 11.796875 0.539062 10.328125 0.0625 C 8.859375 -0.414062 7.570312 -1.160156 6.46875 -2.171875 C 5.375 -3.191406 4.519531 -4.507812 3.90625 -6.125 C 3.300781 -7.738281 3 -9.6875 3 -11.96875 L 3 -25.703125 L 9 -25.703125 L 9 -12.15625 C 9 -9.78125 9.503906 -7.96875 10.515625 -6.71875 C 11.535156 -5.46875 13.054688 -4.84375 15.078125 -4.84375 C 17.109375 -4.84375 18.625 -5.472656 19.625 -6.734375 C 20.625 -7.992188 21.125 -9.800781 21.125 -12.15625 L 21.125 -25.703125 L 27.15625 -25.703125 L 27.15625 -11.96875 C 27.15625 -9.6875 26.847656 -7.738281 26.234375 -6.125 C 25.628906 -4.507812 24.773438 -3.191406 23.671875 -2.171875 C 22.578125 -1.160156 21.300781 -0.414062 19.84375 0.0625 C 18.382812 0.539062 16.800781 0.78125 15.09375 0.78125 Z M 15.09375 0.78125 "/></g><g transform="translate(121.086401, 36.560904)"><path style="stroke:none" d="M 15 0.78125 C 13.082031 0.78125 11.316406 0.425781 9.703125 -0.28125 C 8.085938 -0.988281 6.679688 -1.96875 5.484375 -3.21875 C 4.296875 -4.46875 3.367188 -5.914062 2.703125 -7.5625 C 2.046875 -9.21875 1.71875 -10.976562 1.71875 -12.84375 C 1.71875 -14.71875 2.046875 -16.472656 2.703125 -18.109375 C 3.367188 -19.753906 4.296875 -21.203125 5.484375 -22.453125 C 6.679688 -23.710938 8.085938 -24.695312 9.703125 -25.40625 C 11.316406 -26.125 13.082031 -26.484375 15 -26.484375 C 17.21875 -26.484375 19.195312 -26.050781 20.9375 -25.1875 C 22.675781 -24.332031 24.132812 -23.160156 25.3125 -21.671875 C 26.488281 -20.191406 27.316406 -18.507812 27.796875 -16.625 L 21.625 -16.625 C 21.0625 -18.0625 20.1875 -19.125 19 -19.8125 C 17.8125 -20.5 16.488281 -20.84375 15.03125 -20.84375 C 14.09375 -20.84375 13.191406 -20.664062 12.328125 -20.3125 C 11.460938 -19.957031 10.679688 -19.4375 9.984375 -18.75 C 9.296875 -18.0625 8.742188 -17.222656 8.328125 -16.234375 C 7.921875 -15.242188 7.71875 -14.113281 7.71875 -12.84375 C 7.71875 -11.582031 7.921875 -10.453125 8.328125 -9.453125 C 8.742188 -8.460938 9.296875 -7.625 9.984375 -6.9375 C 10.679688 -6.25 11.46875 -5.722656 12.34375 -5.359375 C 13.21875 -5.003906 14.113281 -4.828125 15.03125 -4.828125 C 16.488281 -4.828125 17.8125 -5.1875 19 -5.90625 C 20.1875 -6.632812 21.0625 -7.800781 21.625 -9.40625 L 27.78125 -9.40625 C 27.34375 -7.414062 26.53125 -5.65625 25.34375 -4.125 C 24.164062 -2.59375 22.695312 -1.390625 20.9375 -0.515625 C 19.175781 0.347656 17.195312 0.78125 15 0.78125 Z M 15 0.78125 "/></g><g transform="translate(150.213631, 36.560904)"><path style="stroke:none" d="M 15.21875 0.78125 C 13.269531 0.78125 11.46875 0.429688 9.8125 -0.265625 C 8.164062 -0.972656 6.738281 -1.953125 5.53125 -3.203125 C 4.320312 -4.453125 3.382812 -5.898438 2.71875 -7.546875 C 2.050781 -9.203125 1.71875 -10.96875 1.71875 -12.84375 C 1.71875 -14.726562 2.050781 -16.488281 2.71875 -18.125 C 3.382812 -19.769531 4.320312 -21.21875 5.53125 -22.46875 C 6.738281 -23.71875 8.164062 -24.695312 9.8125 -25.40625 C 11.46875 -26.125 13.28125 -26.484375 15.25 -26.484375 C 17.226562 -26.484375 19.039062 -26.125 20.6875 -25.40625 C 22.34375 -24.695312 23.78125 -23.71875 25 -22.46875 C 26.21875 -21.21875 27.160156 -19.769531 27.828125 -18.125 C 28.492188 -16.488281 28.828125 -14.726562 28.828125 -12.84375 C 28.828125 -10.945312 28.492188 -9.175781 27.828125 -7.53125 C 27.160156 -5.894531 26.21875 -4.453125 25 -3.203125 C 23.78125 -1.953125 22.34375 -0.972656 20.6875 -0.265625 C 19.03125 0.429688 17.207031 0.78125 15.21875 0.78125 Z M 15.28125 -4.84375 C 16.726562 -4.84375 18.015625 -5.1875 19.140625 -5.875 C 20.273438 -6.570312 21.171875 -7.519531 21.828125 -8.71875 C 22.492188 -9.925781 22.828125 -11.300781 22.828125 -12.84375 C 22.828125 -14.394531 22.492188 -15.773438 21.828125 -16.984375 C 21.171875 -18.191406 20.273438 -19.140625 19.140625 -19.828125 C 18.015625 -20.523438 16.726562 -20.875 15.28125 -20.875 C 13.84375 -20.875 12.550781 -20.523438 11.40625 -19.828125 C 10.269531 -19.140625 9.367188 -18.191406 8.703125 -16.984375 C 8.046875 -15.773438 7.71875 -14.394531 7.71875 -12.84375 C 7.71875 -11.300781 8.046875 -9.925781 8.703125 -8.71875 C 9.367188 -7.519531 10.269531 -6.570312 11.40625 -5.875 C 12.550781 -5.1875 13.84375 -4.84375 15.28125 -4.84375 Z M 15.28125 -4.84375 "/></g><g transform="translate(180.765971, 36.560904)"><path style="stroke:none" d="M 14.15625 0.78125 C 12.332031 0.78125 10.65625 0.429688 9.125 -0.265625 C 7.601562 -0.972656 6.289062 -1.953125 5.1875 -3.203125 C 4.09375 -4.453125 3.238281 -5.898438 2.625 -7.546875 C 2.019531 -9.203125 1.71875 -10.96875 1.71875 -12.84375 C 1.71875 -14.726562 2.015625 -16.488281 2.609375 -18.125 C 3.203125 -19.769531 4.050781 -21.21875 5.15625 -22.46875 C 6.269531 -23.71875 7.59375 -24.695312 9.125 -25.40625 C 10.65625 -26.125 12.351562 -26.484375 14.21875 -26.484375 C 15.625 -26.484375 16.894531 -26.234375 18.03125 -25.734375 C 19.175781 -25.242188 20.160156 -24.617188 20.984375 -23.859375 C 21.804688 -23.097656 22.445312 -22.3125 22.90625 -21.5 L 22.78125 -24.171875 L 22.78125 -35.203125 L 28.796875 -35.203125 L 28.796875 0 L 23.046875 0 L 23.046875 -4.328125 C 22.546875 -3.421875 21.867188 -2.582031 21.015625 -1.8125 C 20.171875 -1.039062 19.171875 -0.414062 18.015625 0.0625 C 16.867188 0.539062 15.582031 0.78125 14.15625 0.78125 Z M 15.25 -4.796875 C 16.300781 -4.796875 17.285156 -5 18.203125 -5.40625 C 19.117188 -5.820312 19.921875 -6.394531 20.609375 -7.125 C 21.304688 -7.851562 21.847656 -8.707031 22.234375 -9.6875 C 22.628906 -10.664062 22.828125 -11.71875 22.828125 -12.84375 C 22.828125 -13.976562 22.632812 -15.03125 22.25 -16 C 21.863281 -16.96875 21.320312 -17.816406 20.625 -18.546875 C 19.9375 -19.285156 19.132812 -19.859375 18.21875 -20.265625 C 17.300781 -20.671875 16.3125 -20.875 15.25 -20.875 C 13.832031 -20.875 12.546875 -20.523438 11.390625 -19.828125 C 10.242188 -19.140625 9.335938 -18.195312 8.671875 -17 C 8.003906 -15.800781 7.671875 -14.414062 7.671875 -12.84375 C 7.671875 -11.332031 7.992188 -9.96875 8.640625 -8.75 C 9.296875 -7.53125 10.191406 -6.566406 11.328125 -5.859375 C 12.472656 -5.148438 13.78125 -4.796875 15.25 -4.796875 Z M 15.25 -4.796875 "/></g><g transform="translate(213.093446, 36.560904)"><path style="stroke:none" d="M 28 -13.296875 C 28 -12.984375 27.988281 -12.679688 27.96875 -12.390625 C 27.957031 -12.109375 27.925781 -11.726562 27.875 -11.25 L 7.796875 -11.25 C 8.015625 -9.851562 8.460938 -8.660156 9.140625 -7.671875 C 9.816406 -6.691406 10.65625 -5.9375 11.65625 -5.40625 C 12.65625 -4.882812 13.742188 -4.625 14.921875 -4.625 C 16.453125 -4.625 17.691406 -4.925781 18.640625 -5.53125 C 19.597656 -6.144531 20.289062 -6.992188 20.71875 -8.078125 L 27.328125 -8.078125 C 27.015625 -6.921875 26.492188 -5.8125 25.765625 -4.75 C 25.035156 -3.6875 24.144531 -2.738281 23.09375 -1.90625 C 22.050781 -1.082031 20.847656 -0.429688 19.484375 0.046875 C 18.128906 0.535156 16.648438 0.78125 15.046875 0.78125 C 13.117188 0.78125 11.34375 0.425781 9.71875 -0.28125 C 8.09375 -0.988281 6.679688 -1.96875 5.484375 -3.21875 C 4.296875 -4.46875 3.367188 -5.914062 2.703125 -7.5625 C 2.046875 -9.21875 1.71875 -10.976562 1.71875 -12.84375 C 1.71875 -14.726562 2.046875 -16.488281 2.703125 -18.125 C 3.367188 -19.769531 4.296875 -21.21875 5.484375 -22.46875 C 6.679688 -23.71875 8.09375 -24.695312 9.71875 -25.40625 C 11.34375 -26.125 13.117188 -26.484375 15.046875 -26.484375 C 16.984375 -26.484375 18.742188 -26.128906 20.328125 -25.421875 C 21.921875 -24.722656 23.289062 -23.757812 24.4375 -22.53125 C 25.582031 -21.3125 26.460938 -19.910156 27.078125 -18.328125 C 27.691406 -16.742188 28 -15.066406 28 -13.296875 Z M 8.046875 -15.921875 L 21.828125 -15.921875 C 21.742188 -16.890625 21.382812 -17.769531 20.75 -18.5625 C 20.113281 -19.351562 19.296875 -19.988281 18.296875 -20.46875 C 17.296875 -20.957031 16.207031 -21.203125 15.03125 -21.203125 C 14.007812 -21.203125 13.03125 -21.015625 12.09375 -20.640625 C 11.164062 -20.265625 10.347656 -19.6875 9.640625 -18.90625 C 8.929688 -18.132812 8.398438 -17.140625 8.046875 -15.921875 Z M 8.046875 -15.921875 "/></g></g></g></g><g transform="matrix(1,0,0,1,179,113)"><g clip-path="url(#ac247a21d2)"><g style="fill:#8c52ff;fill-opacity:1;"><g transform="translate(1.085783, 9.237331)"><path style="stroke:none" d="M 2.578125 -5.703125 C 3.210938 -5.703125 3.695312 -5.539062 4.03125 -5.21875 C 4.375 -4.90625 4.578125 -4.476562 4.640625 -3.9375 L 3.5 -3.9375 C 3.46875 -4.226562 3.367188 -4.453125 3.203125 -4.609375 C 3.046875 -4.773438 2.820312 -4.859375 2.53125 -4.859375 C 2.300781 -4.859375 2.113281 -4.800781 1.96875 -4.6875 C 1.820312 -4.582031 1.75 -4.421875 1.75 -4.203125 C 1.75 -3.960938 1.835938 -3.773438 2.015625 -3.640625 C 2.191406 -3.503906 2.5 -3.382812 2.9375 -3.28125 C 3.550781 -3.144531 4 -2.929688 4.28125 -2.640625 C 4.570312 -2.359375 4.71875 -1.988281 4.71875 -1.53125 C 4.71875 -1.03125 4.515625 -0.628906 4.109375 -0.328125 C 3.710938 -0.0351562 3.226562 0.109375 2.65625 0.109375 C 1.976562 0.109375 1.4375 -0.0351562 1.03125 -0.328125 C 0.625 -0.628906 0.394531 -1.070312 0.34375 -1.65625 L 1.484375 -1.65625 C 1.535156 -1.351562 1.664062 -1.117188 1.875 -0.953125 C 2.09375 -0.796875 2.347656 -0.71875 2.640625 -0.71875 C 2.898438 -0.71875 3.113281 -0.78125 3.28125 -0.90625 C 3.457031 -1.039062 3.546875 -1.210938 3.546875 -1.421875 C 3.546875 -1.660156 3.460938 -1.851562 3.296875 -2 C 3.128906 -2.144531 2.84375 -2.265625 2.4375 -2.359375 C 1.8125 -2.515625 1.34375 -2.71875 1.03125 -2.96875 C 0.726562 -3.21875 0.578125 -3.582031 0.578125 -4.0625 C 0.578125 -4.5625 0.769531 -4.957031 1.15625 -5.25 C 1.539062 -5.550781 2.015625 -5.703125 2.578125 -5.703125 Z M 2.578125 -5.703125 "/></g></g><g style="fill:#8c52ff;fill-opacity:1;"><g transform="translate(6.009047, 9.237331)"><path style="stroke:none" d="M 3.171875 -5.703125 C 4.023438 -5.703125 4.695312 -5.4375 5.1875 -4.90625 C 5.6875 -4.382812 5.9375 -3.679688 5.9375 -2.796875 C 5.9375 -1.910156 5.6875 -1.203125 5.1875 -0.671875 C 4.695312 -0.148438 4.023438 0.109375 3.171875 0.109375 C 2.316406 0.109375 1.640625 -0.148438 1.140625 -0.671875 C 0.648438 -1.203125 0.40625 -1.910156 0.40625 -2.796875 C 0.40625 -3.679688 0.648438 -4.382812 1.140625 -4.90625 C 1.640625 -5.4375 2.316406 -5.703125 3.171875 -5.703125 Z M 2 -1.265625 C 2.28125 -0.898438 2.671875 -0.71875 3.171875 -0.71875 C 3.671875 -0.71875 4.0625 -0.898438 4.34375 -1.265625 C 4.625 -1.640625 4.765625 -2.148438 4.765625 -2.796875 C 4.765625 -3.441406 4.625 -3.945312 4.34375 -4.3125 C 4.0625 -4.675781 3.671875 -4.859375 3.171875 -4.859375 C 2.671875 -4.859375 2.28125 -4.675781 2 -4.3125 C 1.71875 -3.945312 1.578125 -3.4375 1.578125 -2.78125 C 1.578125 -2.132812 1.71875 -1.628906 2 -1.265625 Z M 2 -1.265625 "/></g></g><g style="fill:#8c52ff;fill-opacity:1;"><g transform="translate(12.203618, 9.237331)"><path style="stroke:none" d="M 4.75 -0.9375 L 4.75 0 L 0.71875 0 L 0.71875 -5.578125 L 1.84375 -5.578125 L 1.84375 -0.9375 Z M 4.75 -0.9375 "/></g></g><g style="fill:#8c52ff;fill-opacity:1;"><g transform="translate(17.094489, 9.237331)"><path style="stroke:none" d="M 5.25 -5.578125 L 5.25 -2.28125 C 5.25 -2.007812 5.242188 -1.789062 5.234375 -1.625 C 5.203125 -1.113281 5 -0.695312 4.625 -0.375 C 4.25 -0.0507812 3.691406 0.109375 2.953125 0.109375 C 2.210938 0.109375 1.65625 -0.0507812 1.28125 -0.375 C 0.90625 -0.695312 0.695312 -1.113281 0.65625 -1.625 C 0.644531 -1.789062 0.640625 -2.007812 0.640625 -2.28125 L 0.640625 -5.578125 L 1.75 -5.578125 L 1.75 -2.15625 C 1.75 -1.96875 1.753906 -1.832031 1.765625 -1.75 C 1.796875 -1.425781 1.910156 -1.171875 2.109375 -0.984375 C 2.304688 -0.804688 2.585938 -0.71875 2.953125 -0.71875 C 3.316406 -0.71875 3.597656 -0.804688 3.796875 -0.984375 C 3.992188 -1.171875 4.101562 -1.425781 4.125 -1.75 C 4.132812 -1.832031 4.140625 -1.96875 4.140625 -2.15625 L 4.140625 -5.578125 Z M 5.25 -5.578125 "/></g></g><g style="fill:#8c52ff;fill-opacity:1;"><g transform="translate(22.778914, 9.237331)"><path style="stroke:none" d="M 4.390625 -1.9375 L 5.5 -1.9375 L 5.5 -1.859375 C 5.4375 -1.273438 5.195312 -0.804688 4.78125 -0.453125 C 4.375 -0.0976562 3.835938 0.0859375 3.171875 0.109375 L 3.0625 0.328125 C 3.539062 0.390625 3.78125 0.609375 3.78125 0.984375 C 3.78125 1.222656 3.664062 1.398438 3.4375 1.515625 C 3.21875 1.640625 2.929688 1.703125 2.578125 1.703125 C 2.410156 1.703125 2.265625 1.679688 2.140625 1.640625 L 2.140625 1.171875 C 2.285156 1.210938 2.4375 1.234375 2.59375 1.234375 C 2.914062 1.234375 3.078125 1.144531 3.078125 0.96875 C 3.078125 0.738281 2.820312 0.644531 2.3125 0.6875 L 2.609375 0.078125 C 1.941406 -0.015625 1.40625 -0.3125 1 -0.8125 C 0.601562 -1.3125 0.40625 -1.960938 0.40625 -2.765625 C 0.40625 -3.660156 0.660156 -4.375 1.171875 -4.90625 C 1.679688 -5.4375 2.328125 -5.703125 3.109375 -5.703125 C 3.835938 -5.703125 4.40625 -5.523438 4.8125 -5.171875 C 5.226562 -4.816406 5.46875 -4.347656 5.53125 -3.765625 L 5.53125 -3.6875 L 4.421875 -3.6875 L 4.40625 -3.765625 C 4.257812 -4.492188 3.820312 -4.859375 3.09375 -4.859375 C 2.644531 -4.859375 2.28125 -4.675781 2 -4.3125 C 1.726562 -3.945312 1.59375 -3.453125 1.59375 -2.828125 C 1.59375 -2.148438 1.726562 -1.628906 2 -1.265625 C 2.28125 -0.898438 2.640625 -0.71875 3.078125 -0.71875 C 3.441406 -0.71875 3.726562 -0.816406 3.9375 -1.015625 C 4.15625 -1.210938 4.300781 -1.492188 4.375 -1.859375 Z M 4.390625 -1.9375 "/></g></g><g style="fill:#8c52ff;fill-opacity:1;"><g transform="translate(28.592899, 9.237331)"><path style="stroke:none" d="M 2.75 -6.25 C 2.664062 -6.25 2.625 -6.175781 2.625 -6.03125 L 2.0625 -6.03125 C 2.0625 -6.332031 2.109375 -6.550781 2.203125 -6.6875 C 2.296875 -6.820312 2.441406 -6.890625 2.640625 -6.890625 C 2.828125 -6.890625 3.023438 -6.847656 3.234375 -6.765625 C 3.398438 -6.691406 3.523438 -6.65625 3.609375 -6.65625 C 3.679688 -6.65625 3.71875 -6.722656 3.71875 -6.859375 L 4.296875 -6.859375 C 4.296875 -6.554688 4.242188 -6.335938 4.140625 -6.203125 C 4.046875 -6.066406 3.898438 -6 3.703125 -6 C 3.546875 -6 3.347656 -6.046875 3.109375 -6.140625 C 2.921875 -6.210938 2.800781 -6.25 2.75 -6.25 Z M 3.171875 -5.703125 C 4.023438 -5.703125 4.695312 -5.4375 5.1875 -4.90625 C 5.6875 -4.382812 5.9375 -3.679688 5.9375 -2.796875 C 5.9375 -1.910156 5.6875 -1.203125 5.1875 -0.671875 C 4.695312 -0.148438 4.023438 0.109375 3.171875 0.109375 C 2.316406 0.109375 1.640625 -0.148438 1.140625 -0.671875 C 0.648438 -1.203125 0.40625 -1.910156 0.40625 -2.796875 C 0.40625 -3.679688 0.648438 -4.382812 1.140625 -4.90625 C 1.640625 -5.4375 2.316406 -5.703125 3.171875 -5.703125 Z M 2 -1.265625 C 2.28125 -0.898438 2.671875 -0.71875 3.171875 -0.71875 C 3.671875 -0.71875 4.0625 -0.898438 4.34375 -1.265625 C 4.625 -1.640625 4.765625 -2.148438 4.765625 -2.796875 C 4.765625 -3.441406 4.625 -3.945312 4.34375 -4.3125 C 4.0625 -4.675781 3.671875 -4.859375 3.171875 -4.859375 C 2.671875 -4.859375 2.28125 -4.675781 2 -4.3125 C 1.71875 -3.945312 1.578125 -3.4375 1.578125 -2.78125 C 1.578125 -2.132812 1.71875 -1.628906 2 -1.265625 Z M 2 -1.265625 "/></g></g><g style="fill:#8c52ff;fill-opacity:1;"><g transform="translate(34.78747, 9.237331)"><path style="stroke:none" d="M 4.75 -0.875 L 4.75 0 L 0.71875 0 L 0.71875 -5.578125 L 4.671875 -5.578125 L 4.671875 -4.703125 L 1.84375 -4.703125 L 1.84375 -3.234375 L 4.46875 -3.234375 L 4.46875 -2.359375 L 1.84375 -2.359375 L 1.84375 -0.875 Z M 4.75 -0.875 "/></g></g><g style="fill:#8c52ff;fill-opacity:1;"><g transform="translate(39.775519, 9.237331)"><path style="stroke:none" d="M 2.578125 -5.703125 C 3.210938 -5.703125 3.695312 -5.539062 4.03125 -5.21875 C 4.375 -4.90625 4.578125 -4.476562 4.640625 -3.9375 L 3.5 -3.9375 C 3.46875 -4.226562 3.367188 -4.453125 3.203125 -4.609375 C 3.046875 -4.773438 2.820312 -4.859375 2.53125 -4.859375 C 2.300781 -4.859375 2.113281 -4.800781 1.96875 -4.6875 C 1.820312 -4.582031 1.75 -4.421875 1.75 -4.203125 C 1.75 -3.960938 1.835938 -3.773438 2.015625 -3.640625 C 2.191406 -3.503906 2.5 -3.382812 2.9375 -3.28125 C 3.550781 -3.144531 4 -2.929688 4.28125 -2.640625 C 4.570312 -2.359375 4.71875 -1.988281 4.71875 -1.53125 C 4.71875 -1.03125 4.515625 -0.628906 4.109375 -0.328125 C 3.710938 -0.0351562 3.226562 0.109375 2.65625 0.109375 C 1.976562 0.109375 1.4375 -0.0351562 1.03125 -0.328125 C 0.625 -0.628906 0.394531 -1.070312 0.34375 -1.65625 L 1.484375 -1.65625 C 1.535156 -1.351562 1.664062 -1.117188 1.875 -0.953125 C 2.09375 -0.796875 2.347656 -0.71875 2.640625 -0.71875 C 2.898438 -0.71875 3.113281 -0.78125 3.28125 -0.90625 C 3.457031 -1.039062 3.546875 -1.210938 3.546875 -1.421875 C 3.546875 -1.660156 3.460938 -1.851562 3.296875 -2 C 3.128906 -2.144531 2.84375 -2.265625 2.4375 -2.359375 C 1.8125 -2.515625 1.34375 -2.71875 1.03125 -2.96875 C 0.726562 -3.21875 0.578125 -3.582031 0.578125 -4.0625 C 0.578125 -4.5625 0.769531 -4.957031 1.15625 -5.25 C 1.539062 -5.550781 2.015625 -5.703125 2.578125 -5.703125 Z M 2.578125 -5.703125 "/></g></g><g style="fill:#8c52ff;fill-opacity:1;"><g transform="translate(44.698783, 9.237331)"><path style="stroke:none" d=""/></g></g><g style="fill:#8c52ff;fill-opacity:1;"><g transform="translate(46.269694, 9.237331)"><path style="stroke:none" d="M 5.09375 -4.703125 L 3.203125 -4.703125 L 3.203125 0 L 2.078125 0 L 2.078125 -4.703125 L 0.1875 -4.703125 L 0.1875 -5.578125 L 5.09375 -5.578125 Z M 5.09375 -4.703125 "/></g></g><g style="fill:#8c52ff;fill-opacity:1;"><g transform="translate(51.314425, 9.237331)"><path style="stroke:none" d="M 4.75 -0.875 L 4.75 0 L 0.71875 0 L 0.71875 -5.578125 L 4.671875 -5.578125 L 4.671875 -4.703125 L 1.84375 -4.703125 L 1.84375 -3.234375 L 4.46875 -3.234375 L 4.46875 -2.359375 L 1.84375 -2.359375 L 1.84375 -0.875 Z M 4.75 -0.875 "/></g></g><g style="fill:#8c52ff;fill-opacity:1;"><g transform="translate(56.302474, 9.237331)"><path style="stroke:none" d="M 3.109375 -5.703125 C 3.835938 -5.703125 4.40625 -5.523438 4.8125 -5.171875 C 5.226562 -4.816406 5.46875 -4.347656 5.53125 -3.765625 L 5.53125 -3.6875 L 4.421875 -3.6875 L 4.40625 -3.765625 C 4.257812 -4.492188 3.820312 -4.859375 3.09375 -4.859375 C 2.644531 -4.859375 2.28125 -4.675781 2 -4.3125 C 1.726562 -3.945312 1.59375 -3.453125 1.59375 -2.828125 C 1.59375 -2.148438 1.726562 -1.628906 2 -1.265625 C 2.28125 -0.898438 2.640625 -0.71875 3.078125 -0.71875 C 3.441406 -0.71875 3.726562 -0.816406 3.9375 -1.015625 C 4.15625 -1.210938 4.300781 -1.492188 4.375 -1.859375 L 4.390625 -1.9375 L 5.5 -1.9375 L 5.5 -1.859375 C 5.4375 -1.253906 5.1875 -0.773438 4.75 -0.421875 C 4.3125 -0.0664062 3.738281 0.109375 3.03125 0.109375 C 2.25 0.109375 1.613281 -0.144531 1.125 -0.65625 C 0.644531 -1.175781 0.40625 -1.878906 0.40625 -2.765625 C 0.40625 -3.660156 0.660156 -4.375 1.171875 -4.90625 C 1.679688 -5.4375 2.328125 -5.703125 3.109375 -5.703125 Z M 3.109375 -5.703125 "/></g></g><g style="fill:#8c52ff;fill-opacity:1;"><g transform="translate(62.116458, 9.237331)"><path style="stroke:none" d="M 5.625 0 L 4.09375 0 L 1.796875 -4.234375 C 1.828125 -3.734375 1.84375 -3.164062 1.84375 -2.53125 L 1.84375 0 L 0.71875 0 L 0.71875 -5.578125 L 2.203125 -5.578125 L 4.546875 -1.265625 C 4.523438 -1.765625 4.515625 -2.347656 4.515625 -3.015625 L 4.515625 -5.578125 L 5.609375 -5.578125 Z M 5.625 0 "/></g></g><g style="fill:#8c52ff;fill-opacity:1;"><g transform="translate(68.270544, 9.237331)"><path style="stroke:none" d="M 3.171875 -5.703125 C 4.023438 -5.703125 4.695312 -5.4375 5.1875 -4.90625 C 5.6875 -4.382812 5.9375 -3.679688 5.9375 -2.796875 C 5.9375 -1.910156 5.6875 -1.203125 5.1875 -0.671875 C 4.695312 -0.148438 4.023438 0.109375 3.171875 0.109375 C 2.316406 0.109375 1.640625 -0.148438 1.140625 -0.671875 C 0.648438 -1.203125 0.40625 -1.910156 0.40625 -2.796875 C 0.40625 -3.679688 0.648438 -4.382812 1.140625 -4.90625 C 1.640625 -5.4375 2.316406 -5.703125 3.171875 -5.703125 Z M 2 -1.265625 C 2.28125 -0.898438 2.671875 -0.71875 3.171875 -0.71875 C 3.671875 -0.71875 4.0625 -0.898438 4.34375 -1.265625 C 4.625 -1.640625 4.765625 -2.148438 4.765625 -2.796875 C 4.765625 -3.441406 4.625 -3.945312 4.34375 -4.3125 C 4.0625 -4.675781 3.671875 -4.859375 3.171875 -4.859375 C 2.671875 -4.859375 2.28125 -4.675781 2 -4.3125 C 1.71875 -3.945312 1.578125 -3.4375 1.578125 -2.78125 C 1.578125 -2.132812 1.71875 -1.628906 2 -1.265625 Z M 2 -1.265625 "/></g></g><g style="fill:#8c52ff;fill-opacity:1;"><g transform="translate(74.465114, 9.237331)"><path style="stroke:none" d="M 4.75 -0.9375 L 4.75 0 L 0.71875 0 L 0.71875 -5.578125 L 1.84375 -5.578125 L 1.84375 -0.9375 Z M 4.75 -0.9375 "/></g></g><g style="fill:#8c52ff;fill-opacity:1;"><g transform="translate(79.355986, 9.237331)"><path style="stroke:none" d="M 3.4375 -5.953125 L 2.8125 -5.953125 L 3.421875 -6.859375 L 4.421875 -6.859375 Z M 3.171875 -5.703125 C 4.023438 -5.703125 4.695312 -5.4375 5.1875 -4.90625 C 5.6875 -4.382812 5.9375 -3.679688 5.9375 -2.796875 C 5.9375 -1.910156 5.6875 -1.203125 5.1875 -0.671875 C 4.695312 -0.148438 4.023438 0.109375 3.171875 0.109375 C 2.316406 0.109375 1.640625 -0.148438 1.140625 -0.671875 C 0.648438 -1.203125 0.40625 -1.910156 0.40625 -2.796875 C 0.40625 -3.679688 0.648438 -4.382812 1.140625 -4.90625 C 1.640625 -5.4375 2.316406 -5.703125 3.171875 -5.703125 Z M 2 -1.265625 C 2.28125 -0.898438 2.671875 -0.71875 3.171875 -0.71875 C 3.671875 -0.71875 4.0625 -0.898438 4.34375 -1.265625 C 4.625 -1.640625 4.765625 -2.148438 4.765625 -2.796875 C 4.765625 -3.441406 4.625 -3.945312 4.34375 -4.3125 C 4.0625 -4.675781 3.671875 -4.859375 3.171875 -4.859375 C 2.671875 -4.859375 2.28125 -4.675781 2 -4.3125 C 1.71875 -3.945312 1.578125 -3.4375 1.578125 -2.78125 C 1.578125 -2.132812 1.71875 -1.628906 2 -1.265625 Z M 2 -1.265625 "/></g></g><g style="fill:#8c52ff;fill-opacity:1;"><g transform="translate(85.550556, 9.237331)"><path style="stroke:none" d="M 3.28125 -2.84375 L 5.53125 -2.84375 L 5.53125 0 L 4.625 0 L 4.5625 -0.90625 L 4.3125 -0.34375 C 4 -0.0390625 3.546875 0.109375 2.953125 0.109375 C 2.171875 0.109375 1.550781 -0.144531 1.09375 -0.65625 C 0.632812 -1.175781 0.40625 -1.878906 0.40625 -2.765625 C 0.40625 -3.660156 0.664062 -4.375 1.1875 -4.90625 C 1.707031 -5.4375 2.367188 -5.703125 3.171875 -5.703125 C 3.890625 -5.703125 4.453125 -5.523438 4.859375 -5.171875 C 5.273438 -4.816406 5.515625 -4.347656 5.578125 -3.765625 L 5.578125 -3.6875 L 4.46875 -3.6875 L 4.453125 -3.765625 C 4.304688 -4.492188 3.875 -4.859375 3.15625 -4.859375 C 2.6875 -4.859375 2.304688 -4.675781 2.015625 -4.3125 C 1.734375 -3.945312 1.59375 -3.453125 1.59375 -2.828125 C 1.59375 -2.148438 1.734375 -1.628906 2.015625 -1.265625 C 2.296875 -0.898438 2.660156 -0.71875 3.109375 -0.71875 C 3.472656 -0.71875 3.773438 -0.828125 4.015625 -1.046875 C 4.253906 -1.273438 4.398438 -1.582031 4.453125 -1.96875 L 3.28125 -1.96875 Z M 3.28125 -2.84375 "/></g></g><g style="fill:#8c52ff;fill-opacity:1;"><g transform="translate(91.51839, 9.237331)"><path style="stroke:none" d="M 1.84375 0 L 0.71875 0 L 0.71875 -5.578125 L 1.84375 -5.578125 Z M 1.84375 0 "/></g></g><g style="fill:#8c52ff;fill-opacity:1;"><g transform="translate(93.882855, 9.237331)"><path style="stroke:none" d="M 3.109375 -5.703125 C 3.835938 -5.703125 4.40625 -5.523438 4.8125 -5.171875 C 5.226562 -4.816406 5.46875 -4.347656 5.53125 -3.765625 L 5.53125 -3.6875 L 4.421875 -3.6875 L 4.40625 -3.765625 C 4.257812 -4.492188 3.820312 -4.859375 3.09375 -4.859375 C 2.644531 -4.859375 2.28125 -4.675781 2 -4.3125 C 1.726562 -3.945312 1.59375 -3.453125 1.59375 -2.828125 C 1.59375 -2.148438 1.726562 -1.628906 2 -1.265625 C 2.28125 -0.898438 2.640625 -0.71875 3.078125 -0.71875 C 3.441406 -0.71875 3.726562 -0.816406 3.9375 -1.015625 C 4.15625 -1.210938 4.300781 -1.492188 4.375 -1.859375 L 4.390625 -1.9375 L 5.5 -1.9375 L 5.5 -1.859375 C 5.4375 -1.253906 5.1875 -0.773438 4.75 -0.421875 C 4.3125 -0.0664062 3.738281 0.109375 3.03125 0.109375 C 2.25 0.109375 1.613281 -0.144531 1.125 -0.65625 C 0.644531 -1.175781 0.40625 -1.878906 0.40625 -2.765625 C 0.40625 -3.660156 0.660156 -4.375 1.171875 -4.90625 C 1.679688 -5.4375 2.328125 -5.703125 3.109375 -5.703125 Z M 3.109375 -5.703125 "/></g></g><g style="fill:#8c52ff;fill-opacity:1;"><g transform="translate(99.69684, 9.237331)"><path style="stroke:none" d="M 3.75 -1.6875 L 1.875 -1.6875 L 1.3125 0 L 0.125 0 L 2.140625 -5.578125 L 3.53125 -5.578125 L 5.515625 0 L 4.296875 0 Z M 2.8125 -4.625 L 2.15625 -2.5625 L 3.46875 -2.5625 Z M 2.8125 -4.625 "/></g></g><g style="fill:#8c52ff;fill-opacity:1;"><g transform="translate(105.170734, 9.237331)"><path style="stroke:none" d="M 2.578125 -5.703125 C 3.210938 -5.703125 3.695312 -5.539062 4.03125 -5.21875 C 4.375 -4.90625 4.578125 -4.476562 4.640625 -3.9375 L 3.5 -3.9375 C 3.46875 -4.226562 3.367188 -4.453125 3.203125 -4.609375 C 3.046875 -4.773438 2.820312 -4.859375 2.53125 -4.859375 C 2.300781 -4.859375 2.113281 -4.800781 1.96875 -4.6875 C 1.820312 -4.582031 1.75 -4.421875 1.75 -4.203125 C 1.75 -3.960938 1.835938 -3.773438 2.015625 -3.640625 C 2.191406 -3.503906 2.5 -3.382812 2.9375 -3.28125 C 3.550781 -3.144531 4 -2.929688 4.28125 -2.640625 C 4.570312 -2.359375 4.71875 -1.988281 4.71875 -1.53125 C 4.71875 -1.03125 4.515625 -0.628906 4.109375 -0.328125 C 3.710938 -0.0351562 3.226562 0.109375 2.65625 0.109375 C 1.976562 0.109375 1.4375 -0.0351562 1.03125 -0.328125 C 0.625 -0.628906 0.394531 -1.070312 0.34375 -1.65625 L 1.484375 -1.65625 C 1.535156 -1.351562 1.664062 -1.117188 1.875 -0.953125 C 2.09375 -0.796875 2.347656 -0.71875 2.640625 -0.71875 C 2.898438 -0.71875 3.113281 -0.78125 3.28125 -0.90625 C 3.457031 -1.039062 3.546875 -1.210938 3.546875 -1.421875 C 3.546875 -1.660156 3.460938 -1.851562 3.296875 -2 C 3.128906 -2.144531 2.84375 -2.265625 2.4375 -2.359375 C 1.8125 -2.515625 1.34375 -2.71875 1.03125 -2.96875 C 0.726562 -3.21875 0.578125 -3.582031 0.578125 -4.0625 C 0.578125 -4.5625 0.769531 -4.957031 1.15625 -5.25 C 1.539062 -5.550781 2.015625 -5.703125 2.578125 -5.703125 Z M 2.578125 -5.703125 "/></g></g></g></g><g clip-rule="nonzero" clip-path="url(#10a3c3c353)"><path style=" stroke:none;fill-rule:evenodd;fill:#8c52ff;fill-opacity:1;" d="M 58.929688 88.800781 C 60.214844 88.816406 61.257812 87.984375 62.097656 87.304688 C 62.957031 86.609375 63.71875 85.699219 64.308594 84.792969 C 66.871094 80.863281 66.011719 74 66.046875 67.6875 C 66.0625 64.582031 65.882812 61.445312 66.34375 58.652344 C 67.144531 53.835938 70.890625 49.84375 75.914062 49.261719 C 79.003906 48.902344 81.433594 49.777344 83.511719 50.9375 C 85.542969 52.066406 87.335938 53.421875 89.253906 54.644531 C 91.585938 55.992188 93.59375 57.214844 95.773438 58.59375 C 97.882812 59.925781 99.972656 61.175781 101.457031 63.316406 C 102.953125 65.476562 103.429688 68.222656 103.429688 71.753906 C 103.429688 88.675781 103.460938 106.566406 103.550781 122.839844 C 103.585938 129.339844 99.710938 133.347656 94.277344 134.382812 C 90.976562 135.011719 88.0625 133.867188 85.964844 132.648438 C 83.625 131.296875 81.519531 129.902344 79.503906 128.703125 C 77.371094 127.433594 75.308594 126.113281 73.042969 124.753906 C 69.660156 122.714844 67.003906 120.476562 66.285156 115.902344 C 66.046875 114.394531 66.105469 112.734375 66.105469 110.875 C 66.105469 107.527344 66.082031 104.070312 65.925781 100.644531 C 65.1875 100.535156 64.515625 101.019531 64.007812 101.363281 C 61.285156 103.210938 59.398438 105.925781 58.925781 110.035156 C 58.742188 111.65625 58.964844 113.46875 58.925781 115.421875 C 58.851562 119.132812 59.21875 122.800781 58.628906 125.769531 C 58.039062 128.707031 56.566406 130.886719 54.378906 132.53125 C 52.324219 134.074219 49.09375 135.226562 45.765625 134.683594 C 44.140625 134.417969 42.898438 133.882812 41.699219 133.246094 C 40.519531 132.617188 39.519531 131.792969 38.347656 131.09375 C 36.074219 129.726562 33.71875 128.464844 31.410156 127.023438 C 26.910156 124.21875 21.648438 122.132812 21.121094 115.359375 C 20.984375 113.574219 21.15625 111.785156 21.121094 109.976562 C 20.871094 97.023438 21.003906 84.574219 21 71.8125 C 21 68.097656 21.101562 64.503906 20.941406 61.105469 C 20.773438 57.453125 21.945312 54.90625 23.695312 52.847656 C 25.394531 50.851562 27.929688 49.328125 30.992188 48.960938 C 33.578125 48.652344 36.285156 49.476562 37.929688 50.515625 C 42.335938 53.308594 46.59375 55.929688 50.96875 58.714844 C 51.832031 59.257812 52.765625 59.757812 53.601562 60.328125 C 57.28125 62.84375 58.746094 66.324219 58.746094 72.167969 C 58.746094 74.980469 58.746094 77.820312 58.746094 80.664062 C 58.746094 83.386719 58.617188 86.148438 58.929688 88.800781 Z M 54.5 88.382812 C 52.695312 87.234375 50.894531 86.074219 49.117188 84.972656 C 46.363281 83.046875 44.183594 80.625 43.671875 76.539062 C 43.355469 73.996094 43.417969 70.796875 43.550781 67.863281 C 43.640625 65.882812 43.511719 63.242188 43.492188 61.222656 C 43.484375 60.445312 43.527344 59.304688 42.597656 59.667969 C 39.976562 60.695312 37.609375 63.375 36.730469 66.367188 C 36.148438 68.363281 36.414062 70.785156 36.433594 73.128906 C 36.460938 76.199219 36.347656 79.34375 36.3125 82.460938 C 36.300781 83.625 36.433594 84.792969 36.433594 85.988281 C 36.433594 92.191406 36.320312 98.21875 36.433594 104.292969 C 36.542969 110.085938 36.429688 116.195312 36.496094 122.179688 C 36.5 122.90625 36.3125 123.777344 36.792969 124.394531 C 37.894531 124.390625 38.738281 123.585938 39.484375 122.957031 C 41.832031 120.972656 43.359375 118.242188 43.613281 114.28125 C 43.953125 108.964844 42.839844 101.757812 44.390625 97.535156 C 45.523438 94.453125 47.789062 92.140625 50.789062 90.953125 C 52.324219 90.347656 54.078125 90.167969 56.054688 89.699219 C 55.902344 88.9375 55.050781 88.730469 54.5 88.382812 Z M 85.425781 121.582031 C 86.421875 120.519531 87.308594 119.214844 87.757812 117.695312 C 88.535156 115.070312 88.238281 111.339844 88.238281 107.941406 C 88.234375 96.082031 88.179688 84.933594 88.179688 73.128906 C 88.175781 70.894531 88.054688 68.574219 88.117188 66.191406 C 88.140625 65.425781 88.117188 64.335938 88.117188 62.84375 C 88.117188 62.019531 88.378906 59.742188 87.699219 59.730469 C 87.011719 59.71875 85.621094 60.867188 85.128906 61.285156 C 83.183594 62.917969 81.601562 65.421875 81.300781 68.464844 C 80.996094 71.503906 81.296875 75.097656 81.300781 78.632812 C 81.300781 82.167969 81.523438 85.78125 81.300781 88.921875 C 80.921875 94.183594 77.660156 97.625 73.460938 98.972656 C 72.09375 99.410156 70.570312 99.402344 68.855469 99.75 C 68.945312 100.519531 69.742188 100.578125 70.171875 101.003906 C 73.898438 103.511719 78.117188 105.21875 80.160156 109.378906 C 81.542969 112.195312 81.355469 116.277344 81.355469 120.386719 C 81.355469 121.648438 81.15625 122.996094 81.714844 124.035156 C 83.195312 123.769531 84.421875 122.652344 85.425781 121.582031 Z M 85.425781 121.582031 "/></g><g mask="url(#36ca746326)" transform="matrix(1,0,0,1,18,46)"><g clip-path="url(#a95302dd78)"><g clip-rule="nonzero" clip-path="url(#fefa5b0547)"><path style=" stroke:none;fill-rule:evenodd;fill:#000000;fill-opacity:1;" d="M 38.773438 40.996094 C 40.058594 41.011719 41.101562 40.183594 41.9375 39.507812 C 42.792969 38.8125 43.558594 37.90625 44.144531 37.003906 C 46.699219 33.085938 45.84375 26.238281 45.878906 19.941406 C 45.894531 16.847656 45.714844 13.71875 46.175781 10.933594 C 46.972656 6.132812 50.710938 2.152344 55.726562 1.566406 C 58.808594 1.210938 61.230469 2.082031 63.308594 3.238281 C 65.335938 4.367188 67.125 5.71875 69.039062 6.9375 C 71.363281 8.28125 73.367188 9.5 75.542969 10.875 C 77.648438 12.203125 79.734375 13.449219 81.214844 15.585938 C 82.707031 17.738281 83.183594 20.476562 83.183594 24 C 83.183594 40.875 83.214844 58.714844 83.304688 74.941406 C 83.339844 81.421875 79.472656 85.421875 74.050781 86.453125 C 70.757812 87.082031 67.851562 85.9375 65.753906 84.722656 C 63.417969 83.375 61.320312 81.984375 59.308594 80.789062 C 57.179688 79.523438 55.121094 78.207031 52.863281 76.847656 C 49.484375 74.820312 46.835938 72.585938 46.117188 68.023438 C 45.878906 66.519531 45.9375 64.863281 45.9375 63.011719 C 45.9375 59.671875 45.914062 56.226562 45.757812 52.808594 C 45.019531 52.699219 44.351562 53.183594 43.847656 53.527344 C 41.125 55.371094 39.242188 58.078125 38.773438 62.175781 C 38.589844 63.789062 38.8125 65.597656 38.773438 67.542969 C 38.699219 71.246094 39.066406 74.902344 38.476562 77.863281 C 37.886719 80.792969 36.421875 82.96875 34.238281 84.605469 C 32.1875 86.144531 28.964844 87.296875 25.640625 86.75 C 24.019531 86.488281 22.777344 85.957031 21.582031 85.320312 C 20.40625 84.691406 19.40625 83.871094 18.242188 83.171875 C 15.972656 81.8125 13.621094 80.550781 11.316406 79.117188 C 6.824219 76.316406 1.574219 74.238281 1.050781 67.484375 C 0.910156 65.703125 1.085938 63.917969 1.050781 62.113281 C 0.796875 49.195312 0.933594 36.78125 0.929688 24.058594 C 0.929688 20.355469 1.027344 16.769531 0.871094 13.378906 C 0.699219 9.738281 1.871094 7.199219 3.617188 5.148438 C 5.3125 3.15625 7.84375 1.636719 10.898438 1.269531 C 13.480469 0.964844 16.179688 1.78125 17.820312 2.820312 C 22.21875 5.605469 26.464844 8.222656 30.832031 10.996094 C 31.695312 11.539062 32.628906 12.035156 33.460938 12.605469 C 37.132812 15.113281 38.59375 18.582031 38.59375 24.414062 C 38.59375 27.214844 38.59375 30.046875 38.59375 32.882812 C 38.59375 35.601562 38.464844 38.351562 38.773438 40.996094 Z M 34.355469 40.582031 C 32.554688 39.4375 30.757812 38.277344 28.984375 37.179688 C 26.234375 35.261719 24.0625 32.84375 23.550781 28.769531 C 23.238281 26.238281 23.300781 23.046875 23.429688 20.121094 C 23.523438 18.144531 23.394531 15.511719 23.371094 13.5 C 23.363281 12.722656 23.410156 11.582031 22.476562 11.949219 C 19.863281 12.96875 17.503906 15.644531 16.625 18.628906 C 16.042969 20.617188 16.308594 23.03125 16.328125 25.371094 C 16.355469 28.429688 16.246094 31.566406 16.207031 34.675781 C 16.195312 35.835938 16.328125 37 16.328125 38.195312 C 16.328125 44.378906 16.214844 50.390625 16.328125 56.449219 C 16.4375 62.222656 16.324219 68.316406 16.390625 74.285156 C 16.398438 75.007812 16.207031 75.875 16.6875 76.492188 C 17.789062 76.488281 18.628906 75.6875 19.375 75.058594 C 21.714844 73.078125 23.238281 70.359375 23.492188 66.410156 C 23.832031 61.109375 22.722656 53.917969 24.269531 49.707031 C 25.398438 46.636719 27.660156 44.328125 30.65625 43.148438 C 32.1875 42.542969 33.9375 42.363281 35.90625 41.894531 C 35.753906 41.132812 34.90625 40.929688 34.355469 40.582031 Z M 65.214844 73.6875 C 66.210938 72.628906 67.09375 71.324219 67.542969 69.8125 C 68.320312 67.195312 68.023438 63.472656 68.023438 60.085938 C 68.019531 48.257812 67.964844 37.140625 67.964844 25.371094 C 67.960938 23.140625 67.839844 20.828125 67.902344 18.453125 C 67.925781 17.6875 67.902344 16.601562 67.902344 15.113281 C 67.902344 14.289062 68.164062 12.019531 67.484375 12.007812 C 66.800781 12 65.414062 13.144531 64.917969 13.5625 C 62.980469 15.1875 61.398438 17.683594 61.097656 20.71875 C 60.796875 23.75 61.097656 27.335938 61.097656 30.859375 C 61.097656 34.382812 61.324219 37.984375 61.097656 41.121094 C 60.722656 46.363281 57.46875 49.796875 53.277344 51.140625 C 51.914062 51.578125 50.390625 51.570312 48.683594 51.914062 C 48.769531 52.683594 49.566406 52.742188 49.996094 53.167969 C 53.714844 55.667969 57.921875 57.371094 59.964844 61.519531 C 61.34375 64.328125 61.15625 68.398438 61.15625 72.496094 C 61.15625 73.753906 60.957031 75.097656 61.515625 76.132812 C 62.992188 75.871094 64.214844 74.753906 65.214844 73.6875 Z M 65.214844 73.6875 "/></g></g><mask id="36ca746326"><g filter="url(#cf4ade92a9)"><rect x="0" width="375" y="0" height="194.87999" style="fill:#000000;fill-opacity:0.17;stroke:none;"/></g></mask></g><g clip-rule="nonzero" clip-path="url(#3f7e5a5059)"><path style=" stroke:none;fill-rule:evenodd;fill:#8c52ff;fill-opacity:1;" d="M 58.867188 88.742188 C 60.15625 88.757812 61.203125 87.925781 62.042969 87.246094 C 62.902344 86.550781 63.667969 85.636719 64.257812 84.730469 C 66.820312 80.796875 65.960938 73.925781 65.996094 67.605469 C 66.011719 64.496094 65.832031 61.355469 66.292969 58.5625 C 67.09375 53.742188 70.84375 49.742188 75.875 49.15625 C 78.96875 48.800781 81.398438 49.675781 83.480469 50.835938 C 85.515625 51.96875 87.308594 53.324219 89.230469 54.546875 C 91.566406 55.898438 93.574219 57.121094 95.757812 58.5 C 97.871094 59.835938 99.960938 61.085938 101.445312 63.230469 C 102.945312 65.394531 103.421875 68.140625 103.421875 71.675781 C 103.421875 88.621094 103.453125 106.527344 103.542969 122.820312 C 103.578125 129.328125 99.699219 133.339844 94.257812 134.378906 C 90.953125 135.007812 88.039062 133.859375 85.9375 132.640625 C 83.59375 131.285156 81.484375 129.890625 79.46875 128.6875 C 77.332031 127.417969 75.265625 126.097656 73 124.734375 C 69.613281 122.695312 66.957031 120.457031 66.234375 115.875 C 65.996094 114.367188 66.054688 112.703125 66.054688 110.84375 C 66.054688 107.488281 66.03125 104.03125 65.875 100.601562 C 65.132812 100.488281 64.464844 100.976562 63.957031 101.320312 C 61.226562 103.171875 59.339844 105.890625 58.867188 110.003906 C 58.683594 111.625 58.90625 113.4375 58.867188 115.394531 C 58.792969 119.109375 59.160156 122.78125 58.566406 125.753906 C 57.980469 128.691406 56.507812 130.878906 54.316406 132.523438 C 52.257812 134.066406 49.027344 135.222656 45.691406 134.675781 C 44.066406 134.410156 42.820312 133.878906 41.621094 133.242188 C 40.4375 132.609375 39.4375 131.785156 38.265625 131.082031 C 35.992188 129.714844 33.632812 128.453125 31.320312 127.011719 C 26.816406 124.199219 21.546875 122.113281 21.019531 115.332031 C 20.878906 113.546875 21.054688 111.753906 21.019531 109.941406 C 20.769531 96.972656 20.902344 84.511719 20.898438 71.738281 C 20.898438 68.015625 21 64.417969 20.839844 61.015625 C 20.667969 57.359375 21.847656 54.808594 23.59375 52.75 C 25.296875 50.753906 27.835938 49.226562 30.898438 48.859375 C 33.488281 48.550781 36.199219 49.371094 37.847656 50.414062 C 42.257812 53.210938 46.519531 55.835938 50.902344 58.621094 C 51.765625 59.167969 52.699219 59.667969 53.535156 60.238281 C 57.222656 62.753906 58.683594 66.238281 58.6875 72.09375 C 58.6875 74.90625 58.6875 77.75 58.6875 80.597656 C 58.6875 83.324219 58.558594 86.085938 58.867188 88.742188 Z M 54.4375 88.324219 C 52.628906 87.175781 50.824219 86.011719 49.046875 84.910156 C 46.289062 82.984375 44.105469 80.558594 43.597656 76.464844 C 43.28125 73.921875 43.34375 70.722656 43.476562 67.78125 C 43.566406 65.800781 43.4375 63.15625 43.414062 61.136719 C 43.40625 60.355469 43.453125 59.210938 42.519531 59.578125 C 39.898438 60.605469 37.527344 63.289062 36.648438 66.285156 C 36.0625 68.28125 36.328125 70.707031 36.347656 73.054688 C 36.378906 76.125 36.265625 79.273438 36.230469 82.394531 C 36.214844 83.5625 36.347656 84.730469 36.347656 85.929688 C 36.347656 92.136719 36.238281 98.171875 36.347656 104.253906 C 36.457031 110.050781 36.34375 116.171875 36.410156 122.160156 C 36.417969 122.886719 36.226562 123.757812 36.707031 124.375 C 37.8125 124.375 38.660156 123.566406 39.402344 122.9375 C 41.753906 120.953125 43.28125 118.21875 43.535156 114.253906 C 43.875 108.933594 42.765625 101.714844 44.316406 97.488281 C 45.449219 94.402344 47.71875 92.085938 50.722656 90.898438 C 52.257812 90.292969 54.015625 90.113281 55.992188 89.640625 C 55.839844 88.878906 54.984375 88.675781 54.4375 88.324219 Z M 85.398438 121.5625 C 86.394531 120.496094 87.28125 119.191406 87.730469 117.671875 C 88.507812 115.042969 88.210938 111.308594 88.210938 107.90625 C 88.210938 96.03125 88.152344 84.871094 88.152344 73.054688 C 88.152344 70.816406 88.027344 68.492188 88.089844 66.109375 C 88.113281 65.34375 88.089844 64.25 88.089844 62.753906 C 88.089844 61.929688 88.351562 59.652344 87.671875 59.640625 C 86.984375 59.628906 85.59375 60.78125 85.097656 61.199219 C 83.152344 62.832031 81.566406 65.335938 81.265625 68.382812 C 80.964844 71.425781 81.265625 75.027344 81.265625 78.566406 C 81.265625 82.101562 81.492188 85.71875 81.265625 88.867188 C 80.890625 94.132812 77.625 97.578125 73.421875 98.925781 C 72.050781 99.367188 70.523438 99.355469 68.808594 99.703125 C 68.898438 100.472656 69.695312 100.53125 70.125 100.960938 C 73.855469 103.472656 78.078125 105.179688 80.128906 109.34375 C 81.511719 112.164062 81.324219 116.253906 81.324219 120.363281 C 81.324219 121.625 81.125 122.976562 81.683594 124.015625 C 83.164062 123.753906 84.394531 122.632812 85.398438 121.5625 Z M 85.398438 121.5625 "/></g></g></svg>