<svg xmlns="http://www.w3.org/2000/svg" xmlns:xlink="http://www.w3.org/1999/xlink" width="500" zoomAndPan="magnify" viewBox="0 0 375 194.87999" height="250" preserveAspectRatio="xMidYMid meet" version="1.2"><defs><clipPath id="8281150318"><rect x="0" width="245" y="0" height="49"/></clipPath><clipPath id="cdf0a1b39d"><rect x="0" width="111" y="0" height="12"/></clipPath><clipPath id="a5e5b02a1d"><path d="M 20.925781 51.320312 L 103.375 51.320312 L 103.375 137.515625 L 20.925781 137.515625 Z M 20.925781 51.320312 "/></clipPath><filter x="0%" y="0%" width="100%" filterUnits="objectBoundingBox" id="9268b2f77b" height="100%"><feColorMatrix values="0 0 0 0 1 0 0 0 0 1 0 0 0 0 1 0 0 0 1 0" type="matrix" in="SourceGraphic"/></filter><clipPath id="48b181bab9"><path d="M 0.855469 0.648438 L 83.304688 0.648438 L 83.304688 86.824219 L 0.855469 86.824219 Z M 0.855469 0.648438 "/></clipPath><clipPath id="fdc936ded8"><rect x="0" width="85" y="0" height="87"/></clipPath><clipPath id="d212c6a5f5"><path d="M 20.824219 51.210938 L 103.273438 51.210938 L 103.273438 137.410156 L 20.824219 137.410156 Z M 20.824219 51.210938 "/></clipPath></defs><g id="7d97de4ac5"><g transform="matrix(1,0,0,1,112,73)"><g clip-path="url(#8281150318)"><g style="fill:#ffffff;fill-opacity:1;"><g transform="translate(1.052209, 37.237993)"><path style="stroke:none" d="M 10.28125 0 L 4.046875 0 L 4.046875 -34 L 10.28125 -34 L 10.28125 -19.90625 L 27.421875 -19.90625 L 27.421875 -34 L 33.671875 -34 L 33.671875 0 L 27.421875 0 L 27.421875 -14.34375 L 10.28125 -14.34375 Z M 10.28125 0 "/></g><g transform="translate(38.780098, 37.237993)"><path style="stroke:none" d="M 13.828125 0.78125 C 12.085938 0.78125 10.476562 0.429688 9 -0.265625 C 7.53125 -0.972656 6.25 -1.953125 5.15625 -3.203125 C 4.070312 -4.453125 3.226562 -5.898438 2.625 -7.546875 C 2.019531 -9.203125 1.71875 -10.96875 1.71875 -12.84375 C 1.71875 -14.726562 2.019531 -16.488281 2.625 -18.125 C 3.238281 -19.769531 4.09375 -21.21875 5.1875 -22.46875 C 6.28125 -23.71875 7.554688 -24.695312 9.015625 -25.40625 C 10.484375 -26.125 12.078125 -26.484375 13.796875 -26.484375 C 15.898438 -26.484375 17.765625 -26.023438 19.390625 -25.109375 C 21.023438 -24.203125 22.253906 -22.945312 23.078125 -21.34375 L 23.078125 -25.703125 L 28.828125 -25.703125 L 28.828125 0 L 23.078125 0 L 23.078125 -4.328125 C 22.242188 -2.722656 21.015625 -1.46875 19.390625 -0.5625 C 17.765625 0.332031 15.910156 0.78125 13.828125 0.78125 Z M 15.28125 -4.828125 C 16.320312 -4.828125 17.300781 -5.03125 18.21875 -5.4375 C 19.132812 -5.84375 19.9375 -6.40625 20.625 -7.125 C 21.320312 -7.851562 21.863281 -8.707031 22.25 -9.6875 C 22.632812 -10.664062 22.828125 -11.71875 22.828125 -12.84375 C 22.828125 -13.96875 22.628906 -15.015625 22.234375 -15.984375 C 21.847656 -16.960938 21.3125 -17.816406 20.625 -18.546875 C 19.9375 -19.285156 19.132812 -19.859375 18.21875 -20.265625 C 17.300781 -20.671875 16.320312 -20.875 15.28125 -20.875 C 13.894531 -20.875 12.628906 -20.539062 11.484375 -19.875 C 10.347656 -19.207031 9.4375 -18.273438 8.75 -17.078125 C 8.0625 -15.878906 7.71875 -14.46875 7.71875 -12.84375 C 7.71875 -11.175781 8.0625 -9.742188 8.75 -8.546875 C 9.445312 -7.347656 10.367188 -6.425781 11.515625 -5.78125 C 12.671875 -5.144531 13.925781 -4.828125 15.28125 -4.828125 Z M 15.28125 -4.828125 "/></g><g transform="translate(71.157577, 37.237993)"><path style="stroke:none" d="M 9.59375 0 L 3.546875 0 L 3.546875 -25.703125 L 9.34375 -25.703125 L 9.34375 -21.046875 C 9.945312 -22.460938 10.832031 -23.59375 12 -24.4375 C 13.164062 -25.28125 14.582031 -25.703125 16.25 -25.703125 L 19 -25.703125 L 19 -20.5 L 16.578125 -20.5 C 15.191406 -20.5 13.972656 -20.164062 12.921875 -19.5 C 11.867188 -18.832031 11.050781 -17.863281 10.46875 -16.59375 C 9.882812 -15.332031 9.59375 -13.785156 9.59375 -11.953125 Z M 9.59375 0 "/></g><g transform="translate(90.934091, 37.237993)"><path style="stroke:none" d="M 15.09375 0.78125 C 13.382812 0.78125 11.796875 0.539062 10.328125 0.0625 C 8.859375 -0.414062 7.570312 -1.160156 6.46875 -2.171875 C 5.375 -3.191406 4.519531 -4.507812 3.90625 -6.125 C 3.300781 -7.738281 3 -9.6875 3 -11.96875 L 3 -25.703125 L 9 -25.703125 L 9 -12.15625 C 9 -9.78125 9.503906 -7.96875 10.515625 -6.71875 C 11.535156 -5.46875 13.054688 -4.84375 15.078125 -4.84375 C 17.109375 -4.84375 18.625 -5.472656 19.625 -6.734375 C 20.625 -7.992188 21.125 -9.800781 21.125 -12.15625 L 21.125 -25.703125 L 27.15625 -25.703125 L 27.15625 -11.96875 C 27.15625 -9.6875 26.847656 -7.738281 26.234375 -6.125 C 25.628906 -4.507812 24.773438 -3.191406 23.671875 -2.171875 C 22.578125 -1.160156 21.300781 -0.414062 19.84375 0.0625 C 18.382812 0.539062 16.800781 0.78125 15.09375 0.78125 Z M 15.09375 0.78125 "/></g><g transform="translate(121.086401, 37.237993)"><path style="stroke:none" d="M 15 0.78125 C 13.082031 0.78125 11.316406 0.425781 9.703125 -0.28125 C 8.085938 -0.988281 6.679688 -1.96875 5.484375 -3.21875 C 4.296875 -4.46875 3.367188 -5.914062 2.703125 -7.5625 C 2.046875 -9.21875 1.71875 -10.976562 1.71875 -12.84375 C 1.71875 -14.71875 2.046875 -16.472656 2.703125 -18.109375 C 3.367188 -19.753906 4.296875 -21.203125 5.484375 -22.453125 C 6.679688 -23.710938 8.085938 -24.695312 9.703125 -25.40625 C 11.316406 -26.125 13.082031 -26.484375 15 -26.484375 C 17.21875 -26.484375 19.195312 -26.050781 20.9375 -25.1875 C 22.675781 -24.332031 24.132812 -23.160156 25.3125 -21.671875 C 26.488281 -20.191406 27.316406 -18.507812 27.796875 -16.625 L 21.625 -16.625 C 21.0625 -18.0625 20.1875 -19.125 19 -19.8125 C 17.8125 -20.5 16.488281 -20.84375 15.03125 -20.84375 C 14.09375 -20.84375 13.191406 -20.664062 12.328125 -20.3125 C 11.460938 -19.957031 10.679688 -19.4375 9.984375 -18.75 C 9.296875 -18.0625 8.742188 -17.222656 8.328125 -16.234375 C 7.921875 -15.242188 7.71875 -14.113281 7.71875 -12.84375 C 7.71875 -11.582031 7.921875 -10.453125 8.328125 -9.453125 C 8.742188 -8.460938 9.296875 -7.625 9.984375 -6.9375 C 10.679688 -6.25 11.46875 -5.722656 12.34375 -5.359375 C 13.21875 -5.003906 14.113281 -4.828125 15.03125 -4.828125 C 16.488281 -4.828125 17.8125 -5.1875 19 -5.90625 C 20.1875 -6.632812 21.0625 -7.800781 21.625 -9.40625 L 27.78125 -9.40625 C 27.34375 -7.414062 26.53125 -5.65625 25.34375 -4.125 C 24.164062 -2.59375 22.695312 -1.390625 20.9375 -0.515625 C 19.175781 0.347656 17.195312 0.78125 15 0.78125 Z M 15 0.78125 "/></g><g transform="translate(150.213631, 37.237993)"><path style="stroke:none" d="M 15.21875 0.78125 C 13.269531 0.78125 11.46875 0.429688 9.8125 -0.265625 C 8.164062 -0.972656 6.738281 -1.953125 5.53125 -3.203125 C 4.320312 -4.453125 3.382812 -5.898438 2.71875 -7.546875 C 2.050781 -9.203125 1.71875 -10.96875 1.71875 -12.84375 C 1.71875 -14.726562 2.050781 -16.488281 2.71875 -18.125 C 3.382812 -19.769531 4.320312 -21.21875 5.53125 -22.46875 C 6.738281 -23.71875 8.164062 -24.695312 9.8125 -25.40625 C 11.46875 -26.125 13.28125 -26.484375 15.25 -26.484375 C 17.226562 -26.484375 19.039062 -26.125 20.6875 -25.40625 C 22.34375 -24.695312 23.78125 -23.71875 25 -22.46875 C 26.21875 -21.21875 27.160156 -19.769531 27.828125 -18.125 C 28.492188 -16.488281 28.828125 -14.726562 28.828125 -12.84375 C 28.828125 -10.945312 28.492188 -9.175781 27.828125 -7.53125 C 27.160156 -5.894531 26.21875 -4.453125 25 -3.203125 C 23.78125 -1.953125 22.34375 -0.972656 20.6875 -0.265625 C 19.03125 0.429688 17.207031 0.78125 15.21875 0.78125 Z M 15.28125 -4.84375 C 16.726562 -4.84375 18.015625 -5.1875 19.140625 -5.875 C 20.273438 -6.570312 21.171875 -7.519531 21.828125 -8.71875 C 22.492188 -9.925781 22.828125 -11.300781 22.828125 -12.84375 C 22.828125 -14.394531 22.492188 -15.773438 21.828125 -16.984375 C 21.171875 -18.191406 20.273438 -19.140625 19.140625 -19.828125 C 18.015625 -20.523438 16.726562 -20.875 15.28125 -20.875 C 13.84375 -20.875 12.550781 -20.523438 11.40625 -19.828125 C 10.269531 -19.140625 9.367188 -18.191406 8.703125 -16.984375 C 8.046875 -15.773438 7.71875 -14.394531 7.71875 -12.84375 C 7.71875 -11.300781 8.046875 -9.925781 8.703125 -8.71875 C 9.367188 -7.519531 10.269531 -6.570312 11.40625 -5.875 C 12.550781 -5.1875 13.84375 -4.84375 15.28125 -4.84375 Z M 15.28125 -4.84375 "/></g><g transform="translate(180.765971, 37.237993)"><path style="stroke:none" d="M 14.15625 0.78125 C 12.332031 0.78125 10.65625 0.429688 9.125 -0.265625 C 7.601562 -0.972656 6.289062 -1.953125 5.1875 -3.203125 C 4.09375 -4.453125 3.238281 -5.898438 2.625 -7.546875 C 2.019531 -9.203125 1.71875 -10.96875 1.71875 -12.84375 C 1.71875 -14.726562 2.015625 -16.488281 2.609375 -18.125 C 3.203125 -19.769531 4.050781 -21.21875 5.15625 -22.46875 C 6.269531 -23.71875 7.59375 -24.695312 9.125 -25.40625 C 10.65625 -26.125 12.351562 -26.484375 14.21875 -26.484375 C 15.625 -26.484375 16.894531 -26.234375 18.03125 -25.734375 C 19.175781 -25.242188 20.160156 -24.617188 20.984375 -23.859375 C 21.804688 -23.097656 22.445312 -22.3125 22.90625 -21.5 L 22.78125 -24.171875 L 22.78125 -35.203125 L 28.796875 -35.203125 L 28.796875 0 L 23.046875 0 L 23.046875 -4.328125 C 22.546875 -3.421875 21.867188 -2.582031 21.015625 -1.8125 C 20.171875 -1.039062 19.171875 -0.414062 18.015625 0.0625 C 16.867188 0.539062 15.582031 0.78125 14.15625 0.78125 Z M 15.25 -4.796875 C 16.300781 -4.796875 17.285156 -5 18.203125 -5.40625 C 19.117188 -5.820312 19.921875 -6.394531 20.609375 -7.125 C 21.304688 -7.851562 21.847656 -8.707031 22.234375 -9.6875 C 22.628906 -10.664062 22.828125 -11.71875 22.828125 -12.84375 C 22.828125 -13.976562 22.632812 -15.03125 22.25 -16 C 21.863281 -16.96875 21.320312 -17.816406 20.625 -18.546875 C 19.9375 -19.285156 19.132812 -19.859375 18.21875 -20.265625 C 17.300781 -20.671875 16.3125 -20.875 15.25 -20.875 C 13.832031 -20.875 12.546875 -20.523438 11.390625 -19.828125 C 10.242188 -19.140625 9.335938 -18.195312 8.671875 -17 C 8.003906 -15.800781 7.671875 -14.414062 7.671875 -12.84375 C 7.671875 -11.332031 7.992188 -9.96875 8.640625 -8.75 C 9.296875 -7.53125 10.191406 -6.566406 11.328125 -5.859375 C 12.472656 -5.148438 13.78125 -4.796875 15.25 -4.796875 Z M 15.25 -4.796875 "/></g><g transform="translate(213.093446, 37.237993)"><path style="stroke:none" d="M 28 -13.296875 C 28 -12.984375 27.988281 -12.679688 27.96875 -12.390625 C 27.957031 -12.109375 27.925781 -11.726562 27.875 -11.25 L 7.796875 -11.25 C 8.015625 -9.851562 8.460938 -8.660156 9.140625 -7.671875 C 9.816406 -6.691406 10.65625 -5.9375 11.65625 -5.40625 C 12.65625 -4.882812 13.742188 -4.625 14.921875 -4.625 C 16.453125 -4.625 17.691406 -4.925781 18.640625 -5.53125 C 19.597656 -6.144531 20.289062 -6.992188 20.71875 -8.078125 L 27.328125 -8.078125 C 27.015625 -6.921875 26.492188 -5.8125 25.765625 -4.75 C 25.035156 -3.6875 24.144531 -2.738281 23.09375 -1.90625 C 22.050781 -1.082031 20.847656 -0.429688 19.484375 0.046875 C 18.128906 0.535156 16.648438 0.78125 15.046875 0.78125 C 13.117188 0.78125 11.34375 0.425781 9.71875 -0.28125 C 8.09375 -0.988281 6.679688 -1.96875 5.484375 -3.21875 C 4.296875 -4.46875 3.367188 -5.914062 2.703125 -7.5625 C 2.046875 -9.21875 1.71875 -10.976562 1.71875 -12.84375 C 1.71875 -14.726562 2.046875 -16.488281 2.703125 -18.125 C 3.367188 -19.769531 4.296875 -21.21875 5.484375 -22.46875 C 6.679688 -23.71875 8.09375 -24.695312 9.71875 -25.40625 C 11.34375 -26.125 13.117188 -26.484375 15.046875 -26.484375 C 16.984375 -26.484375 18.742188 -26.128906 20.328125 -25.421875 C 21.921875 -24.722656 23.289062 -23.757812 24.4375 -22.53125 C 25.582031 -21.3125 26.460938 -19.910156 27.078125 -18.328125 C 27.691406 -16.742188 28 -15.066406 28 -13.296875 Z M 8.046875 -15.921875 L 21.828125 -15.921875 C 21.742188 -16.890625 21.382812 -17.769531 20.75 -18.5625 C 20.113281 -19.351562 19.296875 -19.988281 18.296875 -20.46875 C 17.296875 -20.957031 16.207031 -21.203125 15.03125 -21.203125 C 14.007812 -21.203125 13.03125 -21.015625 12.09375 -20.640625 C 11.164062 -20.265625 10.347656 -19.6875 9.640625 -18.90625 C 8.929688 -18.132812 8.398438 -17.140625 8.046875 -15.921875 Z M 8.046875 -15.921875 "/></g></g></g></g><g transform="matrix(1,0,0,1,179,116)"><g clip-path="url(#cdf0a1b39d)"><g style="fill:#8c52ff;fill-opacity:1;"><g transform="translate(1.085783, 8.914412)"><path style="stroke:none" d="M 2.578125 -5.703125 C 3.210938 -5.703125 3.695312 -5.539062 4.03125 -5.21875 C 4.375 -4.90625 4.578125 -4.476562 4.640625 -3.9375 L 3.5 -3.9375 C 3.46875 -4.226562 3.367188 -4.453125 3.203125 -4.609375 C 3.046875 -4.773438 2.820312 -4.859375 2.53125 -4.859375 C 2.300781 -4.859375 2.113281 -4.800781 1.96875 -4.6875 C 1.820312 -4.582031 1.75 -4.421875 1.75 -4.203125 C 1.75 -3.960938 1.835938 -3.773438 2.015625 -3.640625 C 2.191406 -3.503906 2.5 -3.382812 2.9375 -3.28125 C 3.550781 -3.144531 4 -2.929688 4.28125 -2.640625 C 4.570312 -2.359375 4.71875 -1.988281 4.71875 -1.53125 C 4.71875 -1.03125 4.515625 -0.628906 4.109375 -0.328125 C 3.710938 -0.0351562 3.226562 0.109375 2.65625 0.109375 C 1.976562 0.109375 1.4375 -0.0351562 1.03125 -0.328125 C 0.625 -0.628906 0.394531 -1.070312 0.34375 -1.65625 L 1.484375 -1.65625 C 1.535156 -1.351562 1.664062 -1.117188 1.875 -0.953125 C 2.09375 -0.796875 2.347656 -0.71875 2.640625 -0.71875 C 2.898438 -0.71875 3.113281 -0.78125 3.28125 -0.90625 C 3.457031 -1.039062 3.546875 -1.210938 3.546875 -1.421875 C 3.546875 -1.660156 3.460938 -1.851562 3.296875 -2 C 3.128906 -2.144531 2.84375 -2.265625 2.4375 -2.359375 C 1.8125 -2.515625 1.34375 -2.71875 1.03125 -2.96875 C 0.726562 -3.21875 0.578125 -3.582031 0.578125 -4.0625 C 0.578125 -4.5625 0.769531 -4.957031 1.15625 -5.25 C 1.539062 -5.550781 2.015625 -5.703125 2.578125 -5.703125 Z M 2.578125 -5.703125 "/></g></g><g style="fill:#8c52ff;fill-opacity:1;"><g transform="translate(6.009047, 8.914412)"><path style="stroke:none" d="M 3.171875 -5.703125 C 4.023438 -5.703125 4.695312 -5.4375 5.1875 -4.90625 C 5.6875 -4.382812 5.9375 -3.679688 5.9375 -2.796875 C 5.9375 -1.910156 5.6875 -1.203125 5.1875 -0.671875 C 4.695312 -0.148438 4.023438 0.109375 3.171875 0.109375 C 2.316406 0.109375 1.640625 -0.148438 1.140625 -0.671875 C 0.648438 -1.203125 0.40625 -1.910156 0.40625 -2.796875 C 0.40625 -3.679688 0.648438 -4.382812 1.140625 -4.90625 C 1.640625 -5.4375 2.316406 -5.703125 3.171875 -5.703125 Z M 2 -1.265625 C 2.28125 -0.898438 2.671875 -0.71875 3.171875 -0.71875 C 3.671875 -0.71875 4.0625 -0.898438 4.34375 -1.265625 C 4.625 -1.640625 4.765625 -2.148438 4.765625 -2.796875 C 4.765625 -3.441406 4.625 -3.945312 4.34375 -4.3125 C 4.0625 -4.675781 3.671875 -4.859375 3.171875 -4.859375 C 2.671875 -4.859375 2.28125 -4.675781 2 -4.3125 C 1.71875 -3.945312 1.578125 -3.4375 1.578125 -2.78125 C 1.578125 -2.132812 1.71875 -1.628906 2 -1.265625 Z M 2 -1.265625 "/></g></g><g style="fill:#8c52ff;fill-opacity:1;"><g transform="translate(12.203618, 8.914412)"><path style="stroke:none" d="M 4.75 -0.9375 L 4.75 0 L 0.71875 0 L 0.71875 -5.578125 L 1.84375 -5.578125 L 1.84375 -0.9375 Z M 4.75 -0.9375 "/></g></g><g style="fill:#8c52ff;fill-opacity:1;"><g transform="translate(17.094489, 8.914412)"><path style="stroke:none" d="M 5.25 -5.578125 L 5.25 -2.28125 C 5.25 -2.007812 5.242188 -1.789062 5.234375 -1.625 C 5.203125 -1.113281 5 -0.695312 4.625 -0.375 C 4.25 -0.0507812 3.691406 0.109375 2.953125 0.109375 C 2.210938 0.109375 1.65625 -0.0507812 1.28125 -0.375 C 0.90625 -0.695312 0.695312 -1.113281 0.65625 -1.625 C 0.644531 -1.789062 0.640625 -2.007812 0.640625 -2.28125 L 0.640625 -5.578125 L 1.75 -5.578125 L 1.75 -2.15625 C 1.75 -1.96875 1.753906 -1.832031 1.765625 -1.75 C 1.796875 -1.425781 1.910156 -1.171875 2.109375 -0.984375 C 2.304688 -0.804688 2.585938 -0.71875 2.953125 -0.71875 C 3.316406 -0.71875 3.597656 -0.804688 3.796875 -0.984375 C 3.992188 -1.171875 4.101562 -1.425781 4.125 -1.75 C 4.132812 -1.832031 4.140625 -1.96875 4.140625 -2.15625 L 4.140625 -5.578125 Z M 5.25 -5.578125 "/></g></g><g style="fill:#8c52ff;fill-opacity:1;"><g transform="translate(22.778914, 8.914412)"><path style="stroke:none" d="M 4.390625 -1.9375 L 5.5 -1.9375 L 5.5 -1.859375 C 5.4375 -1.273438 5.195312 -0.804688 4.78125 -0.453125 C 4.375 -0.0976562 3.835938 0.0859375 3.171875 0.109375 L 3.0625 0.328125 C 3.539062 0.390625 3.78125 0.609375 3.78125 0.984375 C 3.78125 1.222656 3.664062 1.398438 3.4375 1.515625 C 3.21875 1.640625 2.929688 1.703125 2.578125 1.703125 C 2.410156 1.703125 2.265625 1.679688 2.140625 1.640625 L 2.140625 1.171875 C 2.285156 1.210938 2.4375 1.234375 2.59375 1.234375 C 2.914062 1.234375 3.078125 1.144531 3.078125 0.96875 C 3.078125 0.738281 2.820312 0.644531 2.3125 0.6875 L 2.609375 0.078125 C 1.941406 -0.015625 1.40625 -0.3125 1 -0.8125 C 0.601562 -1.3125 0.40625 -1.960938 0.40625 -2.765625 C 0.40625 -3.660156 0.660156 -4.375 1.171875 -4.90625 C 1.679688 -5.4375 2.328125 -5.703125 3.109375 -5.703125 C 3.835938 -5.703125 4.40625 -5.523438 4.8125 -5.171875 C 5.226562 -4.816406 5.46875 -4.347656 5.53125 -3.765625 L 5.53125 -3.6875 L 4.421875 -3.6875 L 4.40625 -3.765625 C 4.257812 -4.492188 3.820312 -4.859375 3.09375 -4.859375 C 2.644531 -4.859375 2.28125 -4.675781 2 -4.3125 C 1.726562 -3.945312 1.59375 -3.453125 1.59375 -2.828125 C 1.59375 -2.148438 1.726562 -1.628906 2 -1.265625 C 2.28125 -0.898438 2.640625 -0.71875 3.078125 -0.71875 C 3.441406 -0.71875 3.726562 -0.816406 3.9375 -1.015625 C 4.15625 -1.210938 4.300781 -1.492188 4.375 -1.859375 Z M 4.390625 -1.9375 "/></g></g><g style="fill:#8c52ff;fill-opacity:1;"><g transform="translate(28.592899, 8.914412)"><path style="stroke:none" d="M 2.75 -6.25 C 2.664062 -6.25 2.625 -6.175781 2.625 -6.03125 L 2.0625 -6.03125 C 2.0625 -6.332031 2.109375 -6.550781 2.203125 -6.6875 C 2.296875 -6.820312 2.441406 -6.890625 2.640625 -6.890625 C 2.828125 -6.890625 3.023438 -6.847656 3.234375 -6.765625 C 3.398438 -6.691406 3.523438 -6.65625 3.609375 -6.65625 C 3.679688 -6.65625 3.71875 -6.722656 3.71875 -6.859375 L 4.296875 -6.859375 C 4.296875 -6.554688 4.242188 -6.335938 4.140625 -6.203125 C 4.046875 -6.066406 3.898438 -6 3.703125 -6 C 3.546875 -6 3.347656 -6.046875 3.109375 -6.140625 C 2.921875 -6.210938 2.800781 -6.25 2.75 -6.25 Z M 3.171875 -5.703125 C 4.023438 -5.703125 4.695312 -5.4375 5.1875 -4.90625 C 5.6875 -4.382812 5.9375 -3.679688 5.9375 -2.796875 C 5.9375 -1.910156 5.6875 -1.203125 5.1875 -0.671875 C 4.695312 -0.148438 4.023438 0.109375 3.171875 0.109375 C 2.316406 0.109375 1.640625 -0.148438 1.140625 -0.671875 C 0.648438 -1.203125 0.40625 -1.910156 0.40625 -2.796875 C 0.40625 -3.679688 0.648438 -4.382812 1.140625 -4.90625 C 1.640625 -5.4375 2.316406 -5.703125 3.171875 -5.703125 Z M 2 -1.265625 C 2.28125 -0.898438 2.671875 -0.71875 3.171875 -0.71875 C 3.671875 -0.71875 4.0625 -0.898438 4.34375 -1.265625 C 4.625 -1.640625 4.765625 -2.148438 4.765625 -2.796875 C 4.765625 -3.441406 4.625 -3.945312 4.34375 -4.3125 C 4.0625 -4.675781 3.671875 -4.859375 3.171875 -4.859375 C 2.671875 -4.859375 2.28125 -4.675781 2 -4.3125 C 1.71875 -3.945312 1.578125 -3.4375 1.578125 -2.78125 C 1.578125 -2.132812 1.71875 -1.628906 2 -1.265625 Z M 2 -1.265625 "/></g></g><g style="fill:#8c52ff;fill-opacity:1;"><g transform="translate(34.78747, 8.914412)"><path style="stroke:none" d="M 4.75 -0.875 L 4.75 0 L 0.71875 0 L 0.71875 -5.578125 L 4.671875 -5.578125 L 4.671875 -4.703125 L 1.84375 -4.703125 L 1.84375 -3.234375 L 4.46875 -3.234375 L 4.46875 -2.359375 L 1.84375 -2.359375 L 1.84375 -0.875 Z M 4.75 -0.875 "/></g></g><g style="fill:#8c52ff;fill-opacity:1;"><g transform="translate(39.775519, 8.914412)"><path style="stroke:none" d="M 2.578125 -5.703125 C 3.210938 -5.703125 3.695312 -5.539062 4.03125 -5.21875 C 4.375 -4.90625 4.578125 -4.476562 4.640625 -3.9375 L 3.5 -3.9375 C 3.46875 -4.226562 3.367188 -4.453125 3.203125 -4.609375 C 3.046875 -4.773438 2.820312 -4.859375 2.53125 -4.859375 C 2.300781 -4.859375 2.113281 -4.800781 1.96875 -4.6875 C 1.820312 -4.582031 1.75 -4.421875 1.75 -4.203125 C 1.75 -3.960938 1.835938 -3.773438 2.015625 -3.640625 C 2.191406 -3.503906 2.5 -3.382812 2.9375 -3.28125 C 3.550781 -3.144531 4 -2.929688 4.28125 -2.640625 C 4.570312 -2.359375 4.71875 -1.988281 4.71875 -1.53125 C 4.71875 -1.03125 4.515625 -0.628906 4.109375 -0.328125 C 3.710938 -0.0351562 3.226562 0.109375 2.65625 0.109375 C 1.976562 0.109375 1.4375 -0.0351562 1.03125 -0.328125 C 0.625 -0.628906 0.394531 -1.070312 0.34375 -1.65625 L 1.484375 -1.65625 C 1.535156 -1.351562 1.664062 -1.117188 1.875 -0.953125 C 2.09375 -0.796875 2.347656 -0.71875 2.640625 -0.71875 C 2.898438 -0.71875 3.113281 -0.78125 3.28125 -0.90625 C 3.457031 -1.039062 3.546875 -1.210938 3.546875 -1.421875 C 3.546875 -1.660156 3.460938 -1.851562 3.296875 -2 C 3.128906 -2.144531 2.84375 -2.265625 2.4375 -2.359375 C 1.8125 -2.515625 1.34375 -2.71875 1.03125 -2.96875 C 0.726562 -3.21875 0.578125 -3.582031 0.578125 -4.0625 C 0.578125 -4.5625 0.769531 -4.957031 1.15625 -5.25 C 1.539062 -5.550781 2.015625 -5.703125 2.578125 -5.703125 Z M 2.578125 -5.703125 "/></g></g><g style="fill:#8c52ff;fill-opacity:1;"><g transform="translate(44.698783, 8.914412)"><path style="stroke:none" d=""/></g></g><g style="fill:#8c52ff;fill-opacity:1;"><g transform="translate(46.269694, 8.914412)"><path style="stroke:none" d="M 5.09375 -4.703125 L 3.203125 -4.703125 L 3.203125 0 L 2.078125 0 L 2.078125 -4.703125 L 0.1875 -4.703125 L 0.1875 -5.578125 L 5.09375 -5.578125 Z M 5.09375 -4.703125 "/></g></g><g style="fill:#8c52ff;fill-opacity:1;"><g transform="translate(51.314425, 8.914412)"><path style="stroke:none" d="M 4.75 -0.875 L 4.75 0 L 0.71875 0 L 0.71875 -5.578125 L 4.671875 -5.578125 L 4.671875 -4.703125 L 1.84375 -4.703125 L 1.84375 -3.234375 L 4.46875 -3.234375 L 4.46875 -2.359375 L 1.84375 -2.359375 L 1.84375 -0.875 Z M 4.75 -0.875 "/></g></g><g style="fill:#8c52ff;fill-opacity:1;"><g transform="translate(56.302474, 8.914412)"><path style="stroke:none" d="M 3.109375 -5.703125 C 3.835938 -5.703125 4.40625 -5.523438 4.8125 -5.171875 C 5.226562 -4.816406 5.46875 -4.347656 5.53125 -3.765625 L 5.53125 -3.6875 L 4.421875 -3.6875 L 4.40625 -3.765625 C 4.257812 -4.492188 3.820312 -4.859375 3.09375 -4.859375 C 2.644531 -4.859375 2.28125 -4.675781 2 -4.3125 C 1.726562 -3.945312 1.59375 -3.453125 1.59375 -2.828125 C 1.59375 -2.148438 1.726562 -1.628906 2 -1.265625 C 2.28125 -0.898438 2.640625 -0.71875 3.078125 -0.71875 C 3.441406 -0.71875 3.726562 -0.816406 3.9375 -1.015625 C 4.15625 -1.210938 4.300781 -1.492188 4.375 -1.859375 L 4.390625 -1.9375 L 5.5 -1.9375 L 5.5 -1.859375 C 5.4375 -1.253906 5.1875 -0.773438 4.75 -0.421875 C 4.3125 -0.0664062 3.738281 0.109375 3.03125 0.109375 C 2.25 0.109375 1.613281 -0.144531 1.125 -0.65625 C 0.644531 -1.175781 0.40625 -1.878906 0.40625 -2.765625 C 0.40625 -3.660156 0.660156 -4.375 1.171875 -4.90625 C 1.679688 -5.4375 2.328125 -5.703125 3.109375 -5.703125 Z M 3.109375 -5.703125 "/></g></g><g style="fill:#8c52ff;fill-opacity:1;"><g transform="translate(62.116458, 8.914412)"><path style="stroke:none" d="M 5.625 0 L 4.09375 0 L 1.796875 -4.234375 C 1.828125 -3.734375 1.84375 -3.164062 1.84375 -2.53125 L 1.84375 0 L 0.71875 0 L 0.71875 -5.578125 L 2.203125 -5.578125 L 4.546875 -1.265625 C 4.523438 -1.765625 4.515625 -2.347656 4.515625 -3.015625 L 4.515625 -5.578125 L 5.609375 -5.578125 Z M 5.625 0 "/></g></g><g style="fill:#8c52ff;fill-opacity:1;"><g transform="translate(68.270544, 8.914412)"><path style="stroke:none" d="M 3.171875 -5.703125 C 4.023438 -5.703125 4.695312 -5.4375 5.1875 -4.90625 C 5.6875 -4.382812 5.9375 -3.679688 5.9375 -2.796875 C 5.9375 -1.910156 5.6875 -1.203125 5.1875 -0.671875 C 4.695312 -0.148438 4.023438 0.109375 3.171875 0.109375 C 2.316406 0.109375 1.640625 -0.148438 1.140625 -0.671875 C 0.648438 -1.203125 0.40625 -1.910156 0.40625 -2.796875 C 0.40625 -3.679688 0.648438 -4.382812 1.140625 -4.90625 C 1.640625 -5.4375 2.316406 -5.703125 3.171875 -5.703125 Z M 2 -1.265625 C 2.28125 -0.898438 2.671875 -0.71875 3.171875 -0.71875 C 3.671875 -0.71875 4.0625 -0.898438 4.34375 -1.265625 C 4.625 -1.640625 4.765625 -2.148438 4.765625 -2.796875 C 4.765625 -3.441406 4.625 -3.945312 4.34375 -4.3125 C 4.0625 -4.675781 3.671875 -4.859375 3.171875 -4.859375 C 2.671875 -4.859375 2.28125 -4.675781 2 -4.3125 C 1.71875 -3.945312 1.578125 -3.4375 1.578125 -2.78125 C 1.578125 -2.132812 1.71875 -1.628906 2 -1.265625 Z M 2 -1.265625 "/></g></g><g style="fill:#8c52ff;fill-opacity:1;"><g transform="translate(74.465114, 8.914412)"><path style="stroke:none" d="M 4.75 -0.9375 L 4.75 0 L 0.71875 0 L 0.71875 -5.578125 L 1.84375 -5.578125 L 1.84375 -0.9375 Z M 4.75 -0.9375 "/></g></g><g style="fill:#8c52ff;fill-opacity:1;"><g transform="translate(79.355986, 8.914412)"><path style="stroke:none" d="M 3.4375 -5.953125 L 2.8125 -5.953125 L 3.421875 -6.859375 L 4.421875 -6.859375 Z M 3.171875 -5.703125 C 4.023438 -5.703125 4.695312 -5.4375 5.1875 -4.90625 C 5.6875 -4.382812 5.9375 -3.679688 5.9375 -2.796875 C 5.9375 -1.910156 5.6875 -1.203125 5.1875 -0.671875 C 4.695312 -0.148438 4.023438 0.109375 3.171875 0.109375 C 2.316406 0.109375 1.640625 -0.148438 1.140625 -0.671875 C 0.648438 -1.203125 0.40625 -1.910156 0.40625 -2.796875 C 0.40625 -3.679688 0.648438 -4.382812 1.140625 -4.90625 C 1.640625 -5.4375 2.316406 -5.703125 3.171875 -5.703125 Z M 2 -1.265625 C 2.28125 -0.898438 2.671875 -0.71875 3.171875 -0.71875 C 3.671875 -0.71875 4.0625 -0.898438 4.34375 -1.265625 C 4.625 -1.640625 4.765625 -2.148438 4.765625 -2.796875 C 4.765625 -3.441406 4.625 -3.945312 4.34375 -4.3125 C 4.0625 -4.675781 3.671875 -4.859375 3.171875 -4.859375 C 2.671875 -4.859375 2.28125 -4.675781 2 -4.3125 C 1.71875 -3.945312 1.578125 -3.4375 1.578125 -2.78125 C 1.578125 -2.132812 1.71875 -1.628906 2 -1.265625 Z M 2 -1.265625 "/></g></g><g style="fill:#8c52ff;fill-opacity:1;"><g transform="translate(85.550556, 8.914412)"><path style="stroke:none" d="M 3.28125 -2.84375 L 5.53125 -2.84375 L 5.53125 0 L 4.625 0 L 4.5625 -0.90625 L 4.3125 -0.34375 C 4 -0.0390625 3.546875 0.109375 2.953125 0.109375 C 2.171875 0.109375 1.550781 -0.144531 1.09375 -0.65625 C 0.632812 -1.175781 0.40625 -1.878906 0.40625 -2.765625 C 0.40625 -3.660156 0.664062 -4.375 1.1875 -4.90625 C 1.707031 -5.4375 2.367188 -5.703125 3.171875 -5.703125 C 3.890625 -5.703125 4.453125 -5.523438 4.859375 -5.171875 C 5.273438 -4.816406 5.515625 -4.347656 5.578125 -3.765625 L 5.578125 -3.6875 L 4.46875 -3.6875 L 4.453125 -3.765625 C 4.304688 -4.492188 3.875 -4.859375 3.15625 -4.859375 C 2.6875 -4.859375 2.304688 -4.675781 2.015625 -4.3125 C 1.734375 -3.945312 1.59375 -3.453125 1.59375 -2.828125 C 1.59375 -2.148438 1.734375 -1.628906 2.015625 -1.265625 C 2.296875 -0.898438 2.660156 -0.71875 3.109375 -0.71875 C 3.472656 -0.71875 3.773438 -0.828125 4.015625 -1.046875 C 4.253906 -1.273438 4.398438 -1.582031 4.453125 -1.96875 L 3.28125 -1.96875 Z M 3.28125 -2.84375 "/></g></g><g style="fill:#8c52ff;fill-opacity:1;"><g transform="translate(91.51839, 8.914412)"><path style="stroke:none" d="M 1.84375 0 L 0.71875 0 L 0.71875 -5.578125 L 1.84375 -5.578125 Z M 1.84375 0 "/></g></g><g style="fill:#8c52ff;fill-opacity:1;"><g transform="translate(93.882855, 8.914412)"><path style="stroke:none" d="M 3.109375 -5.703125 C 3.835938 -5.703125 4.40625 -5.523438 4.8125 -5.171875 C 5.226562 -4.816406 5.46875 -4.347656 5.53125 -3.765625 L 5.53125 -3.6875 L 4.421875 -3.6875 L 4.40625 -3.765625 C 4.257812 -4.492188 3.820312 -4.859375 3.09375 -4.859375 C 2.644531 -4.859375 2.28125 -4.675781 2 -4.3125 C 1.726562 -3.945312 1.59375 -3.453125 1.59375 -2.828125 C 1.59375 -2.148438 1.726562 -1.628906 2 -1.265625 C 2.28125 -0.898438 2.640625 -0.71875 3.078125 -0.71875 C 3.441406 -0.71875 3.726562 -0.816406 3.9375 -1.015625 C 4.15625 -1.210938 4.300781 -1.492188 4.375 -1.859375 L 4.390625 -1.9375 L 5.5 -1.9375 L 5.5 -1.859375 C 5.4375 -1.253906 5.1875 -0.773438 4.75 -0.421875 C 4.3125 -0.0664062 3.738281 0.109375 3.03125 0.109375 C 2.25 0.109375 1.613281 -0.144531 1.125 -0.65625 C 0.644531 -1.175781 0.40625 -1.878906 0.40625 -2.765625 C 0.40625 -3.660156 0.660156 -4.375 1.171875 -4.90625 C 1.679688 -5.4375 2.328125 -5.703125 3.109375 -5.703125 Z M 3.109375 -5.703125 "/></g></g><g style="fill:#8c52ff;fill-opacity:1;"><g transform="translate(99.69684, 8.914412)"><path style="stroke:none" d="M 3.75 -1.6875 L 1.875 -1.6875 L 1.3125 0 L 0.125 0 L 2.140625 -5.578125 L 3.53125 -5.578125 L 5.515625 0 L 4.296875 0 Z M 2.8125 -4.625 L 2.15625 -2.5625 L 3.46875 -2.5625 Z M 2.8125 -4.625 "/></g></g><g style="fill:#8c52ff;fill-opacity:1;"><g transform="translate(105.170734, 8.914412)"><path style="stroke:none" d="M 2.578125 -5.703125 C 3.210938 -5.703125 3.695312 -5.539062 4.03125 -5.21875 C 4.375 -4.90625 4.578125 -4.476562 4.640625 -3.9375 L 3.5 -3.9375 C 3.46875 -4.226562 3.367188 -4.453125 3.203125 -4.609375 C 3.046875 -4.773438 2.820312 -4.859375 2.53125 -4.859375 C 2.300781 -4.859375 2.113281 -4.800781 1.96875 -4.6875 C 1.820312 -4.582031 1.75 -4.421875 1.75 -4.203125 C 1.75 -3.960938 1.835938 -3.773438 2.015625 -3.640625 C 2.191406 -3.503906 2.5 -3.382812 2.9375 -3.28125 C 3.550781 -3.144531 4 -2.929688 4.28125 -2.640625 C 4.570312 -2.359375 4.71875 -1.988281 4.71875 -1.53125 C 4.71875 -1.03125 4.515625 -0.628906 4.109375 -0.328125 C 3.710938 -0.0351562 3.226562 0.109375 2.65625 0.109375 C 1.976562 0.109375 1.4375 -0.0351562 1.03125 -0.328125 C 0.625 -0.628906 0.394531 -1.070312 0.34375 -1.65625 L 1.484375 -1.65625 C 1.535156 -1.351562 1.664062 -1.117188 1.875 -0.953125 C 2.09375 -0.796875 2.347656 -0.71875 2.640625 -0.71875 C 2.898438 -0.71875 3.113281 -0.78125 3.28125 -0.90625 C 3.457031 -1.039062 3.546875 -1.210938 3.546875 -1.421875 C 3.546875 -1.660156 3.460938 -1.851562 3.296875 -2 C 3.128906 -2.144531 2.84375 -2.265625 2.4375 -2.359375 C 1.8125 -2.515625 1.34375 -2.71875 1.03125 -2.96875 C 0.726562 -3.21875 0.578125 -3.582031 0.578125 -4.0625 C 0.578125 -4.5625 0.769531 -4.957031 1.15625 -5.25 C 1.539062 -5.550781 2.015625 -5.703125 2.578125 -5.703125 Z M 2.578125 -5.703125 "/></g></g></g></g><g clip-rule="nonzero" clip-path="url(#a5e5b02a1d)"><path style=" stroke:none;fill-rule:evenodd;fill:#8c52ff;fill-opacity:1;" d="M 58.929688 91.476562 C 60.214844 91.492188 61.257812 90.660156 62.097656 89.984375 C 62.957031 89.285156 63.71875 88.375 64.308594 87.472656 C 66.871094 83.542969 66.011719 76.675781 66.046875 70.363281 C 66.0625 67.257812 65.882812 64.121094 66.34375 61.328125 C 67.144531 56.515625 70.890625 52.523438 75.914062 51.9375 C 79.003906 51.578125 81.433594 52.453125 83.511719 53.613281 C 85.542969 54.746094 87.335938 56.097656 89.253906 57.320312 C 91.585938 58.671875 93.59375 59.894531 95.773438 61.269531 C 97.882812 62.601562 99.972656 63.851562 101.457031 65.996094 C 102.953125 68.152344 103.429688 70.898438 103.429688 74.429688 C 103.429688 91.355469 103.460938 109.242188 103.550781 125.515625 C 103.585938 132.015625 99.710938 136.027344 94.277344 137.058594 C 90.976562 137.691406 88.0625 136.542969 85.964844 135.324219 C 83.625 133.972656 81.519531 132.578125 79.503906 131.378906 C 77.371094 130.109375 75.308594 128.792969 73.042969 127.429688 C 69.660156 125.394531 67.003906 123.152344 66.285156 118.578125 C 66.046875 117.070312 66.105469 115.410156 66.105469 113.550781 C 66.105469 110.203125 66.082031 106.75 65.925781 103.324219 C 65.1875 103.210938 64.515625 103.695312 64.007812 104.039062 C 61.285156 105.890625 59.398438 108.605469 58.925781 112.714844 C 58.742188 114.332031 58.964844 116.144531 58.925781 118.097656 C 58.851562 121.808594 59.21875 125.476562 58.628906 128.445312 C 58.039062 131.382812 56.566406 133.566406 54.378906 135.207031 C 52.324219 136.75 49.09375 137.90625 45.765625 137.359375 C 44.140625 137.09375 42.898438 136.5625 41.699219 135.925781 C 40.519531 135.296875 39.519531 134.472656 38.347656 133.769531 C 36.074219 132.40625 33.71875 131.140625 31.410156 129.703125 C 26.910156 126.894531 21.648438 124.808594 21.121094 118.035156 C 20.984375 116.253906 21.15625 114.460938 21.121094 112.652344 C 20.871094 99.699219 21.003906 87.25 21 74.492188 C 21 70.773438 21.101562 67.179688 20.941406 63.78125 C 20.773438 60.128906 21.945312 57.582031 23.695312 55.527344 C 25.394531 53.53125 27.929688 52.007812 30.992188 51.640625 C 33.578125 51.332031 36.285156 52.152344 37.929688 53.191406 C 42.335938 55.988281 46.59375 58.609375 50.96875 61.390625 C 51.832031 61.9375 52.765625 62.433594 53.601562 63.003906 C 57.28125 65.519531 58.746094 69 58.746094 74.847656 C 58.746094 77.65625 58.746094 80.496094 58.746094 83.339844 C 58.746094 86.0625 58.617188 88.824219 58.929688 91.476562 Z M 54.5 91.058594 C 52.695312 89.914062 50.894531 88.75 49.117188 87.648438 C 46.363281 85.722656 44.183594 83.300781 43.671875 79.214844 C 43.355469 76.675781 43.417969 73.476562 43.550781 70.542969 C 43.640625 68.558594 43.511719 65.917969 43.492188 63.902344 C 43.484375 63.121094 43.527344 61.980469 42.597656 62.34375 C 39.976562 63.371094 37.609375 66.050781 36.730469 69.046875 C 36.148438 71.039062 36.414062 73.460938 36.433594 75.804688 C 36.460938 78.875 36.347656 82.019531 36.3125 85.136719 C 36.300781 86.300781 36.433594 87.46875 36.433594 88.667969 C 36.433594 94.867188 36.320312 100.898438 36.433594 106.972656 C 36.542969 112.761719 36.429688 118.875 36.496094 124.855469 C 36.5 125.585938 36.3125 126.453125 36.792969 127.070312 C 37.894531 127.066406 38.738281 126.261719 39.484375 125.632812 C 41.832031 123.648438 43.359375 120.921875 43.613281 116.960938 C 43.953125 111.644531 42.839844 104.433594 44.390625 100.210938 C 45.523438 97.128906 47.789062 94.816406 50.789062 93.632812 C 52.324219 93.023438 54.078125 92.84375 56.054688 92.375 C 55.902344 91.613281 55.050781 91.410156 54.5 91.058594 Z M 85.425781 124.257812 C 86.421875 123.195312 87.308594 121.890625 87.757812 120.371094 C 88.535156 117.746094 88.238281 114.015625 88.238281 110.621094 C 88.234375 98.757812 88.179688 87.609375 88.179688 75.804688 C 88.175781 73.570312 88.054688 71.25 88.117188 68.867188 C 88.140625 68.101562 88.117188 67.011719 88.117188 65.519531 C 88.117188 64.695312 88.378906 62.417969 87.699219 62.40625 C 87.011719 62.394531 85.621094 63.546875 85.128906 63.964844 C 83.183594 65.59375 81.601562 68.097656 81.300781 71.140625 C 80.996094 74.179688 81.296875 77.777344 81.300781 81.3125 C 81.300781 84.84375 81.523438 88.457031 81.300781 91.601562 C 80.921875 96.859375 77.660156 100.300781 73.460938 101.648438 C 72.09375 102.085938 70.570312 102.078125 68.855469 102.425781 C 68.945312 103.195312 69.742188 103.253906 70.171875 103.679688 C 73.898438 106.1875 78.117188 107.894531 80.160156 112.054688 C 81.542969 114.871094 81.355469 118.957031 81.355469 123.0625 C 81.355469 124.324219 81.15625 125.675781 81.714844 126.710938 C 83.195312 126.449219 84.421875 125.328125 85.425781 124.257812 Z M 85.425781 124.257812 "/></g><g mask="url(#412ff2b2b6)" transform="matrix(1,0,0,1,18,49)"><g clip-path="url(#fdc936ded8)"><g clip-rule="nonzero" clip-path="url(#48b181bab9)"><path style=" stroke:none;fill-rule:evenodd;fill:#ffffff;fill-opacity:1;" d="M 38.898438 40.832031 C 40.1875 40.847656 41.234375 40.015625 42.070312 39.335938 C 42.929688 38.640625 43.695312 37.726562 44.289062 36.820312 C 46.851562 32.886719 45.992188 26.015625 46.023438 19.695312 C 46.042969 16.585938 45.859375 13.445312 46.324219 10.652344 C 47.125 5.832031 50.875 1.832031 55.90625 1.246094 C 59 0.890625 61.429688 1.765625 63.511719 2.925781 C 65.546875 4.058594 67.339844 5.414062 69.261719 6.636719 C 71.59375 7.988281 73.605469 9.210938 75.789062 10.589844 C 77.898438 11.925781 79.992188 13.175781 81.476562 15.320312 C 82.972656 17.484375 83.453125 20.230469 83.453125 23.765625 C 83.453125 40.710938 83.484375 58.617188 83.574219 74.910156 C 83.609375 81.417969 79.730469 85.429688 74.289062 86.46875 C 70.984375 87.097656 68.070312 85.949219 65.964844 84.730469 C 63.621094 83.375 61.515625 81.980469 59.496094 80.78125 C 57.363281 79.507812 55.296875 78.191406 53.03125 76.824219 C 49.640625 74.789062 46.984375 72.546875 46.265625 67.964844 C 46.027344 66.457031 46.085938 64.792969 46.085938 62.933594 C 46.085938 59.578125 46.058594 56.121094 45.902344 52.691406 C 45.164062 52.582031 44.492188 53.066406 43.988281 53.410156 C 41.257812 55.261719 39.367188 57.980469 38.898438 62.09375 C 38.710938 63.714844 38.9375 65.527344 38.898438 67.484375 C 38.824219 71.199219 39.191406 74.871094 38.597656 77.84375 C 38.007812 80.78125 36.535156 82.96875 34.347656 84.613281 C 32.289062 86.15625 29.054688 87.3125 25.722656 86.765625 C 24.09375 86.5 22.851562 85.96875 21.648438 85.332031 C 20.46875 84.699219 19.46875 83.875 18.296875 83.171875 C 16.019531 81.808594 13.660156 80.542969 11.351562 79.101562 C 6.84375 76.289062 1.578125 74.203125 1.050781 67.421875 C 0.910156 65.636719 1.085938 63.84375 1.050781 62.03125 C 0.796875 49.0625 0.933594 36.601562 0.929688 23.828125 C 0.929688 20.105469 1.027344 16.507812 0.871094 13.105469 C 0.699219 9.449219 1.875 6.898438 3.625 4.839844 C 5.328125 2.84375 7.867188 1.316406 10.929688 0.949219 C 13.519531 0.640625 16.230469 1.464844 17.875 2.503906 C 22.289062 5.304688 26.550781 7.925781 30.933594 10.710938 C 31.796875 11.257812 32.730469 11.757812 33.566406 12.328125 C 37.25 14.84375 38.714844 18.328125 38.714844 24.183594 C 38.714844 26.996094 38.714844 29.839844 38.714844 32.6875 C 38.71875 35.414062 38.585938 38.175781 38.898438 40.832031 Z M 34.464844 40.414062 C 32.660156 39.265625 30.855469 38.101562 29.074219 37 C 26.320312 35.074219 24.136719 32.648438 23.625 28.554688 C 23.308594 26.011719 23.371094 22.8125 23.503906 19.875 C 23.597656 17.890625 23.46875 15.246094 23.445312 13.226562 C 23.4375 12.445312 23.480469 11.300781 22.546875 11.667969 C 19.925781 12.695312 17.558594 15.378906 16.679688 18.375 C 16.09375 20.371094 16.359375 22.796875 16.378906 25.144531 C 16.40625 28.214844 16.292969 31.363281 16.257812 34.484375 C 16.246094 35.652344 16.378906 36.820312 16.378906 38.019531 C 16.378906 44.226562 16.265625 50.261719 16.378906 56.34375 C 16.488281 62.140625 16.375 68.261719 16.441406 74.25 C 16.449219 74.976562 16.257812 75.847656 16.738281 76.464844 C 17.84375 76.464844 18.6875 75.65625 19.433594 75.027344 C 21.785156 73.042969 23.3125 70.308594 23.566406 66.34375 C 23.90625 61.023438 22.792969 53.804688 24.34375 49.578125 C 25.476562 46.492188 27.75 44.175781 30.753906 42.988281 C 32.289062 42.382812 34.046875 42.203125 36.023438 41.730469 C 35.867188 40.96875 35.015625 40.765625 34.464844 40.414062 Z M 65.425781 73.652344 C 66.425781 72.585938 67.3125 71.28125 67.761719 69.761719 C 68.539062 67.132812 68.242188 63.398438 68.242188 59.996094 C 68.242188 48.121094 68.183594 36.960938 68.183594 25.144531 C 68.179688 22.90625 68.058594 20.585938 68.121094 18.199219 C 68.144531 17.433594 68.121094 16.339844 68.121094 14.84375 C 68.121094 14.019531 68.382812 11.742188 67.703125 11.730469 C 67.015625 11.71875 65.625 12.871094 65.128906 13.289062 C 63.183594 14.921875 61.597656 17.425781 61.296875 20.472656 C 60.992188 23.515625 61.292969 27.117188 61.296875 30.65625 C 61.296875 34.191406 61.519531 37.808594 61.296875 40.957031 C 60.917969 46.222656 57.652344 49.667969 53.449219 51.015625 C 52.082031 51.457031 50.554688 51.445312 48.839844 51.792969 C 48.925781 52.5625 49.722656 52.625 50.15625 53.050781 C 53.886719 55.5625 58.109375 57.269531 60.15625 61.433594 C 61.542969 64.253906 61.355469 68.34375 61.355469 72.453125 C 61.355469 73.71875 61.152344 75.066406 61.714844 76.105469 C 63.195312 75.84375 64.421875 74.722656 65.425781 73.652344 Z M 65.425781 73.652344 "/></g></g><mask id="412ff2b2b6"><g filter="url(#9268b2f77b)"><rect x="0" width="375" y="0" height="194.87999" style="fill:#000000;fill-opacity:0.17;stroke:none;"/></g></mask></g><g clip-rule="nonzero" clip-path="url(#d212c6a5f5)"><path style=" stroke:none;fill-rule:evenodd;fill:#8c52ff;fill-opacity:1;" d="M 58.867188 91.417969 C 60.15625 91.433594 61.203125 90.601562 62.042969 89.925781 C 62.902344 89.226562 63.667969 88.316406 64.257812 87.410156 C 66.820312 83.476562 65.960938 76.601562 65.996094 70.28125 C 66.011719 67.171875 65.832031 64.035156 66.292969 61.238281 C 67.09375 56.417969 70.84375 52.421875 75.875 51.835938 C 78.96875 51.476562 81.398438 52.351562 83.480469 53.511719 C 85.515625 54.644531 87.308594 56 89.230469 57.226562 C 91.566406 58.574219 93.574219 59.800781 95.757812 61.179688 C 97.871094 62.511719 99.960938 63.761719 101.445312 65.90625 C 102.945312 68.070312 103.421875 70.816406 103.421875 74.355469 C 103.421875 91.296875 103.453125 109.203125 103.542969 125.496094 C 103.578125 132.003906 99.699219 136.019531 94.257812 137.054688 C 90.953125 137.683594 88.039062 136.535156 85.9375 135.316406 C 83.59375 133.964844 81.484375 132.566406 79.46875 131.367188 C 77.332031 130.097656 75.265625 128.777344 73 127.414062 C 69.613281 125.375 66.957031 123.132812 66.234375 118.550781 C 65.996094 117.042969 66.054688 115.378906 66.054688 113.519531 C 66.054688 110.167969 66.03125 106.707031 65.875 103.277344 C 65.132812 103.167969 64.464844 103.652344 63.957031 103.996094 C 61.226562 105.847656 59.339844 108.566406 58.867188 112.679688 C 58.683594 114.300781 58.90625 116.117188 58.867188 118.070312 C 58.792969 121.789062 59.160156 125.460938 58.566406 128.429688 C 57.980469 131.371094 56.507812 133.554688 54.316406 135.199219 C 52.257812 136.742188 49.027344 137.898438 45.691406 137.351562 C 44.066406 137.089844 42.820312 136.554688 41.621094 135.917969 C 40.4375 135.289062 39.4375 134.460938 38.265625 133.761719 C 35.992188 132.394531 33.632812 131.128906 31.320312 129.6875 C 26.816406 126.878906 21.546875 124.789062 21.019531 118.007812 C 20.878906 116.222656 21.054688 114.429688 21.019531 112.621094 C 20.769531 99.652344 20.902344 87.1875 20.898438 74.414062 C 20.898438 70.695312 21 67.09375 20.839844 63.695312 C 20.667969 60.039062 21.847656 57.488281 23.59375 55.429688 C 25.296875 53.429688 27.835938 51.90625 30.898438 51.535156 C 33.488281 51.226562 36.199219 52.050781 37.847656 53.09375 C 42.257812 55.890625 46.519531 58.515625 50.902344 61.296875 C 51.765625 61.84375 52.699219 62.34375 53.535156 62.914062 C 57.222656 65.433594 58.683594 68.917969 58.6875 74.769531 C 58.6875 77.582031 58.6875 80.425781 58.6875 83.273438 C 58.6875 86 58.558594 88.765625 58.867188 91.417969 Z M 54.4375 91.003906 C 52.628906 89.851562 50.824219 88.6875 49.046875 87.585938 C 46.289062 85.660156 44.105469 83.234375 43.597656 79.144531 C 43.28125 76.601562 43.34375 73.398438 43.476562 70.460938 C 43.566406 68.476562 43.4375 65.832031 43.414062 63.8125 C 43.40625 63.03125 43.453125 61.890625 42.519531 62.253906 C 39.898438 63.28125 37.527344 65.964844 36.648438 68.960938 C 36.0625 70.957031 36.328125 73.382812 36.347656 75.730469 C 36.378906 78.804688 36.265625 81.949219 36.230469 85.070312 C 36.214844 86.238281 36.347656 87.40625 36.347656 88.605469 C 36.347656 94.8125 36.238281 100.851562 36.347656 106.929688 C 36.457031 112.726562 36.34375 118.847656 36.410156 124.835938 C 36.417969 125.566406 36.226562 126.4375 36.707031 127.054688 C 37.8125 127.050781 38.660156 126.246094 39.402344 125.613281 C 41.753906 123.628906 43.28125 120.898438 43.535156 116.929688 C 43.875 111.609375 42.765625 104.390625 44.316406 100.164062 C 45.449219 97.078125 47.71875 94.761719 50.722656 93.578125 C 52.257812 92.96875 54.015625 92.789062 55.992188 92.320312 C 55.839844 91.554688 54.984375 91.351562 54.4375 91.003906 Z M 85.398438 124.238281 C 86.394531 123.175781 87.28125 121.867188 87.730469 120.347656 C 88.507812 117.71875 88.210938 113.984375 88.210938 110.582031 C 88.210938 98.710938 88.152344 87.546875 88.152344 75.730469 C 88.152344 73.492188 88.027344 71.171875 88.089844 68.785156 C 88.113281 68.019531 88.089844 66.925781 88.089844 65.433594 C 88.089844 64.605469 88.351562 62.328125 87.671875 62.316406 C 86.984375 62.304688 85.59375 63.457031 85.097656 63.875 C 83.152344 65.507812 81.566406 68.011719 81.265625 71.0625 C 80.964844 74.101562 81.265625 77.703125 81.265625 81.242188 C 81.265625 84.777344 81.492188 88.394531 81.265625 91.542969 C 80.890625 96.808594 77.625 100.253906 73.421875 101.601562 C 72.050781 102.042969 70.523438 102.03125 68.808594 102.378906 C 68.898438 103.152344 69.695312 103.210938 70.125 103.636719 C 73.855469 106.148438 78.078125 107.855469 80.128906 112.023438 C 81.511719 114.839844 81.324219 118.929688 81.324219 123.042969 C 81.324219 124.304688 81.125 125.65625 81.683594 126.695312 C 83.164062 126.429688 84.394531 125.308594 85.398438 124.238281 Z M 85.398438 124.238281 "/></g></g></svg>