<svg xmlns="http://www.w3.org/2000/svg" xmlns:xlink="http://www.w3.org/1999/xlink" width="32" height="32" viewBox="0 0 32 32" preserveAspectRatio="xMidYMid meet" version="1.2">
  <defs>
    <clipPath id="365e4c678c">
      <path d="M 0.332031 0 L 35 0 L 35 36.765625 L 0.332031 36.765625 Z M 0.332031 0 "/>
    </clipPath>
    <filter x="0%" y="0%" width="100%" filterUnits="objectBoundingBox" id="664992b72f" height="100%">
      <feColorMatrix values="0 0 0 0 1 0 0 0 0 1 0 0 0 0 1 0 0 0 1 0" type="matrix" in="SourceGraphic"/>
    </filter>
    <clipPath id="00bd3a0627">
      <path d="M 0.332031 0 L 34.890625 0 L 34.890625 36 L 0.332031 36 Z M 0.332031 0 "/>
    </clipPath>
    <clipPath id="a17fab13f0">
      <rect x="0" width="35" y="0" height="37"/>
    </clipPath>
    <clipPath id="e899ef451f">
      <path d="M 1.152344 0.660156 L 35.714844 0.660156 L 35.714844 36.691406 L 1.152344 36.691406 Z M 1.152344 0.660156 "/>
    </clipPath>
  </defs>
  <g id="b85a50a534" transform="translate(0, 0) scale(0.85)">
    <g clip-rule="nonzero" clip-path="url(#365e4c678c)">
      <g mask="url(#a4a2aa339d)" transform="matrix(1,0,0,1,0.000000000000000056,0)">
        <g clip-path="url(#a17fab13f0)">
          <g clip-rule="nonzero" clip-path="url(#00bd3a0627)">
            <path style=" stroke:none;fill-rule:evenodd;fill:#000000;fill-opacity:1;" d="M 16.226562 16.742188 C 16.765625 16.746094 17.203125 16.402344 17.554688 16.117188 C 17.910156 15.828125 18.230469 15.449219 18.480469 15.070312 C 19.550781 13.433594 19.191406 10.574219 19.203125 7.941406 C 19.210938 6.648438 19.136719 5.339844 19.328125 4.175781 C 19.664062 2.167969 21.230469 0.503906 23.332031 0.261719 C 24.625 0.113281 25.640625 0.476562 26.511719 0.960938 C 27.359375 1.433594 28.109375 1.996094 28.914062 2.503906 C 29.886719 3.066406 30.726562 3.578125 31.640625 4.152344 C 32.523438 4.707031 33.394531 5.226562 34.015625 6.121094 C 34.640625 7.019531 34.839844 8.164062 34.839844 9.636719 C 34.839844 16.691406 34.855469 24.144531 34.890625 30.925781 C 34.90625 33.636719 33.285156 35.308594 31.011719 35.738281 C 29.632812 36 28.414062 35.523438 27.535156 35.015625 C 26.558594 34.453125 25.675781 33.871094 24.832031 33.371094 C 23.941406 32.84375 23.078125 32.292969 22.132812 31.726562 C 20.714844 30.875 19.605469 29.941406 19.304688 28.035156 C 19.203125 27.40625 19.230469 26.714844 19.230469 25.941406 C 19.230469 24.546875 19.21875 23.105469 19.152344 21.679688 C 18.84375 21.632812 18.566406 21.832031 18.351562 21.976562 C 17.210938 22.746094 16.421875 23.878906 16.226562 25.59375 C 16.148438 26.265625 16.242188 27.023438 16.226562 27.835938 C 16.195312 29.382812 16.347656 30.910156 16.101562 32.148438 C 15.855469 33.371094 15.242188 34.28125 14.324219 34.964844 C 13.464844 35.609375 12.113281 36.089844 10.722656 35.863281 C 10.042969 35.753906 9.523438 35.53125 9.019531 35.265625 C 8.527344 35.003906 8.109375 34.660156 7.621094 34.367188 C 6.667969 33.800781 5.683594 33.273438 4.71875 32.671875 C 2.835938 31.503906 0.632812 30.632812 0.414062 27.808594 C 0.355469 27.066406 0.429688 26.320312 0.414062 25.566406 C 0.308594 20.167969 0.363281 14.980469 0.363281 9.660156 C 0.363281 8.113281 0.40625 6.613281 0.339844 5.199219 C 0.265625 3.675781 0.757812 2.613281 1.488281 1.757812 C 2.199219 0.925781 3.261719 0.289062 4.542969 0.136719 C 5.625 0.0078125 6.757812 0.351562 7.445312 0.785156 C 9.289062 1.949219 11.066406 3.042969 12.898438 4.203125 C 13.257812 4.429688 13.648438 4.636719 14 4.875 C 15.539062 5.921875 16.152344 7.371094 16.152344 9.808594 C 16.152344 10.980469 16.152344 12.164062 16.152344 13.351562 C 16.152344 14.484375 16.097656 15.636719 16.226562 16.742188 Z M 14.375 16.566406 C 13.621094 16.089844 12.867188 15.605469 12.125 15.144531 C 10.972656 14.34375 10.058594 13.332031 9.847656 11.628906 C 9.714844 10.570312 9.738281 9.238281 9.796875 8.015625 C 9.832031 7.1875 9.78125 6.089844 9.769531 5.246094 C 9.769531 4.921875 9.785156 4.445312 9.394531 4.597656 C 8.300781 5.027344 7.3125 6.144531 6.941406 7.390625 C 6.699219 8.222656 6.808594 9.230469 6.820312 10.210938 C 6.832031 11.488281 6.78125 12.800781 6.769531 14.097656 C 6.761719 14.582031 6.820312 15.070312 6.820312 15.570312 C 6.820312 18.152344 6.769531 20.667969 6.820312 23.199219 C 6.863281 25.613281 6.816406 28.160156 6.84375 30.652344 C 6.847656 30.957031 6.769531 31.320312 6.96875 31.574219 C 7.429688 31.574219 7.785156 31.238281 8.09375 30.976562 C 9.078125 30.148438 9.714844 29.011719 9.820312 27.363281 C 9.964844 25.144531 9.5 22.140625 10.148438 20.382812 C 10.621094 19.097656 11.570312 18.132812 12.824219 17.640625 C 13.464844 17.386719 14.199219 17.3125 15.023438 17.117188 C 14.960938 16.796875 14.605469 16.710938 14.375 16.566406 Z M 27.3125 30.402344 C 27.726562 29.960938 28.097656 29.417969 28.285156 28.785156 C 28.609375 27.6875 28.488281 26.136719 28.488281 24.71875 C 28.484375 19.777344 28.460938 15.128906 28.460938 10.210938 C 28.460938 9.277344 28.410156 8.3125 28.4375 7.316406 C 28.445312 7 28.4375 6.542969 28.4375 5.921875 C 28.4375 5.578125 28.546875 4.628906 28.261719 4.625 C 27.972656 4.621094 27.394531 5.101562 27.1875 5.273438 C 26.375 5.953125 25.710938 6.996094 25.585938 8.265625 C 25.457031 9.53125 25.585938 11.03125 25.585938 12.503906 C 25.585938 13.976562 25.679688 15.480469 25.585938 16.792969 C 25.425781 18.984375 24.0625 20.417969 22.308594 20.980469 C 21.734375 21.164062 21.097656 21.160156 20.378906 21.304688 C 20.417969 21.625 20.75 21.648438 20.929688 21.828125 C 22.488281 22.871094 24.253906 23.582031 25.109375 25.316406 C 25.6875 26.492188 25.609375 28.195312 25.609375 29.90625 C 25.609375 30.429688 25.527344 30.992188 25.757812 31.425781 C 26.378906 31.316406 26.890625 30.851562 27.3125 30.402344 Z M 27.3125 30.402344 "/>
          </g>
        </g>
        <mask id="a4a2aa339d">
          <g filter="url(#664992b72f)">
            <rect x="0" width="37.92" y="0" height="46.079998" style="fill:#000000;fill-opacity:0.17;stroke:none;"/>
          </g>
        </mask>
      </g>
    </g>
    <g clip-rule="nonzero" clip-path="url(#e899ef451f)">
      <path style=" stroke:none;fill-rule:evenodd;fill:#8c52ff;fill-opacity:1;" d="M 17.023438 17.433594 C 17.558594 17.441406 17.996094 17.09375 18.347656 16.8125 C 18.703125 16.519531 19.023438 16.140625 19.269531 15.761719 C 20.339844 14.121094 19.980469 11.253906 19.996094 8.617188 C 20.003906 7.320312 19.925781 6.011719 20.121094 4.847656 C 20.453125 2.835938 22.019531 1.167969 24.117188 0.925781 C 25.40625 0.773438 26.421875 1.140625 27.289062 1.625 C 28.136719 2.097656 28.886719 2.660156 29.6875 3.171875 C 30.660156 3.734375 31.5 4.246094 32.410156 4.820312 C 33.289062 5.378906 34.164062 5.898438 34.78125 6.792969 C 35.40625 7.695312 35.605469 8.84375 35.605469 10.316406 C 35.605469 17.382812 35.621094 24.851562 35.65625 31.648438 C 35.671875 34.363281 34.054688 36.039062 31.785156 36.46875 C 30.40625 36.734375 29.191406 36.253906 28.3125 35.746094 C 27.335938 35.179688 26.457031 34.597656 25.613281 34.097656 C 24.722656 33.566406 23.863281 33.015625 22.917969 32.449219 C 21.503906 31.597656 20.394531 30.664062 20.09375 28.75 C 19.996094 28.121094 20.019531 27.429688 20.019531 26.652344 C 20.019531 25.253906 20.007812 23.8125 19.945312 22.382812 C 19.636719 22.335938 19.355469 22.535156 19.144531 22.679688 C 18.007812 23.453125 17.21875 24.585938 17.023438 26.304688 C 16.945312 26.980469 17.039062 27.734375 17.023438 28.550781 C 16.992188 30.101562 17.144531 31.632812 16.898438 32.871094 C 16.652344 34.097656 16.039062 35.011719 15.125 35.695312 C 14.265625 36.339844 12.917969 36.820312 11.527344 36.59375 C 10.847656 36.484375 10.328125 36.261719 9.828125 35.996094 C 9.335938 35.734375 8.917969 35.386719 8.429688 35.09375 C 7.480469 34.527344 6.496094 33.996094 5.53125 33.398438 C 3.652344 32.226562 1.457031 31.355469 1.234375 28.527344 C 1.175781 27.78125 1.25 27.035156 1.234375 26.277344 C 1.128906 20.867188 1.1875 15.667969 1.183594 10.339844 C 1.183594 8.789062 1.226562 7.289062 1.160156 5.871094 C 1.089844 4.34375 1.582031 3.28125 2.308594 2.421875 C 3.019531 1.589844 4.078125 0.953125 5.355469 0.800781 C 6.4375 0.671875 7.566406 1.011719 8.253906 1.449219 C 10.09375 2.617188 11.871094 3.710938 13.699219 4.871094 C 14.058594 5.097656 14.449219 5.308594 14.796875 5.546875 C 16.335938 6.59375 16.945312 8.046875 16.945312 10.492188 C 16.945312 11.664062 16.945312 12.851562 16.945312 14.039062 C 16.945312 15.175781 16.894531 16.328125 17.023438 17.433594 Z M 15.171875 17.261719 C 14.417969 16.78125 13.667969 16.296875 12.925781 15.835938 C 11.773438 15.03125 10.863281 14.019531 10.652344 12.3125 C 10.519531 11.253906 10.546875 9.917969 10.601562 8.691406 C 10.640625 7.863281 10.585938 6.761719 10.578125 5.917969 C 10.574219 5.59375 10.59375 5.117188 10.203125 5.269531 C 9.109375 5.699219 8.121094 6.816406 7.753906 8.066406 C 7.511719 8.902344 7.621094 9.910156 7.628906 10.890625 C 7.640625 12.171875 7.59375 13.484375 7.578125 14.789062 C 7.574219 15.273438 7.628906 15.761719 7.628906 16.261719 C 7.628906 18.851562 7.582031 21.367188 7.628906 23.90625 C 7.675781 26.324219 7.628906 28.875 7.65625 31.375 C 7.65625 31.675781 7.578125 32.039062 7.78125 32.296875 C 8.238281 32.296875 8.59375 31.960938 8.902344 31.699219 C 9.882812 30.871094 10.523438 29.730469 10.628906 28.074219 C 10.769531 25.855469 10.304688 22.84375 10.953125 21.082031 C 11.425781 19.796875 12.371094 18.828125 13.625 18.335938 C 14.265625 18.082031 15 18.007812 15.824219 17.808594 C 15.757812 17.492188 15.402344 17.40625 15.171875 17.261719 Z M 28.085938 31.125 C 28.503906 30.679688 28.875 30.136719 29.0625 29.5 C 29.386719 28.40625 29.261719 26.847656 29.261719 25.429688 C 29.261719 20.476562 29.238281 15.820312 29.238281 10.890625 C 29.238281 9.957031 29.183594 8.988281 29.210938 7.992188 C 29.21875 7.675781 29.210938 7.21875 29.210938 6.59375 C 29.210938 6.25 29.320312 5.300781 29.035156 5.296875 C 28.75 5.292969 28.167969 5.773438 27.964844 5.945312 C 27.152344 6.628906 26.492188 7.671875 26.363281 8.941406 C 26.238281 10.210938 26.363281 11.714844 26.363281 13.191406 C 26.363281 14.664062 26.457031 16.171875 26.363281 17.484375 C 26.207031 19.683594 24.84375 21.121094 23.09375 21.683594 C 22.519531 21.867188 21.882812 21.863281 21.167969 22.007812 C 21.207031 22.328125 21.539062 22.351562 21.71875 22.53125 C 23.273438 23.578125 25.035156 24.289062 25.890625 26.027344 C 26.46875 27.203125 26.390625 28.910156 26.390625 30.625 C 26.390625 31.152344 26.304688 31.714844 26.539062 32.148438 C 27.15625 32.039062 27.667969 31.570312 28.085938 31.125 Z M 28.085938 31.125 "/>
    </g>
  </g>
</svg>