<svg xmlns="http://www.w3.org/2000/svg" xmlns:xlink="http://www.w3.org/1999/xlink" width="500" zoomAndPan="magnify" viewBox="0 0 375 374.999991" height="500" preserveAspectRatio="xMidYMid meet" version="1.2"><defs><clipPath id="29c830def6"><path d="M 2.320312 2.253906 L 74.824219 2.253906 L 74.824219 78.078125 L 2.320312 78.078125 Z M 2.320312 2.253906 "/></clipPath><clipPath id="f6eed31fbf"><path d="M 0.441406 0.800781 L 75 0.800781 L 75 77 L 0.441406 77 Z M 0.441406 0.800781 "/></clipPath><filter x="0%" y="0%" width="100%" filterUnits="objectBoundingBox" id="6e30e5af61" height="100%"><feColorMatrix values="0 0 0 0 1 0 0 0 0 1 0 0 0 0 1 0 0 0 1 0" type="matrix" in="SourceGraphic"/></filter><clipPath id="e712b52eb2"><path d="M 0.5 0.800781 L 73.003906 0.800781 L 73.003906 76.640625 L 0.5 76.640625 Z M 0.5 0.800781 "/></clipPath><clipPath id="6acd23fe21"><rect x="0" width="75" y="0" height="77"/></clipPath><clipPath id="370040ed31"><path d="M 2.230469 2.160156 L 74.734375 2.160156 L 74.734375 78.078125 L 2.230469 78.078125 Z M 2.230469 2.160156 "/></clipPath><clipPath id="8fd236bb86"><rect x="0" width="76" y="0" height="79"/></clipPath><clipPath id="f8bd0cbb5b"><rect x="0" width="215" y="0" height="42"/></clipPath><clipPath id="ab71f8e0e7"><path d="M 20 2 L 26 2 L 26 9.960938 L 20 9.960938 Z M 20 2 "/></clipPath><clipPath id="d3cc3dec98"><rect x="0" width="98" y="0" height="10"/></clipPath></defs><g id="bf49460b72"><g transform="matrix(1,0,0,1,37,148)"><g clip-path="url(#8fd236bb86)"><g clip-rule="nonzero" clip-path="url(#29c830def6)"><path style=" stroke:none;fill-rule:evenodd;fill:#8c52ff;fill-opacity:1;" d="M 35.726562 37.554688 C 36.855469 37.566406 37.773438 36.835938 38.511719 36.242188 C 39.265625 35.628906 39.9375 34.828125 40.457031 34.03125 C 42.707031 30.578125 41.953125 24.546875 41.980469 18.996094 C 41.996094 16.265625 41.835938 13.511719 42.242188 11.054688 C 42.945312 6.824219 46.242188 3.3125 50.65625 2.800781 C 53.375 2.484375 55.507812 3.253906 57.335938 4.273438 C 59.121094 5.265625 60.695312 6.457031 62.382812 7.53125 C 64.433594 8.71875 66.195312 9.792969 68.113281 11.003906 C 69.96875 12.175781 71.804688 13.273438 73.109375 15.15625 C 74.421875 17.054688 74.84375 19.464844 74.84375 22.570312 C 74.84375 37.445312 74.871094 53.167969 74.949219 67.472656 C 74.980469 73.1875 71.574219 76.710938 66.796875 77.621094 C 63.894531 78.175781 61.335938 77.167969 59.488281 76.097656 C 57.433594 74.910156 55.582031 73.683594 53.8125 72.628906 C 51.9375 71.511719 50.121094 70.355469 48.132812 69.15625 C 45.15625 67.367188 42.824219 65.398438 42.191406 61.375 C 41.980469 60.050781 42.035156 58.59375 42.035156 56.957031 C 42.035156 54.015625 42.011719 50.976562 41.875 47.964844 C 41.226562 47.867188 40.636719 48.292969 40.191406 48.597656 C 37.796875 50.222656 36.136719 52.609375 35.722656 56.222656 C 35.558594 57.644531 35.757812 59.238281 35.722656 60.953125 C 35.660156 64.21875 35.980469 67.441406 35.460938 70.050781 C 34.945312 72.632812 33.652344 74.550781 31.726562 75.992188 C 29.921875 77.347656 27.082031 78.363281 24.15625 77.882812 C 22.726562 77.652344 21.632812 77.183594 20.582031 76.625 C 19.542969 76.070312 18.664062 75.347656 17.636719 74.730469 C 15.636719 73.53125 13.566406 72.417969 11.539062 71.152344 C 7.582031 68.6875 2.957031 66.851562 2.492188 60.898438 C 2.371094 59.332031 2.523438 57.757812 2.492188 56.167969 C 2.273438 44.78125 2.390625 33.839844 2.386719 22.625 C 2.386719 19.355469 2.472656 16.195312 2.335938 13.210938 C 2.1875 10 3.21875 7.761719 4.753906 5.953125 C 6.25 4.199219 8.480469 2.859375 11.167969 2.535156 C 13.441406 2.265625 15.820312 2.988281 17.265625 3.902344 C 21.140625 6.359375 24.882812 8.664062 28.730469 11.109375 C 29.488281 11.589844 30.308594 12.027344 31.042969 12.527344 C 34.277344 14.738281 35.5625 17.796875 35.566406 22.9375 C 35.566406 25.40625 35.566406 27.902344 35.566406 30.402344 C 35.566406 32.796875 35.453125 35.222656 35.726562 37.554688 Z M 31.832031 37.1875 C 30.246094 36.179688 28.660156 35.15625 27.101562 34.191406 C 24.679688 32.496094 22.761719 30.367188 22.316406 26.777344 C 22.039062 24.542969 22.09375 21.730469 22.210938 19.152344 C 22.289062 17.410156 22.175781 15.089844 22.15625 13.316406 C 22.148438 12.628906 22.1875 11.625 21.371094 11.949219 C 19.066406 12.847656 16.988281 15.203125 16.214844 17.835938 C 15.703125 19.589844 15.933594 21.71875 15.953125 23.78125 C 15.976562 26.476562 15.878906 29.242188 15.847656 31.980469 C 15.835938 33.003906 15.953125 34.03125 15.953125 35.082031 C 15.953125 40.535156 15.855469 45.835938 15.953125 51.171875 C 16.046875 56.261719 15.949219 61.636719 16.007812 66.894531 C 16.011719 67.535156 15.847656 68.296875 16.269531 68.839844 C 17.238281 68.839844 17.980469 68.128906 18.632812 67.578125 C 20.699219 65.832031 22.039062 63.433594 22.261719 59.953125 C 22.5625 55.28125 21.585938 48.941406 22.945312 45.234375 C 23.941406 42.523438 25.933594 40.488281 28.570312 39.449219 C 29.921875 38.914062 31.464844 38.757812 33.199219 38.34375 C 33.0625 37.675781 32.316406 37.496094 31.832031 37.1875 Z M 59.015625 66.371094 C 59.894531 65.433594 60.671875 64.289062 61.066406 62.953125 C 61.75 60.644531 61.488281 57.367188 61.488281 54.378906 C 61.488281 43.957031 61.4375 34.15625 61.4375 23.78125 C 61.433594 21.816406 61.328125 19.777344 61.382812 17.679688 C 61.402344 17.007812 61.382812 16.050781 61.382812 14.738281 C 61.382812 14.011719 61.609375 12.011719 61.015625 12 C 60.410156 11.992188 59.191406 13.003906 58.753906 13.371094 C 57.046875 14.804688 55.65625 17.003906 55.390625 19.679688 C 55.125 22.351562 55.386719 25.511719 55.390625 28.617188 C 55.390625 31.722656 55.585938 34.898438 55.390625 37.664062 C 55.058594 42.285156 52.191406 45.308594 48.5 46.496094 C 47.300781 46.882812 45.957031 46.871094 44.453125 47.179688 C 44.53125 47.855469 45.230469 47.90625 45.609375 48.28125 C 48.882812 50.484375 52.59375 51.984375 54.390625 55.644531 C 55.605469 58.117188 55.441406 61.707031 55.441406 65.316406 C 55.441406 66.425781 55.265625 67.613281 55.757812 68.523438 C 57.054688 68.292969 58.136719 67.308594 59.015625 66.371094 Z M 59.015625 66.371094 "/></g><g clip-rule="nonzero" clip-path="url(#f6eed31fbf)"><g mask="url(#284a4f35c0)"><g id="a0ee22b7c5" clip-path="url(#6acd23fe21)"><g clip-rule="nonzero" clip-path="url(#e712b52eb2)"><path style=" stroke:none;fill-rule:evenodd;fill:#ffffff;fill-opacity:1;" d="M 33.945312 36.109375 C 35.078125 36.121094 36 35.390625 36.734375 34.792969 C 37.492188 34.179688 38.164062 33.378906 38.683594 32.582031 C 40.9375 29.125 40.179688 23.082031 40.210938 17.527344 C 40.226562 14.792969 40.066406 12.035156 40.472656 9.574219 C 41.175781 5.335938 44.476562 1.824219 48.894531 1.308594 C 51.617188 0.992188 53.753906 1.761719 55.582031 2.785156 C 57.371094 3.78125 58.949219 4.972656 60.636719 6.046875 C 62.691406 7.234375 64.457031 8.308594 66.375 9.523438 C 68.230469 10.695312 70.070312 11.796875 71.378906 13.679688 C 72.695312 15.582031 73.113281 17.996094 73.113281 21.105469 C 73.113281 36 73.140625 51.742188 73.21875 66.066406 C 73.25 71.785156 69.839844 75.316406 65.058594 76.226562 C 62.152344 76.78125 59.589844 75.769531 57.742188 74.699219 C 55.679688 73.511719 53.828125 72.28125 52.054688 71.226562 C 50.179688 70.109375 48.363281 68.949219 46.371094 67.75 C 43.390625 65.957031 41.054688 63.988281 40.421875 59.960938 C 40.210938 58.632812 40.261719 57.171875 40.261719 55.535156 C 40.261719 52.589844 40.242188 49.550781 40.105469 46.535156 C 39.453125 46.4375 38.863281 46.863281 38.417969 47.164062 C 36.019531 48.792969 34.359375 51.183594 33.945312 54.800781 C 33.78125 56.222656 33.976562 57.820312 33.945312 59.539062 C 33.878906 62.804688 34.203125 66.03125 33.679688 68.644531 C 33.164062 71.230469 31.871094 73.152344 29.945312 74.59375 C 28.132812 75.953125 25.292969 76.96875 22.363281 76.488281 C 20.929688 76.257812 19.835938 75.789062 18.78125 75.226562 C 17.742188 74.671875 16.863281 73.949219 15.835938 73.332031 C 13.832031 72.128906 11.757812 71.015625 9.730469 69.75 C 5.765625 67.28125 1.136719 65.445312 0.671875 59.484375 C 0.550781 57.914062 0.703125 56.339844 0.671875 54.746094 C 0.449219 43.34375 0.570312 32.386719 0.566406 21.160156 C 0.566406 17.886719 0.652344 14.722656 0.515625 11.734375 C 0.363281 8.519531 1.398438 6.277344 2.9375 4.46875 C 4.433594 2.710938 6.664062 1.371094 9.359375 1.046875 C 11.636719 0.773438 14.015625 1.496094 15.464844 2.414062 C 19.34375 4.875 23.089844 7.179688 26.941406 9.628906 C 27.703125 10.109375 28.523438 10.546875 29.257812 11.050781 C 32.496094 13.261719 33.785156 16.324219 33.785156 21.472656 C 33.785156 23.945312 33.785156 26.445312 33.785156 28.949219 C 33.785156 31.34375 33.671875 33.773438 33.945312 36.109375 Z M 30.046875 35.742188 C 28.460938 34.730469 26.875 33.707031 25.308594 32.738281 C 22.886719 31.046875 20.96875 28.914062 20.519531 25.316406 C 20.242188 23.082031 20.296875 20.265625 20.414062 17.683594 C 20.492188 15.9375 20.378906 13.613281 20.359375 11.839844 C 20.355469 11.152344 20.394531 10.148438 19.570312 10.46875 C 17.265625 11.371094 15.183594 13.730469 14.410156 16.367188 C 13.898438 18.121094 14.128906 20.25 14.148438 22.316406 C 14.171875 25.015625 14.074219 27.785156 14.042969 30.527344 C 14.03125 31.554688 14.148438 32.582031 14.148438 33.632812 C 14.148438 39.089844 14.050781 44.398438 14.148438 49.746094 C 14.242188 54.839844 14.144531 60.21875 14.203125 65.484375 C 14.207031 66.125 14.042969 66.890625 14.464844 67.433594 C 15.4375 67.433594 16.179688 66.722656 16.832031 66.167969 C 18.898438 64.421875 20.242188 62.023438 20.46875 58.535156 C 20.765625 53.855469 19.789062 47.511719 21.152344 43.796875 C 22.148438 41.082031 24.144531 39.046875 26.785156 38.003906 C 28.132812 37.472656 29.679688 37.3125 31.417969 36.898438 C 31.28125 36.230469 30.53125 36.046875 30.046875 35.742188 Z M 57.265625 64.960938 C 58.144531 64.023438 58.925781 62.875 59.320312 61.539062 C 60.003906 59.226562 59.742188 55.945312 59.742188 52.957031 C 59.742188 42.515625 59.691406 32.703125 59.691406 22.316406 C 59.6875 20.351562 59.582031 18.308594 59.636719 16.210938 C 59.65625 15.535156 59.636719 14.574219 59.636719 13.261719 C 59.636719 12.535156 59.867188 10.535156 59.269531 10.523438 C 58.664062 10.515625 57.441406 11.527344 57.003906 11.894531 C 55.296875 13.328125 53.902344 15.53125 53.636719 18.210938 C 53.371094 20.882812 53.632812 24.050781 53.636719 27.160156 C 53.636719 30.269531 53.832031 33.449219 53.636719 36.214844 C 53.304688 40.84375 50.433594 43.875 46.738281 45.058594 C 45.535156 45.445312 44.191406 45.4375 42.683594 45.742188 C 42.761719 46.421875 43.460938 46.472656 43.84375 46.851562 C 47.121094 49.054688 50.835938 50.558594 52.632812 54.222656 C 53.851562 56.699219 53.6875 60.292969 53.6875 63.90625 C 53.6875 65.019531 53.511719 66.207031 54.003906 67.117188 C 55.304688 66.886719 56.386719 65.902344 57.265625 64.960938 Z M 57.265625 64.960938 "/></g></g><mask id="284a4f35c0"><g filter="url(#6e30e5af61)"><rect x="0" width="76" height="79" y="0" style="fill:#000000;fill-opacity:0.17;stroke:none;"/></g></mask></g></g><g clip-rule="nonzero" clip-path="url(#370040ed31)"><path style=" stroke:none;fill-rule:evenodd;fill:#8c52ff;fill-opacity:1;" d="M 35.679688 37.503906 C 36.808594 37.515625 37.730469 36.785156 38.46875 36.1875 C 39.222656 35.574219 39.894531 34.773438 40.414062 33.976562 C 42.667969 30.519531 41.914062 24.476562 41.941406 18.921875 C 41.957031 16.1875 41.796875 13.429688 42.203125 10.96875 C 42.910156 6.730469 46.207031 3.21875 50.628906 2.703125 C 53.347656 2.390625 55.484375 3.15625 57.316406 4.179688 C 59.101562 5.175781 60.679688 6.367188 62.367188 7.441406 C 64.421875 8.628906 66.1875 9.707031 68.105469 10.917969 C 69.964844 12.089844 71.804688 13.191406 73.109375 15.074219 C 74.425781 16.976562 74.84375 19.390625 74.84375 22.5 C 74.84375 37.394531 74.875 53.140625 74.953125 67.460938 C 74.980469 73.183594 71.570312 76.710938 66.789062 77.621094 C 63.886719 78.175781 61.320312 77.167969 59.472656 76.09375 C 57.414062 74.90625 55.5625 73.675781 53.785156 72.621094 C 51.910156 71.503906 50.09375 70.34375 48.101562 69.144531 C 45.121094 67.355469 42.789062 65.382812 42.152344 61.355469 C 41.941406 60.027344 41.996094 58.566406 41.996094 56.929688 C 41.996094 53.984375 41.972656 50.945312 41.835938 47.929688 C 41.1875 47.832031 40.597656 48.257812 40.148438 48.5625 C 37.75 50.1875 36.089844 52.578125 35.675781 56.195312 C 35.511719 57.617188 35.710938 59.214844 35.675781 60.933594 C 35.609375 64.199219 35.933594 67.429688 35.414062 70.039062 C 34.894531 72.625 33.601562 74.546875 31.675781 75.992188 C 29.867188 77.347656 27.023438 78.363281 24.09375 77.882812 C 22.664062 77.652344 21.570312 77.183594 20.515625 76.621094 C 19.476562 76.066406 18.59375 75.34375 17.566406 74.726562 C 15.566406 73.523438 13.492188 72.414062 11.460938 71.144531 C 7.5 68.675781 2.867188 66.839844 2.402344 60.878906 C 2.28125 59.308594 2.433594 57.734375 2.402344 56.140625 C 2.183594 44.738281 2.300781 33.78125 2.296875 22.554688 C 2.296875 19.285156 2.386719 16.117188 2.246094 13.128906 C 2.097656 9.914062 3.128906 7.671875 4.667969 5.863281 C 6.164062 4.105469 8.398438 2.765625 11.089844 2.441406 C 13.367188 2.167969 15.75 2.894531 17.195312 3.808594 C 21.074219 6.269531 24.820312 8.574219 28.675781 11.023438 C 29.433594 11.503906 30.253906 11.941406 30.988281 12.445312 C 34.230469 14.65625 35.515625 17.71875 35.519531 22.867188 C 35.519531 25.339844 35.519531 27.839844 35.519531 30.34375 C 35.519531 32.738281 35.402344 35.167969 35.679688 37.503906 Z M 31.78125 37.136719 C 30.191406 36.125 28.605469 35.101562 27.042969 34.132812 C 24.617188 32.441406 22.699219 30.308594 22.25 26.710938 C 21.972656 24.476562 22.027344 21.660156 22.144531 19.078125 C 22.226562 17.332031 22.113281 15.007812 22.09375 13.234375 C 22.085938 12.546875 22.125 11.542969 21.304688 11.863281 C 19 12.765625 16.914062 15.125 16.144531 17.761719 C 15.628906 19.515625 15.863281 21.648438 15.878906 23.710938 C 15.90625 26.410156 15.804688 29.179688 15.773438 31.921875 C 15.761719 32.949219 15.878906 33.976562 15.878906 35.03125 C 15.878906 40.488281 15.78125 45.792969 15.878906 51.140625 C 15.976562 56.238281 15.878906 61.617188 15.933594 66.882812 C 15.941406 67.523438 15.773438 68.285156 16.195312 68.828125 C 17.167969 68.828125 17.910156 68.117188 18.566406 67.566406 C 20.632812 65.820312 21.976562 63.417969 22.199219 59.929688 C 22.496094 55.253906 21.519531 48.90625 22.882812 45.191406 C 23.878906 42.480469 25.875 40.441406 28.515625 39.398438 C 29.867188 38.867188 31.410156 38.707031 33.148438 38.292969 C 33.015625 37.625 32.265625 37.445312 31.78125 37.136719 Z M 59 66.355469 C 59.875 65.417969 60.65625 64.269531 61.050781 62.933594 C 61.734375 60.625 61.472656 57.339844 61.472656 54.351562 C 61.472656 43.914062 61.421875 34.101562 61.421875 23.710938 C 61.421875 21.746094 61.3125 19.703125 61.367188 17.605469 C 61.386719 16.933594 61.367188 15.972656 61.367188 14.65625 C 61.367188 13.933594 61.597656 11.929688 61 11.917969 C 60.394531 11.910156 59.171875 12.921875 58.738281 13.289062 C 57.027344 14.722656 55.632812 16.925781 55.367188 19.605469 C 55.101562 22.28125 55.367188 25.445312 55.367188 28.554688 C 55.367188 31.664062 55.566406 34.84375 55.367188 37.613281 C 55.035156 42.242188 52.164062 45.269531 48.46875 46.453125 C 47.265625 46.84375 45.925781 46.832031 44.414062 47.140625 C 44.492188 47.816406 45.195312 47.867188 45.574219 48.246094 C 48.855469 50.453125 52.566406 51.953125 54.367188 55.617188 C 55.582031 58.09375 55.417969 61.6875 55.417969 65.300781 C 55.417969 66.414062 55.242188 67.601562 55.734375 68.515625 C 57.035156 68.28125 58.117188 67.296875 59 66.355469 Z M 59 66.355469 "/></g></g></g><g transform="matrix(1,0,0,1,120,170)"><g clip-path="url(#f8bd0cbb5b)"><g style="fill:#ffffff;fill-opacity:1;"><g transform="translate(0.303988, 32.044313)"><path style="stroke:none" d="M 9.03125 0 L 3.5625 0 L 3.5625 -29.890625 L 9.03125 -29.890625 L 9.03125 -17.5 L 24.109375 -17.5 L 24.109375 -29.890625 L 29.609375 -29.890625 L 29.609375 0 L 24.109375 0 L 24.109375 -12.609375 L 9.03125 -12.609375 Z M 9.03125 0 "/></g><g transform="translate(33.468257, 32.044313)"><path style="stroke:none" d="M 12.15625 0.6875 C 10.632812 0.6875 9.222656 0.378906 7.921875 -0.234375 C 6.628906 -0.859375 5.5 -1.71875 4.53125 -2.8125 C 3.570312 -3.914062 2.828125 -5.191406 2.296875 -6.640625 C 1.773438 -8.085938 1.515625 -9.640625 1.515625 -11.296875 C 1.515625 -12.953125 1.78125 -14.5 2.3125 -15.9375 C 2.851562 -17.382812 3.601562 -18.65625 4.5625 -19.75 C 5.519531 -20.851562 6.644531 -21.71875 7.9375 -22.34375 C 9.226562 -22.96875 10.628906 -23.28125 12.140625 -23.28125 C 13.984375 -23.28125 15.617188 -22.878906 17.046875 -22.078125 C 18.484375 -21.273438 19.5625 -20.171875 20.28125 -18.765625 L 20.28125 -22.59375 L 25.34375 -22.59375 L 25.34375 0 L 20.28125 0 L 20.28125 -3.796875 C 19.550781 -2.390625 18.472656 -1.289062 17.046875 -0.5 C 15.617188 0.289062 13.988281 0.6875 12.15625 0.6875 Z M 13.4375 -4.25 C 14.351562 -4.25 15.210938 -4.425781 16.015625 -4.78125 C 16.828125 -5.132812 17.535156 -5.628906 18.140625 -6.265625 C 18.753906 -6.910156 19.226562 -7.660156 19.5625 -8.515625 C 19.894531 -9.367188 20.0625 -10.296875 20.0625 -11.296875 C 20.0625 -12.273438 19.890625 -13.191406 19.546875 -14.046875 C 19.203125 -14.910156 18.726562 -15.664062 18.125 -16.3125 C 17.53125 -16.957031 16.828125 -17.457031 16.015625 -17.8125 C 15.210938 -18.175781 14.351562 -18.359375 13.4375 -18.359375 C 12.21875 -18.359375 11.101562 -18.0625 10.09375 -17.46875 C 9.09375 -16.882812 8.289062 -16.066406 7.6875 -15.015625 C 7.09375 -13.960938 6.796875 -12.722656 6.796875 -11.296875 C 6.796875 -9.828125 7.097656 -8.566406 7.703125 -7.515625 C 8.304688 -6.460938 9.113281 -5.65625 10.125 -5.09375 C 11.144531 -4.53125 12.25 -4.25 13.4375 -4.25 Z M 13.4375 -4.25 "/></g><g transform="translate(61.929309, 32.044313)"><path style="stroke:none" d="M 8.4375 0 L 3.125 0 L 3.125 -22.59375 L 8.21875 -22.59375 L 8.21875 -18.5 C 8.75 -19.75 9.523438 -20.742188 10.546875 -21.484375 C 11.578125 -22.222656 12.820312 -22.59375 14.28125 -22.59375 L 16.703125 -22.59375 L 16.703125 -18.03125 L 14.578125 -18.03125 C 13.359375 -18.03125 12.285156 -17.734375 11.359375 -17.140625 C 10.441406 -16.554688 9.722656 -15.707031 9.203125 -14.59375 C 8.691406 -13.476562 8.4375 -12.113281 8.4375 -10.5 Z M 8.4375 0 "/></g><g transform="translate(79.313628, 32.044313)"><path style="stroke:none" d="M 13.28125 0.6875 C 11.769531 0.6875 10.367188 0.472656 9.078125 0.046875 C 7.785156 -0.367188 6.65625 -1.019531 5.6875 -1.90625 C 4.726562 -2.800781 3.976562 -3.957031 3.4375 -5.375 C 2.90625 -6.800781 2.640625 -8.519531 2.640625 -10.53125 L 2.640625 -22.59375 L 7.90625 -22.59375 L 7.90625 -10.6875 C 7.90625 -8.601562 8.351562 -7.007812 9.25 -5.90625 C 10.144531 -4.8125 11.476562 -4.265625 13.25 -4.265625 C 15.039062 -4.265625 16.375 -4.816406 17.25 -5.921875 C 18.132812 -7.023438 18.578125 -8.613281 18.578125 -10.6875 L 18.578125 -22.59375 L 23.875 -22.59375 L 23.875 -10.53125 C 23.875 -8.519531 23.601562 -6.800781 23.0625 -5.375 C 22.53125 -3.957031 21.78125 -2.800781 20.8125 -1.90625 C 19.84375 -1.019531 18.71875 -0.367188 17.4375 0.046875 C 16.15625 0.472656 14.769531 0.6875 13.28125 0.6875 Z M 13.28125 0.6875 "/></g><g transform="translate(105.818669, 32.044313)"><path style="stroke:none" d="M 13.1875 0.6875 C 11.5 0.6875 9.941406 0.375 8.515625 -0.25 C 7.097656 -0.875 5.863281 -1.734375 4.8125 -2.828125 C 3.769531 -3.929688 2.957031 -5.207031 2.375 -6.65625 C 1.800781 -8.113281 1.515625 -9.660156 1.515625 -11.296875 C 1.515625 -12.941406 1.800781 -14.484375 2.375 -15.921875 C 2.957031 -17.367188 3.769531 -18.644531 4.8125 -19.75 C 5.863281 -20.851562 7.097656 -21.71875 8.515625 -22.34375 C 9.941406 -22.96875 11.5 -23.28125 13.1875 -23.28125 C 15.132812 -23.28125 16.875 -22.898438 18.40625 -22.140625 C 19.9375 -21.390625 21.21875 -20.359375 22.25 -19.046875 C 23.28125 -17.742188 24.007812 -16.265625 24.4375 -14.609375 L 19.015625 -14.609375 C 18.515625 -15.867188 17.742188 -16.800781 16.703125 -17.40625 C 15.660156 -18.019531 14.492188 -18.328125 13.203125 -18.328125 C 12.390625 -18.328125 11.597656 -18.171875 10.828125 -17.859375 C 10.066406 -17.546875 9.382812 -17.085938 8.78125 -16.484375 C 8.175781 -15.878906 7.691406 -15.140625 7.328125 -14.265625 C 6.972656 -13.398438 6.796875 -12.410156 6.796875 -11.296875 C 6.796875 -10.179688 6.972656 -9.1875 7.328125 -8.3125 C 7.691406 -7.445312 8.175781 -6.707031 8.78125 -6.09375 C 9.382812 -5.488281 10.070312 -5.03125 10.84375 -4.71875 C 11.613281 -4.40625 12.398438 -4.25 13.203125 -4.25 C 14.492188 -4.25 15.660156 -4.566406 16.703125 -5.203125 C 17.742188 -5.835938 18.515625 -6.859375 19.015625 -8.265625 L 24.421875 -8.265625 C 24.035156 -6.523438 23.320312 -4.976562 22.28125 -3.625 C 21.25 -2.28125 19.957031 -1.222656 18.40625 -0.453125 C 16.863281 0.304688 15.125 0.6875 13.1875 0.6875 Z M 13.1875 0.6875 "/></g><g transform="translate(131.422627, 32.044313)"><path style="stroke:none" d="M 13.390625 0.6875 C 11.671875 0.6875 10.085938 0.378906 8.640625 -0.234375 C 7.191406 -0.859375 5.9375 -1.71875 4.875 -2.8125 C 3.8125 -3.914062 2.984375 -5.191406 2.390625 -6.640625 C 1.804688 -8.085938 1.515625 -9.640625 1.515625 -11.296875 C 1.515625 -12.953125 1.804688 -14.5 2.390625 -15.9375 C 2.984375 -17.382812 3.8125 -18.65625 4.875 -19.75 C 5.9375 -20.851562 7.191406 -21.71875 8.640625 -22.34375 C 10.085938 -22.96875 11.675781 -23.28125 13.40625 -23.28125 C 15.15625 -23.28125 16.753906 -22.96875 18.203125 -22.34375 C 19.648438 -21.71875 20.90625 -20.851562 21.96875 -19.75 C 23.039062 -18.65625 23.867188 -17.382812 24.453125 -15.9375 C 25.046875 -14.5 25.34375 -12.953125 25.34375 -11.296875 C 25.34375 -9.628906 25.046875 -8.070312 24.453125 -6.625 C 23.867188 -5.1875 23.039062 -3.914062 21.96875 -2.8125 C 20.90625 -1.71875 19.644531 -0.859375 18.1875 -0.234375 C 16.726562 0.378906 15.128906 0.6875 13.390625 0.6875 Z M 13.4375 -4.265625 C 14.707031 -4.265625 15.835938 -4.566406 16.828125 -5.171875 C 17.828125 -5.785156 18.613281 -6.617188 19.1875 -7.671875 C 19.769531 -8.722656 20.0625 -9.929688 20.0625 -11.296875 C 20.0625 -12.660156 19.769531 -13.875 19.1875 -14.9375 C 18.613281 -16 17.828125 -16.832031 16.828125 -17.4375 C 15.835938 -18.050781 14.707031 -18.359375 13.4375 -18.359375 C 12.175781 -18.359375 11.039062 -18.050781 10.03125 -17.4375 C 9.03125 -16.832031 8.238281 -16 7.65625 -14.9375 C 7.082031 -13.875 6.796875 -12.660156 6.796875 -11.296875 C 6.796875 -9.929688 7.082031 -8.722656 7.65625 -7.671875 C 8.238281 -6.617188 9.03125 -5.785156 10.03125 -5.171875 C 11.039062 -4.566406 12.175781 -4.265625 13.4375 -4.265625 Z M 13.4375 -4.265625 "/></g><g transform="translate(158.279312, 32.044313)"><path style="stroke:none" d="M 12.4375 0.6875 C 10.84375 0.6875 9.375 0.378906 8.03125 -0.234375 C 6.6875 -0.859375 5.53125 -1.71875 4.5625 -2.8125 C 3.601562 -3.914062 2.851562 -5.191406 2.3125 -6.640625 C 1.78125 -8.085938 1.515625 -9.640625 1.515625 -11.296875 C 1.515625 -12.953125 1.773438 -14.5 2.296875 -15.9375 C 2.816406 -17.382812 3.5625 -18.65625 4.53125 -19.75 C 5.507812 -20.851562 6.671875 -21.71875 8.015625 -22.34375 C 9.367188 -22.96875 10.863281 -23.28125 12.5 -23.28125 C 13.738281 -23.28125 14.859375 -23.0625 15.859375 -22.625 C 16.859375 -22.195312 17.722656 -21.648438 18.453125 -20.984375 C 19.179688 -20.316406 19.742188 -19.625 20.140625 -18.90625 L 20.03125 -21.25 L 20.03125 -30.953125 L 25.328125 -30.953125 L 25.328125 0 L 20.265625 0 L 20.265625 -3.796875 C 19.828125 -3.003906 19.234375 -2.269531 18.484375 -1.59375 C 17.734375 -0.914062 16.851562 -0.367188 15.84375 0.046875 C 14.832031 0.472656 13.695312 0.6875 12.4375 0.6875 Z M 13.40625 -4.21875 C 14.332031 -4.21875 15.195312 -4.394531 16 -4.75 C 16.800781 -5.113281 17.503906 -5.617188 18.109375 -6.265625 C 18.722656 -6.910156 19.203125 -7.660156 19.546875 -8.515625 C 19.890625 -9.367188 20.0625 -10.296875 20.0625 -11.296875 C 20.0625 -12.296875 19.894531 -13.21875 19.5625 -14.0625 C 19.226562 -14.914062 18.753906 -15.664062 18.140625 -16.3125 C 17.535156 -16.957031 16.828125 -17.457031 16.015625 -17.8125 C 15.210938 -18.175781 14.34375 -18.359375 13.40625 -18.359375 C 12.164062 -18.359375 11.035156 -18.050781 10.015625 -17.4375 C 9.003906 -16.832031 8.207031 -16 7.625 -14.9375 C 7.039062 -13.882812 6.75 -12.671875 6.75 -11.296875 C 6.75 -9.960938 7.035156 -8.757812 7.609375 -7.6875 C 8.179688 -6.625 8.96875 -5.78125 9.96875 -5.15625 C 10.96875 -4.53125 12.113281 -4.21875 13.40625 -4.21875 Z M 13.40625 -4.21875 "/></g><g transform="translate(186.696409, 32.044313)"><path style="stroke:none" d="M 24.625 -11.6875 C 24.625 -11.414062 24.613281 -11.15625 24.59375 -10.90625 C 24.582031 -10.65625 24.554688 -10.316406 24.515625 -9.890625 L 6.859375 -9.890625 C 7.046875 -8.660156 7.4375 -7.613281 8.03125 -6.75 C 8.625 -5.882812 9.359375 -5.21875 10.234375 -4.75 C 11.117188 -4.289062 12.082031 -4.0625 13.125 -4.0625 C 14.46875 -4.0625 15.554688 -4.328125 16.390625 -4.859375 C 17.234375 -5.398438 17.84375 -6.144531 18.21875 -7.09375 L 24.03125 -7.09375 C 23.75 -6.082031 23.285156 -5.109375 22.640625 -4.171875 C 22.003906 -3.234375 21.222656 -2.398438 20.296875 -1.671875 C 19.378906 -0.953125 18.320312 -0.378906 17.125 0.046875 C 15.9375 0.472656 14.640625 0.6875 13.234375 0.6875 C 11.535156 0.6875 9.96875 0.375 8.53125 -0.25 C 7.101562 -0.875 5.863281 -1.734375 4.8125 -2.828125 C 3.769531 -3.929688 2.957031 -5.207031 2.375 -6.65625 C 1.800781 -8.113281 1.515625 -9.660156 1.515625 -11.296875 C 1.515625 -12.953125 1.800781 -14.5 2.375 -15.9375 C 2.957031 -17.382812 3.769531 -18.65625 4.8125 -19.75 C 5.863281 -20.851562 7.101562 -21.71875 8.53125 -22.34375 C 9.96875 -22.96875 11.535156 -23.28125 13.234375 -23.28125 C 14.929688 -23.28125 16.476562 -22.972656 17.875 -22.359375 C 19.28125 -21.742188 20.484375 -20.894531 21.484375 -19.8125 C 22.484375 -18.738281 23.253906 -17.503906 23.796875 -16.109375 C 24.347656 -14.710938 24.625 -13.238281 24.625 -11.6875 Z M 7.078125 -14 L 19.1875 -14 C 19.113281 -14.851562 18.796875 -15.625 18.234375 -16.3125 C 17.679688 -17.007812 16.960938 -17.570312 16.078125 -18 C 15.203125 -18.425781 14.242188 -18.640625 13.203125 -18.640625 C 12.316406 -18.640625 11.460938 -18.472656 10.640625 -18.140625 C 9.816406 -17.816406 9.09375 -17.3125 8.46875 -16.625 C 7.851562 -15.945312 7.390625 -15.070312 7.078125 -14 Z M 7.078125 -14 "/></g></g></g></g><g transform="matrix(1,0,0,1,178,207)"><g clip-path="url(#d3cc3dec98)"><g style="fill:#8c52ff;fill-opacity:1;"><g transform="translate(1.229099, 7.945442)"><path style="stroke:none" d="M 2.265625 -5.015625 C 2.828125 -5.015625 3.253906 -4.875 3.546875 -4.59375 C 3.847656 -4.3125 4.023438 -3.9375 4.078125 -3.46875 L 3.078125 -3.46875 C 3.046875 -3.726562 2.957031 -3.925781 2.8125 -4.0625 C 2.675781 -4.207031 2.484375 -4.28125 2.234375 -4.28125 C 2.023438 -4.28125 1.851562 -4.226562 1.71875 -4.125 C 1.59375 -4.03125 1.53125 -3.890625 1.53125 -3.703125 C 1.53125 -3.492188 1.609375 -3.328125 1.765625 -3.203125 C 1.921875 -3.085938 2.195312 -2.984375 2.59375 -2.890625 C 3.125 -2.765625 3.515625 -2.578125 3.765625 -2.328125 C 4.023438 -2.078125 4.15625 -1.753906 4.15625 -1.359375 C 4.15625 -0.910156 3.976562 -0.554688 3.625 -0.296875 C 3.269531 -0.0351562 2.84375 0.09375 2.34375 0.09375 C 1.738281 0.09375 1.257812 -0.0351562 0.90625 -0.296875 C 0.550781 -0.554688 0.347656 -0.941406 0.296875 -1.453125 L 1.296875 -1.453125 C 1.347656 -1.191406 1.46875 -0.988281 1.65625 -0.84375 C 1.84375 -0.707031 2.066406 -0.640625 2.328125 -0.640625 C 2.554688 -0.640625 2.742188 -0.691406 2.890625 -0.796875 C 3.046875 -0.910156 3.125 -1.0625 3.125 -1.25 C 3.125 -1.457031 3.046875 -1.625 2.890625 -1.75 C 2.742188 -1.882812 2.492188 -1.992188 2.140625 -2.078125 C 1.585938 -2.210938 1.175781 -2.390625 0.90625 -2.609375 C 0.632812 -2.828125 0.5 -3.148438 0.5 -3.578125 C 0.5 -4.015625 0.671875 -4.363281 1.015625 -4.625 C 1.359375 -4.882812 1.773438 -5.015625 2.265625 -5.015625 Z M 2.265625 -5.015625 "/></g></g><g style="fill:#8c52ff;fill-opacity:1;"><g transform="translate(5.556838, 7.945442)"><path style="stroke:none" d="M 2.796875 -5.015625 C 3.546875 -5.015625 4.132812 -4.78125 4.5625 -4.3125 C 5 -3.851562 5.21875 -3.234375 5.21875 -2.453125 C 5.21875 -1.679688 5 -1.0625 4.5625 -0.59375 C 4.132812 -0.132812 3.546875 0.09375 2.796875 0.09375 C 2.046875 0.09375 1.453125 -0.132812 1.015625 -0.59375 C 0.578125 -1.0625 0.359375 -1.679688 0.359375 -2.453125 C 0.359375 -3.234375 0.570312 -3.851562 1 -4.3125 C 1.4375 -4.78125 2.035156 -5.015625 2.796875 -5.015625 Z M 1.765625 -1.109375 C 2.015625 -0.796875 2.359375 -0.640625 2.796875 -0.640625 C 3.234375 -0.640625 3.570312 -0.800781 3.8125 -1.125 C 4.0625 -1.445312 4.1875 -1.890625 4.1875 -2.453125 C 4.1875 -3.023438 4.0625 -3.472656 3.8125 -3.796875 C 3.570312 -4.117188 3.234375 -4.28125 2.796875 -4.28125 C 2.347656 -4.28125 2 -4.117188 1.75 -3.796875 C 1.507812 -3.472656 1.390625 -3.023438 1.390625 -2.453125 C 1.390625 -1.878906 1.515625 -1.429688 1.765625 -1.109375 Z M 1.765625 -1.109375 "/></g></g><g style="fill:#8c52ff;fill-opacity:1;"><g transform="translate(11.002105, 7.945442)"><path style="stroke:none" d="M 4.1875 -0.8125 L 4.1875 0 L 0.640625 0 L 0.640625 -4.921875 L 1.625 -4.921875 L 1.625 -0.8125 Z M 4.1875 -0.8125 "/></g></g><g style="fill:#8c52ff;fill-opacity:1;"><g transform="translate(15.30137, 7.945442)"><path style="stroke:none" d="M 4.625 -4.921875 L 4.625 -2 C 4.625 -1.769531 4.617188 -1.578125 4.609375 -1.421875 C 4.578125 -0.972656 4.394531 -0.609375 4.0625 -0.328125 C 3.726562 -0.046875 3.238281 0.09375 2.59375 0.09375 C 1.945312 0.09375 1.457031 -0.046875 1.125 -0.328125 C 0.800781 -0.609375 0.617188 -0.972656 0.578125 -1.421875 C 0.566406 -1.578125 0.5625 -1.769531 0.5625 -2 L 0.5625 -4.921875 L 1.546875 -4.921875 L 1.546875 -1.90625 C 1.546875 -1.738281 1.550781 -1.617188 1.5625 -1.546875 C 1.582031 -1.253906 1.675781 -1.03125 1.84375 -0.875 C 2.019531 -0.71875 2.269531 -0.640625 2.59375 -0.640625 C 2.914062 -0.640625 3.160156 -0.71875 3.328125 -0.875 C 3.503906 -1.03125 3.609375 -1.253906 3.640625 -1.546875 C 3.640625 -1.617188 3.640625 -1.738281 3.640625 -1.90625 L 3.640625 -4.921875 Z M 4.625 -4.921875 "/></g></g><g clip-rule="nonzero" clip-path="url(#ab71f8e0e7)"><g style="fill:#8c52ff;fill-opacity:1;"><g transform="translate(20.298199, 7.945442)"><path style="stroke:none" d="M 3.875 -1.703125 L 4.84375 -1.703125 L 4.84375 -1.625 C 4.789062 -1.113281 4.582031 -0.703125 4.21875 -0.390625 C 3.851562 -0.078125 3.378906 0.0820312 2.796875 0.09375 L 2.6875 0.296875 C 3.113281 0.347656 3.328125 0.535156 3.328125 0.859375 C 3.328125 1.078125 3.226562 1.238281 3.03125 1.34375 C 2.84375 1.445312 2.585938 1.5 2.265625 1.5 C 2.117188 1.5 1.992188 1.484375 1.890625 1.453125 L 1.890625 1.03125 C 2.015625 1.070312 2.144531 1.09375 2.28125 1.09375 C 2.570312 1.09375 2.71875 1.007812 2.71875 0.84375 C 2.71875 0.644531 2.488281 0.5625 2.03125 0.59375 L 2.296875 0.078125 C 1.703125 -0.00390625 1.226562 -0.265625 0.875 -0.703125 C 0.53125 -1.148438 0.359375 -1.722656 0.359375 -2.421875 C 0.359375 -3.210938 0.582031 -3.84375 1.03125 -4.3125 C 1.476562 -4.78125 2.050781 -5.015625 2.75 -5.015625 C 3.382812 -5.015625 3.878906 -4.859375 4.234375 -4.546875 C 4.597656 -4.234375 4.804688 -3.820312 4.859375 -3.3125 L 4.875 -3.25 L 3.890625 -3.25 L 3.875 -3.3125 C 3.75 -3.957031 3.367188 -4.28125 2.734375 -4.28125 C 2.328125 -4.28125 2.003906 -4.117188 1.765625 -3.796875 C 1.523438 -3.472656 1.40625 -3.035156 1.40625 -2.484375 C 1.40625 -1.890625 1.523438 -1.429688 1.765625 -1.109375 C 2.003906 -0.796875 2.320312 -0.640625 2.71875 -0.640625 C 3.03125 -0.640625 3.28125 -0.722656 3.46875 -0.890625 C 3.65625 -1.066406 3.785156 -1.3125 3.859375 -1.625 Z M 3.875 -1.703125 "/></g></g></g><g style="fill:#8c52ff;fill-opacity:1;"><g transform="translate(25.408916, 7.945442)"><path style="stroke:none" d="M 2.421875 -5.5 C 2.347656 -5.5 2.3125 -5.4375 2.3125 -5.3125 L 1.8125 -5.3125 C 1.8125 -5.582031 1.851562 -5.773438 1.9375 -5.890625 C 2.019531 -6.003906 2.148438 -6.0625 2.328125 -6.0625 C 2.492188 -6.0625 2.664062 -6.023438 2.84375 -5.953125 C 3 -5.890625 3.109375 -5.859375 3.171875 -5.859375 C 3.242188 -5.859375 3.28125 -5.921875 3.28125 -6.046875 L 3.78125 -6.046875 C 3.78125 -5.773438 3.738281 -5.578125 3.65625 -5.453125 C 3.570312 -5.335938 3.4375 -5.28125 3.25 -5.28125 C 3.113281 -5.28125 2.941406 -5.320312 2.734375 -5.40625 C 2.578125 -5.46875 2.472656 -5.5 2.421875 -5.5 Z M 2.796875 -5.015625 C 3.546875 -5.015625 4.132812 -4.78125 4.5625 -4.3125 C 5 -3.851562 5.21875 -3.234375 5.21875 -2.453125 C 5.21875 -1.679688 5 -1.0625 4.5625 -0.59375 C 4.132812 -0.132812 3.546875 0.09375 2.796875 0.09375 C 2.046875 0.09375 1.453125 -0.132812 1.015625 -0.59375 C 0.578125 -1.0625 0.359375 -1.679688 0.359375 -2.453125 C 0.359375 -3.234375 0.570312 -3.851562 1 -4.3125 C 1.4375 -4.78125 2.035156 -5.015625 2.796875 -5.015625 Z M 1.765625 -1.109375 C 2.015625 -0.796875 2.359375 -0.640625 2.796875 -0.640625 C 3.234375 -0.640625 3.570312 -0.800781 3.8125 -1.125 C 4.0625 -1.445312 4.1875 -1.890625 4.1875 -2.453125 C 4.1875 -3.023438 4.0625 -3.472656 3.8125 -3.796875 C 3.570312 -4.117188 3.234375 -4.28125 2.796875 -4.28125 C 2.347656 -4.28125 2 -4.117188 1.75 -3.796875 C 1.507812 -3.472656 1.390625 -3.023438 1.390625 -2.453125 C 1.390625 -1.878906 1.515625 -1.429688 1.765625 -1.109375 Z M 1.765625 -1.109375 "/></g></g><g style="fill:#8c52ff;fill-opacity:1;"><g transform="translate(30.854182, 7.945442)"><path style="stroke:none" d="M 4.1875 -0.78125 L 4.1875 0 L 0.640625 0 L 0.640625 -4.921875 L 4.109375 -4.921875 L 4.109375 -4.140625 L 1.625 -4.140625 L 1.625 -2.84375 L 3.9375 -2.84375 L 3.9375 -2.078125 L 1.625 -2.078125 L 1.625 -0.78125 Z M 4.1875 -0.78125 "/></g></g><g style="fill:#8c52ff;fill-opacity:1;"><g transform="translate(35.23887, 7.945442)"><path style="stroke:none" d="M 2.265625 -5.015625 C 2.828125 -5.015625 3.253906 -4.875 3.546875 -4.59375 C 3.847656 -4.3125 4.023438 -3.9375 4.078125 -3.46875 L 3.078125 -3.46875 C 3.046875 -3.726562 2.957031 -3.925781 2.8125 -4.0625 C 2.675781 -4.207031 2.484375 -4.28125 2.234375 -4.28125 C 2.023438 -4.28125 1.851562 -4.226562 1.71875 -4.125 C 1.59375 -4.03125 1.53125 -3.890625 1.53125 -3.703125 C 1.53125 -3.492188 1.609375 -3.328125 1.765625 -3.203125 C 1.921875 -3.085938 2.195312 -2.984375 2.59375 -2.890625 C 3.125 -2.765625 3.515625 -2.578125 3.765625 -2.328125 C 4.023438 -2.078125 4.15625 -1.753906 4.15625 -1.359375 C 4.15625 -0.910156 3.976562 -0.554688 3.625 -0.296875 C 3.269531 -0.0351562 2.84375 0.09375 2.34375 0.09375 C 1.738281 0.09375 1.257812 -0.0351562 0.90625 -0.296875 C 0.550781 -0.554688 0.347656 -0.941406 0.296875 -1.453125 L 1.296875 -1.453125 C 1.347656 -1.191406 1.46875 -0.988281 1.65625 -0.84375 C 1.84375 -0.707031 2.066406 -0.640625 2.328125 -0.640625 C 2.554688 -0.640625 2.742188 -0.691406 2.890625 -0.796875 C 3.046875 -0.910156 3.125 -1.0625 3.125 -1.25 C 3.125 -1.457031 3.046875 -1.625 2.890625 -1.75 C 2.742188 -1.882812 2.492188 -1.992188 2.140625 -2.078125 C 1.585938 -2.210938 1.175781 -2.390625 0.90625 -2.609375 C 0.632812 -2.828125 0.5 -3.148438 0.5 -3.578125 C 0.5 -4.015625 0.671875 -4.363281 1.015625 -4.625 C 1.359375 -4.882812 1.773438 -5.015625 2.265625 -5.015625 Z M 2.265625 -5.015625 "/></g></g><g style="fill:#8c52ff;fill-opacity:1;"><g transform="translate(39.566609, 7.945442)"><path style="stroke:none" d=""/></g></g><g style="fill:#8c52ff;fill-opacity:1;"><g transform="translate(40.9475, 7.945442)"><path style="stroke:none" d="M 4.484375 -4.140625 L 2.8125 -4.140625 L 2.8125 0 L 1.828125 0 L 1.828125 -4.140625 L 0.15625 -4.140625 L 0.15625 -4.921875 L 4.484375 -4.921875 Z M 4.484375 -4.140625 "/></g></g><g style="fill:#8c52ff;fill-opacity:1;"><g transform="translate(45.382013, 7.945442)"><path style="stroke:none" d="M 4.1875 -0.78125 L 4.1875 0 L 0.640625 0 L 0.640625 -4.921875 L 4.109375 -4.921875 L 4.109375 -4.140625 L 1.625 -4.140625 L 1.625 -2.84375 L 3.9375 -2.84375 L 3.9375 -2.078125 L 1.625 -2.078125 L 1.625 -0.78125 Z M 4.1875 -0.78125 "/></g></g><g style="fill:#8c52ff;fill-opacity:1;"><g transform="translate(49.7667, 7.945442)"><path style="stroke:none" d="M 2.75 -5.015625 C 3.382812 -5.015625 3.878906 -4.859375 4.234375 -4.546875 C 4.597656 -4.234375 4.804688 -3.820312 4.859375 -3.3125 L 4.875 -3.25 L 3.890625 -3.25 L 3.875 -3.3125 C 3.75 -3.957031 3.367188 -4.28125 2.734375 -4.28125 C 2.328125 -4.28125 2.003906 -4.117188 1.765625 -3.796875 C 1.523438 -3.472656 1.40625 -3.035156 1.40625 -2.484375 C 1.40625 -1.890625 1.523438 -1.429688 1.765625 -1.109375 C 2.003906 -0.796875 2.320312 -0.640625 2.71875 -0.640625 C 3.03125 -0.640625 3.28125 -0.722656 3.46875 -0.890625 C 3.65625 -1.066406 3.785156 -1.3125 3.859375 -1.625 L 3.875 -1.703125 L 4.84375 -1.703125 L 4.84375 -1.625 C 4.789062 -1.09375 4.570312 -0.671875 4.1875 -0.359375 C 3.800781 -0.0546875 3.296875 0.09375 2.671875 0.09375 C 1.972656 0.09375 1.410156 -0.128906 0.984375 -0.578125 C 0.566406 -1.035156 0.359375 -1.648438 0.359375 -2.421875 C 0.359375 -3.210938 0.582031 -3.84375 1.03125 -4.3125 C 1.476562 -4.78125 2.050781 -5.015625 2.75 -5.015625 Z M 2.75 -5.015625 "/></g></g><g style="fill:#8c52ff;fill-opacity:1;"><g transform="translate(54.877417, 7.945442)"><path style="stroke:none" d="M 4.953125 0 L 3.609375 0 L 1.578125 -3.734375 C 1.609375 -3.285156 1.625 -2.78125 1.625 -2.21875 L 1.625 0 L 0.640625 0 L 0.640625 -4.921875 L 1.9375 -4.921875 L 4 -1.109375 C 3.976562 -1.554688 3.96875 -2.070312 3.96875 -2.65625 L 3.96875 -4.921875 L 4.9375 -4.921875 Z M 4.953125 0 "/></g></g><g style="fill:#8c52ff;fill-opacity:1;"><g transform="translate(60.287096, 7.945442)"><path style="stroke:none" d="M 2.796875 -5.015625 C 3.546875 -5.015625 4.132812 -4.78125 4.5625 -4.3125 C 5 -3.851562 5.21875 -3.234375 5.21875 -2.453125 C 5.21875 -1.679688 5 -1.0625 4.5625 -0.59375 C 4.132812 -0.132812 3.546875 0.09375 2.796875 0.09375 C 2.046875 0.09375 1.453125 -0.132812 1.015625 -0.59375 C 0.578125 -1.0625 0.359375 -1.679688 0.359375 -2.453125 C 0.359375 -3.234375 0.570312 -3.851562 1 -4.3125 C 1.4375 -4.78125 2.035156 -5.015625 2.796875 -5.015625 Z M 1.765625 -1.109375 C 2.015625 -0.796875 2.359375 -0.640625 2.796875 -0.640625 C 3.234375 -0.640625 3.570312 -0.800781 3.8125 -1.125 C 4.0625 -1.445312 4.1875 -1.890625 4.1875 -2.453125 C 4.1875 -3.023438 4.0625 -3.472656 3.8125 -3.796875 C 3.570312 -4.117188 3.234375 -4.28125 2.796875 -4.28125 C 2.347656 -4.28125 2 -4.117188 1.75 -3.796875 C 1.507812 -3.472656 1.390625 -3.023438 1.390625 -2.453125 C 1.390625 -1.878906 1.515625 -1.429688 1.765625 -1.109375 Z M 1.765625 -1.109375 "/></g></g><g style="fill:#8c52ff;fill-opacity:1;"><g transform="translate(65.732362, 7.945442)"><path style="stroke:none" d="M 4.1875 -0.8125 L 4.1875 0 L 0.640625 0 L 0.640625 -4.921875 L 1.625 -4.921875 L 1.625 -0.8125 Z M 4.1875 -0.8125 "/></g></g><g style="fill:#8c52ff;fill-opacity:1;"><g transform="translate(70.031627, 7.945442)"><path style="stroke:none" d="M 3.03125 -5.234375 L 2.46875 -5.234375 L 3 -6.03125 L 3.890625 -6.03125 Z M 2.796875 -5.015625 C 3.546875 -5.015625 4.132812 -4.78125 4.5625 -4.3125 C 5 -3.851562 5.21875 -3.234375 5.21875 -2.453125 C 5.21875 -1.679688 5 -1.0625 4.5625 -0.59375 C 4.132812 -0.132812 3.546875 0.09375 2.796875 0.09375 C 2.046875 0.09375 1.453125 -0.132812 1.015625 -0.59375 C 0.578125 -1.0625 0.359375 -1.679688 0.359375 -2.453125 C 0.359375 -3.234375 0.570312 -3.851562 1 -4.3125 C 1.4375 -4.78125 2.035156 -5.015625 2.796875 -5.015625 Z M 1.765625 -1.109375 C 2.015625 -0.796875 2.359375 -0.640625 2.796875 -0.640625 C 3.234375 -0.640625 3.570312 -0.800781 3.8125 -1.125 C 4.0625 -1.445312 4.1875 -1.890625 4.1875 -2.453125 C 4.1875 -3.023438 4.0625 -3.472656 3.8125 -3.796875 C 3.570312 -4.117188 3.234375 -4.28125 2.796875 -4.28125 C 2.347656 -4.28125 2 -4.117188 1.75 -3.796875 C 1.507812 -3.472656 1.390625 -3.023438 1.390625 -2.453125 C 1.390625 -1.878906 1.515625 -1.429688 1.765625 -1.109375 Z M 1.765625 -1.109375 "/></g></g><g style="fill:#8c52ff;fill-opacity:1;"><g transform="translate(75.476894, 7.945442)"><path style="stroke:none" d="M 2.890625 -2.515625 L 4.859375 -2.515625 L 4.859375 0 L 4.078125 0 L 4.015625 -0.796875 L 3.796875 -0.296875 C 3.523438 -0.0351562 3.125 0.09375 2.59375 0.09375 C 1.90625 0.09375 1.359375 -0.128906 0.953125 -0.578125 C 0.554688 -1.035156 0.359375 -1.648438 0.359375 -2.421875 C 0.359375 -3.210938 0.585938 -3.84375 1.046875 -4.3125 C 1.503906 -4.78125 2.082031 -5.015625 2.78125 -5.015625 C 3.425781 -5.015625 3.925781 -4.859375 4.28125 -4.546875 C 4.644531 -4.234375 4.851562 -3.820312 4.90625 -3.3125 L 4.921875 -3.25 L 3.9375 -3.25 L 3.921875 -3.3125 C 3.785156 -3.957031 3.398438 -4.28125 2.765625 -4.28125 C 2.367188 -4.28125 2.039062 -4.117188 1.78125 -3.796875 C 1.53125 -3.472656 1.40625 -3.035156 1.40625 -2.484375 C 1.40625 -1.890625 1.523438 -1.429688 1.765625 -1.109375 C 2.015625 -0.796875 2.34375 -0.640625 2.75 -0.640625 C 3.0625 -0.640625 3.320312 -0.734375 3.53125 -0.921875 C 3.75 -1.117188 3.878906 -1.390625 3.921875 -1.734375 L 2.890625 -1.734375 Z M 2.890625 -2.515625 "/></g></g><g style="fill:#8c52ff;fill-opacity:1;"><g transform="translate(80.72285, 7.945442)"><path style="stroke:none" d="M 1.625 0 L 0.640625 0 L 0.640625 -4.921875 L 1.625 -4.921875 Z M 1.625 0 "/></g></g><g style="fill:#8c52ff;fill-opacity:1;"><g transform="translate(82.801305, 7.945442)"><path style="stroke:none" d="M 2.75 -5.015625 C 3.382812 -5.015625 3.878906 -4.859375 4.234375 -4.546875 C 4.597656 -4.234375 4.804688 -3.820312 4.859375 -3.3125 L 4.875 -3.25 L 3.890625 -3.25 L 3.875 -3.3125 C 3.75 -3.957031 3.367188 -4.28125 2.734375 -4.28125 C 2.328125 -4.28125 2.003906 -4.117188 1.765625 -3.796875 C 1.523438 -3.472656 1.40625 -3.035156 1.40625 -2.484375 C 1.40625 -1.890625 1.523438 -1.429688 1.765625 -1.109375 C 2.003906 -0.796875 2.320312 -0.640625 2.71875 -0.640625 C 3.03125 -0.640625 3.28125 -0.722656 3.46875 -0.890625 C 3.65625 -1.066406 3.785156 -1.3125 3.859375 -1.625 L 3.875 -1.703125 L 4.84375 -1.703125 L 4.84375 -1.625 C 4.789062 -1.09375 4.570312 -0.671875 4.1875 -0.359375 C 3.800781 -0.0546875 3.296875 0.09375 2.671875 0.09375 C 1.972656 0.09375 1.410156 -0.128906 0.984375 -0.578125 C 0.566406 -1.035156 0.359375 -1.648438 0.359375 -2.421875 C 0.359375 -3.210938 0.582031 -3.84375 1.03125 -4.3125 C 1.476562 -4.78125 2.050781 -5.015625 2.75 -5.015625 Z M 2.75 -5.015625 "/></g></g><g style="fill:#8c52ff;fill-opacity:1;"><g transform="translate(87.912022, 7.945442)"><path style="stroke:none" d="M 3.296875 -1.484375 L 1.640625 -1.484375 L 1.15625 0 L 0.109375 0 L 1.875 -4.921875 L 3.109375 -4.921875 L 4.859375 0 L 3.78125 0 Z M 2.484375 -4.078125 L 1.890625 -2.265625 L 3.046875 -2.265625 Z M 2.484375 -4.078125 "/></g></g><g style="fill:#8c52ff;fill-opacity:1;"><g transform="translate(92.723787, 7.945442)"><path style="stroke:none" d="M 2.265625 -5.015625 C 2.828125 -5.015625 3.253906 -4.875 3.546875 -4.59375 C 3.847656 -4.3125 4.023438 -3.9375 4.078125 -3.46875 L 3.078125 -3.46875 C 3.046875 -3.726562 2.957031 -3.925781 2.8125 -4.0625 C 2.675781 -4.207031 2.484375 -4.28125 2.234375 -4.28125 C 2.023438 -4.28125 1.851562 -4.226562 1.71875 -4.125 C 1.59375 -4.03125 1.53125 -3.890625 1.53125 -3.703125 C 1.53125 -3.492188 1.609375 -3.328125 1.765625 -3.203125 C 1.921875 -3.085938 2.195312 -2.984375 2.59375 -2.890625 C 3.125 -2.765625 3.515625 -2.578125 3.765625 -2.328125 C 4.023438 -2.078125 4.15625 -1.753906 4.15625 -1.359375 C 4.15625 -0.910156 3.976562 -0.554688 3.625 -0.296875 C 3.269531 -0.0351562 2.84375 0.09375 2.34375 0.09375 C 1.738281 0.09375 1.257812 -0.0351562 0.90625 -0.296875 C 0.550781 -0.554688 0.347656 -0.941406 0.296875 -1.453125 L 1.296875 -1.453125 C 1.347656 -1.191406 1.46875 -0.988281 1.65625 -0.84375 C 1.84375 -0.707031 2.066406 -0.640625 2.328125 -0.640625 C 2.554688 -0.640625 2.742188 -0.691406 2.890625 -0.796875 C 3.046875 -0.910156 3.125 -1.0625 3.125 -1.25 C 3.125 -1.457031 3.046875 -1.625 2.890625 -1.75 C 2.742188 -1.882812 2.492188 -1.992188 2.140625 -2.078125 C 1.585938 -2.210938 1.175781 -2.390625 0.90625 -2.609375 C 0.632812 -2.828125 0.5 -3.148438 0.5 -3.578125 C 0.5 -4.015625 0.671875 -4.363281 1.015625 -4.625 C 1.359375 -4.882812 1.773438 -5.015625 2.265625 -5.015625 Z M 2.265625 -5.015625 "/></g></g></g></g></g></svg>